<?xml version="1.0" encoding="UTF-8" standalone="no"?>
<svg xmlns="http://www.w3.org/2000/svg" xmlns:xlink="http://www.w3.org/1999/xlink" width="220.468mm" height="88.863mm" viewBox="-993.234009 -327.431213 220.467957 88.863129">
    <circle transform="matrix(1,0,-0,1,-846.138489,-319.739594)" style="stroke:#000000;stroke-width:0.050000mm;fill:none" r="1.600016" cx="0" cy="0"/>
    <circle transform="matrix(1,0,-0,1,-792.671448,-265.514618)" style="stroke:#000000;stroke-width:0.050000mm;fill:none" r="1.599992" cx="0" cy="0"/>
    <circle transform="matrix(1,0,-0,1,-873.824524,-256.366608)" style="stroke:#000000;stroke-width:0.050000mm;fill:none" r="1.599989" cx="0" cy="0"/>
    <circle transform="matrix(1,0,-0,1,-789.115479,-309.57962)" style="stroke:#000000;stroke-width:0.050000mm;fill:none" r="1.6" cx="0" cy="0"/>
    <path transform="matrix(-1.000001,-0,-0,1,-601.970215,-466.37262)" style="stroke:#000000;stroke-width:0.050000mm;fill:none" d="M280.017578,169.880371L280.029541,199.972412C280.009949,202.687027,279.368164,205.360992,278.153564,207.788818L267.64624,226.38208C266.825623,227.728134,265.095612,228.19725,263.70752,227.449951L262.280029,226.613281C255.993546,222.993927,249.270859,220.191605,242.274902,218.27417C219.733765,213.348114,196.730042,210.848419,173.656738,210.817871L173.560547,210.811279C172.070984,210.68544,170.904892,209.475861,170.833984,207.982666L170.849609,196.161621L170.849609,167.206787L170.795654,158.723877C170.804794,158.500473,170.861526,158.28157,170.961914,158.081787C171.30014,157.230164,171.862915,156.486191,172.590332,155.928955C172.982376,155.59111,173.376892,155.257477,173.775146,154.927002C186.273361,144.597702,201.980667,138.947006,218.194824,138.947021L222.395996,138.941406L222.488525,138.945557C235.442459,140.016739,248.191528,142.836929,260.388672,147.329346C260.963989,147.63208,261.325378,148.228058,261.327637,148.878174L261.327637,167.161621C261.335602,167.430817,261.452362,167.684952,261.650269,167.867584C261.848175,168.050232,262.11087,168.146225,262.379883,168.133789L278.267334,168.130859C279.233063,168.132065,280.016174,168.914658,280.017578,169.880371z"/>
    <circle transform="matrix(-1,-0,-0,1,-919.861572,-319.739532)" style="stroke:#000000;stroke-width:0.050000mm;fill:none" r="1.600016" cx="0" cy="0"/>
    <circle transform="matrix(-1,-0,-0,1,-973.328613,-265.514557)" style="stroke:#000000;stroke-width:0.050000mm;fill:none" r="1.599992" cx="0" cy="0"/>
    <circle transform="matrix(-1,-0,-0,1,-892.175537,-256.366547)" style="stroke:#000000;stroke-width:0.050000mm;fill:none" r="1.599989" cx="0" cy="0"/>
    <circle transform="matrix(-1,-0,-0,1,-976.884644,-309.579559)" style="stroke:#000000;stroke-width:0.050000mm;fill:none" r="1.6" cx="0" cy="0"/>
    <path transform="matrix(1.000001,0,-0,1,-1164.029785,-466.372681)" style="stroke:#000000;stroke-width:0.050000mm;fill:none" d="M280.017578,169.880371L280.029541,199.972412C280.009949,202.687027,279.368164,205.360992,278.153564,207.788818L267.64624,226.38208C266.825623,227.728134,265.095612,228.19725,263.70752,227.449951L262.280029,226.613281C255.993546,222.993927,249.270859,220.191605,242.274902,218.27417C219.733765,213.348114,196.730042,210.848419,173.656738,210.817871L173.560547,210.811279C172.070984,210.68544,170.904892,209.475861,170.833984,207.982666L170.849609,196.161621L170.849609,167.206787L170.795654,158.723877C170.804794,158.500473,170.861526,158.28157,170.961914,158.081787C171.30014,157.230164,171.862915,156.486191,172.590332,155.928955C172.982376,155.59111,173.376892,155.257477,173.775146,154.927002C186.273361,144.597702,201.980667,138.947006,218.194824,138.947021L222.395996,138.941406L222.488525,138.945557C235.442459,140.016739,248.191528,142.836929,260.388672,147.329346C260.963989,147.63208,261.325378,148.228058,261.327637,148.878174L261.327637,167.161621C261.335602,167.430817,261.452362,167.684952,261.650269,167.867584C261.848175,168.050232,262.11087,168.146225,262.379883,168.133789L278.267334,168.130859C279.233063,168.132065,280.016174,168.914658,280.017578,169.880371z"/>
</svg>
