  0
SECTION
  2
HEADER
  9
$ACADVER
  1
AC1009
  0
ENDSEC
  0
SECTION
  2
TABLES
  0
TABLE
  2
LAYER
  70
1
  0
LAYER
  2
Layer_0
  70
0
  62
7
  6
CONTINUOUS
  0
ENDTAB
  0
ENDSEC
  0
SECTION
  2
ENTITIES
  0
POLYLINE
  5
90
  8
Layer_0
  62
7
  70
1
  66
1
  10
0
  20
0
  30
0
  0
VERTEX
  5
90
  8
Layer_0
  10
-181.98804
  20
887.17883
  0
VERTEX
  5
91
  8
Layer_0
  10
-182
  20
857.08673
  42
0.11466274
  0
VERTEX
  5
92
  8
Layer_0
  10
-180.12402
  20
849.27032
  0
VERTEX
  5
93
  8
Layer_0
  10
-169.61664
  20
830.67706
  42
0.39859539
  0
VERTEX
  5
94
  8
Layer_0
  10
-165.67792
  20
829.60919
  0
VERTEX
  5
95
  8
Layer_0
  10
-164.25043
  20
830.44586
  42
-0.063806056
  0
VERTEX
  5
96
  8
Layer_0
  10
-144.2453
  20
838.78497
  42
-0.053508418
  0
VERTEX
  5
97
  8
Layer_0
  10
-75.627075
  20
846.24127
  0
VERTEX
  5
98
  8
Layer_0
  10
-75.530884
  20
846.24786
  42
0.3761358
  0
VERTEX
  5
99
  8
Layer_0
  10
-72.804321
  20
849.07648
  0
VERTEX
  5
9a
  8
Layer_0
  10
-72.819946
  20
860.89752
  0
VERTEX
  5
9b
  8
Layer_0
  10
-72.819946
  20
889.85239
  0
VERTEX
  5
9c
  8
Layer_0
  10
-72.765991
  20
898.33533
  42
0.10658633
  0
VERTEX
  5
9d
  8
Layer_0
  10
-72.932251
  20
898.97742
  42
0.13558497
  0
VERTEX
  5
9e
  8
Layer_0
  10
-74.560669
  20
901.13025
  42
0.0046557835
  0
VERTEX
  5
9f
  8
Layer_0
  10
-75.745483
  20
902.1322
  42
0.17440426
  0
VERTEX
  5
a0
  8
Layer_0
  10
-120.16516
  20
918.11218
  0
VERTEX
  5
a1
  8
Layer_0
  10
-124.36633
  20
918.1178
  0
VERTEX
  5
a2
  8
Layer_0
  10
-124.45886
  20
918.11365
  42
0.067701879
  0
VERTEX
  5
a3
  8
Layer_0
  10
-162.35907
  20
909.72986
  42
0.27754749
  0
VERTEX
  5
a4
  8
Layer_0
  10
-163.29803
  20
908.18103
  0
VERTEX
  5
a5
  8
Layer_0
  10
-163.29803
  20
889.89758
  42
-0.20165217
  0
VERTEX
  5
a6
  8
Layer_0
  10
-163.62067
  20
889.19159
  42
-0.20050348
  0
VERTEX
  5
a7
  8
Layer_0
  10
-164.35028
  20
888.92542
  0
VERTEX
  5
a8
  8
Layer_0
  10
-180.23779
  20
888.92834
  42
0.41342242
  0
SEQEND
  0
CIRCLE
  5
aa
  8
Layer_0
  62
7
  10
-159.59393
  20
866.23035
  30
0
  40
1.0000011
  0
CIRCLE
  5
aa
  8
Layer_0
  62
7
  10
-130.5799
  20
885.78839
  30
0
  40
1.0000011
  0
CIRCLE
  5
aa
  8
Layer_0
  62
7
  10
-112.59186
  20
874.10437
  30
0
  40
1.0000011
  0
CIRCLE
  5
aa
  8
Layer_0
  62
7
  10
-94.565857
  20
867.24634
  30
0
  40
1.0000011
  0
CIRCLE
  5
aa
  8
Layer_0
  62
7
  10
-159.59393
  20
900.2384
  30
0
  40
1.0000011
  0
CIRCLE
  5
aa
  8
Layer_0
  62
7
  10
-130.5799
  20
902.7384
  30
0
  40
1.0000011
  0
CIRCLE
  5
aa
  8
Layer_0
  62
7
  10
-76.547852
  20
889.2384
  30
0
  40
1.0000011
  0
CIRCLE
  5
aa
  8
Layer_0
  62
7
  10
-130.5799
  20
868.77039
  30
0
  40
1.0000011
  0
CIRCLE
  5
aa
  8
Layer_0
  62
7
  10
-112.59186
  20
908.2384
  30
0
  40
1.0000011
  0
CIRCLE
  5
aa
  8
Layer_0
  62
7
  10
-76.547852
  20
855.23834
  30
0
  40
1.0000011
  0
CIRCLE
  5
aa
  8
Layer_0
  62
7
  10
-159.59393
  20
883.24841
  30
0
  40
1.0000011
  0
CIRCLE
  5
aa
  8
Layer_0
  62
7
  10
-94.565857
  20
901.2384
  30
0
  40
1.0000011
  0
CIRCLE
  5
aa
  8
Layer_0
  62
7
  10
-94.565857
  20
884.2644
  30
0
  40
1.0000011
  0
CIRCLE
  5
aa
  8
Layer_0
  62
7
  10
-151.31451
  20
847.11487
  30
0
  40
1.0000011
  0
CIRCLE
  5
aa
  8
Layer_0
  62
7
  10
-112.59186
  20
891.12238
  30
0
  40
1.0000011
  0
CIRCLE
  5
aa
  8
Layer_0
  62
7
  10
-169.32507
  20
837.78833
  30
0
  40
1.0000011
  0
CIRCLE
  5
aa
  8
Layer_0
  62
7
  10
-76.547852
  20
872.2384
  30
0
  40
1.0000011
  0
POLYLINE
  5
aa
  8
Layer_0
  62
7
  70
1
  66
1
  10
0
  20
0
  30
0
  0
VERTEX
  5
aa
  8
Layer_0
  10
-95.265869
  20
862.44641
  0
VERTEX
  5
ab
  8
Layer_0
  10
-97.46582
  20
863.84637
  0
VERTEX
  5
ac
  8
Layer_0
  10
-98.288086
  20
867.52802
  42
0.41420912
  0
VERTEX
  5
ad
  8
Layer_0
  10
-100.34741
  20
869.02429
  0
VERTEX
  5
ae
  8
Layer_0
  10
-105.72229
  20
868.23407
  42
0.19893702
  0
VERTEX
  5
af
  8
Layer_0
  10
-106.37488
  20
867.83417
  0
VERTEX
  5
b0
  8
Layer_0
  10
-107.66589
  20
865.94641
  0
VERTEX
  5
b1
  8
Layer_0
  10
-109.86591
  20
864.64639
  0
VERTEX
  5
b2
  8
Layer_0
  10
-109.86591
  20
862.2464
  0
VERTEX
  5
b3
  8
Layer_0
  10
-107.66589
  20
860.94638
  0
VERTEX
  5
b4
  8
Layer_0
  10
-104.16589
  20
860.94638
  0
VERTEX
  5
b5
  8
Layer_0
  10
-102.06586
  20
858.84637
  0
VERTEX
  5
b6
  8
Layer_0
  10
-97.46582
  20
858.84637
  0
VERTEX
  5
b7
  8
Layer_0
  10
-95.265869
  20
860.04639
  0
SEQEND
  0
POLYLINE
  5
b9
  8
Layer_0
  62
7
  70
1
  66
1
  10
0
  20
0
  30
0
  0
VERTEX
  5
b9
  8
Layer_0
  10
-77.247864
  20
850.43835
  0
VERTEX
  5
ba
  8
Layer_0
  10
-79.447876
  20
851.83838
  0
VERTEX
  5
bb
  8
Layer_0
  10
-80.27002
  20
855.51996
  42
0.41420842
  0
VERTEX
  5
bc
  8
Layer_0
  10
-82.329468
  20
857.01627
  0
VERTEX
  5
bd
  8
Layer_0
  10
-87.704224
  20
856.22607
  42
0.19891282
  0
VERTEX
  5
be
  8
Layer_0
  10
-88.356873
  20
855.82617
  0
VERTEX
  5
bf
  8
Layer_0
  10
-89.647827
  20
853.93839
  0
VERTEX
  5
c0
  8
Layer_0
  10
-91.8479
  20
852.63837
  0
VERTEX
  5
c1
  8
Layer_0
  10
-91.8479
  20
850.23837
  0
VERTEX
  5
c2
  8
Layer_0
  10
-89.647827
  20
848.93839
  0
VERTEX
  5
c3
  8
Layer_0
  10
-86.147827
  20
848.93835
  0
VERTEX
  5
c4
  8
Layer_0
  10
-84.047852
  20
846.83835
  0
VERTEX
  5
c5
  8
Layer_0
  10
-79.447876
  20
846.83835
  0
VERTEX
  5
c6
  8
Layer_0
  10
-77.247864
  20
848.03836
  0
SEQEND
  0
POLYLINE
  5
c8
  8
Layer_0
  62
7
  70
1
  66
1
  10
0
  20
0
  30
0
  0
VERTEX
  5
c8
  8
Layer_0
  10
-151.88074
  20
851.93246
  0
VERTEX
  5
c9
  8
Layer_0
  10
-149.39343
  20
851.14966
  0
VERTEX
  5
ca
  8
Layer_0
  10
-147.64636
  20
847.80627
  42
0.41421356
  0
VERTEX
  5
cb
  8
Layer_0
  10
-145.26978
  20
846.89404
  0
VERTEX
  5
cc
  8
Layer_0
  10
-140.28259
  20
849.04837
  42
0.19887848
  0
VERTEX
  5
cd
  8
Layer_0
  10
-139.75574
  20
849.60358
  0
VERTEX
  5
ce
  8
Layer_0
  10
-138.99731
  20
851.76117
  0
VERTEX
  5
cf
  8
Layer_0
  10
-137.20886
  20
853.58627
  0
VERTEX
  5
d0
  8
Layer_0
  10
-137.82996
  20
855.90448
  0
VERTEX
  5
d1
  8
Layer_0
  10
-140.29138
  20
856.59076
  0
VERTEX
  5
d2
  8
Layer_0
  10
-143.67224
  20
855.68488
  0
VERTEX
  5
d3
  8
Layer_0
  10
-146.24414
  20
857.16986
  0
VERTEX
  5
d4
  8
Layer_0
  10
-150.6875
  20
855.97928
  0
VERTEX
  5
d5
  8
Layer_0
  10
-152.50183
  20
854.25079
  0
SEQEND
  0
POLYLINE
  5
d7
  8
Layer_0
  62
7
  70
1
  66
1
  10
0
  20
0
  30
0
  0
VERTEX
  5
d7
  8
Layer_0
  10
-113.29187
  20
903.43842
  0
VERTEX
  5
d8
  8
Layer_0
  10
-115.49188
  20
904.83844
  0
VERTEX
  5
d9
  8
Layer_0
  10
-116.31409
  20
908.52002
  42
0.41420539
  0
VERTEX
  5
da
  8
Layer_0
  10
-118.37347
  20
910.01636
  0
VERTEX
  5
db
  8
Layer_0
  10
-123.74829
  20
909.22614
  42
0.19892225
  0
VERTEX
  5
dc
  8
Layer_0
  10
-124.40088
  20
908.82623
  0
VERTEX
  5
dd
  8
Layer_0
  10
-125.69189
  20
906.93842
  0
VERTEX
  5
de
  8
Layer_0
  10
-127.89197
  20
905.63843
  0
VERTEX
  5
df
  8
Layer_0
  10
-127.89197
  20
903.2384
  0
VERTEX
  5
e0
  8
Layer_0
  10
-125.69189
  20
901.93842
  0
VERTEX
  5
e1
  8
Layer_0
  10
-122.19189
  20
901.93842
  0
VERTEX
  5
e2
  8
Layer_0
  10
-120.09192
  20
899.83844
  0
VERTEX
  5
e3
  8
Layer_0
  10
-115.49188
  20
899.83844
  0
VERTEX
  5
e4
  8
Layer_0
  10
-113.29187
  20
901.03842
  0
SEQEND
  0
POLYLINE
  5
e6
  8
Layer_0
  62
7
  70
1
  66
1
  10
0
  20
0
  30
0
  0
VERTEX
  5
e6
  8
Layer_0
  10
-131.27991
  20
880.9884
  0
VERTEX
  5
e7
  8
Layer_0
  10
-133.47998
  20
882.3884
  0
VERTEX
  5
e8
  8
Layer_0
  10
-134.30212
  20
886.07001
  42
0.41420468
  0
VERTEX
  5
e9
  8
Layer_0
  10
-136.36157
  20
887.56631
  0
VERTEX
  5
ea
  8
Layer_0
  10
-141.73633
  20
886.77612
  42
0.19887387
  0
VERTEX
  5
eb
  8
Layer_0
  10
-142.38892
  20
886.37622
  0
VERTEX
  5
ec
  8
Layer_0
  10
-143.67993
  20
884.4884
  0
VERTEX
  5
ed
  8
Layer_0
  10
-145.87988
  20
883.18842
  0
VERTEX
  5
ee
  8
Layer_0
  10
-145.87988
  20
880.78839
  0
VERTEX
  5
ef
  8
Layer_0
  10
-143.67993
  20
879.4884
  0
VERTEX
  5
f0
  8
Layer_0
  10
-140.17993
  20
879.4884
  0
VERTEX
  5
f1
  8
Layer_0
  10
-138.07996
  20
877.3884
  0
VERTEX
  5
f2
  8
Layer_0
  10
-133.47998
  20
877.3884
  0
VERTEX
  5
f3
  8
Layer_0
  10
-131.27991
  20
878.58841
  0
SEQEND
  0
POLYLINE
  5
f5
  8
Layer_0
  62
7
  70
1
  66
1
  10
0
  20
0
  30
0
  0
VERTEX
  5
f5
  8
Layer_0
  10
-95.265869
  20
896.43842
  0
VERTEX
  5
f6
  8
Layer_0
  10
-97.46582
  20
897.83844
  0
VERTEX
  5
f7
  8
Layer_0
  10
-98.288086
  20
901.52002
  42
0.41420539
  0
VERTEX
  5
f8
  8
Layer_0
  10
-100.34741
  20
903.01633
  0
VERTEX
  5
f9
  8
Layer_0
  10
-105.72229
  20
902.22614
  42
0.19893702
  0
VERTEX
  5
fa
  8
Layer_0
  10
-106.37488
  20
901.82623
  0
VERTEX
  5
fb
  8
Layer_0
  10
-107.66589
  20
899.93842
  0
VERTEX
  5
fc
  8
Layer_0
  10
-109.86591
  20
898.63843
  0
VERTEX
  5
fd
  8
Layer_0
  10
-109.86591
  20
896.2384
  0
VERTEX
  5
fe
  8
Layer_0
  10
-107.66589
  20
894.93842
  0
VERTEX
  5
ff
  8
Layer_0
  10
-104.16589
  20
894.93842
  0
VERTEX
  5
100
  8
Layer_0
  10
-102.06586
  20
892.83844
  0
VERTEX
  5
101
  8
Layer_0
  10
-97.46582
  20
892.83844
  0
VERTEX
  5
102
  8
Layer_0
  10
-95.265869
  20
894.03842
  0
SEQEND
  0
POLYLINE
  5
104
  8
Layer_0
  62
7
  70
1
  66
1
  10
0
  20
0
  30
0
  0
VERTEX
  5
104
  8
Layer_0
  10
-77.247864
  20
867.43839
  0
VERTEX
  5
105
  8
Layer_0
  10
-79.447876
  20
868.83838
  0
VERTEX
  5
106
  8
Layer_0
  10
-80.27002
  20
872.51996
  42
0.41420842
  0
VERTEX
  5
107
  8
Layer_0
  10
-82.329468
  20
874.0163
  0
VERTEX
  5
108
  8
Layer_0
  10
-87.704224
  20
873.22607
  42
0.19889806
  0
VERTEX
  5
109
  8
Layer_0
  10
-88.356873
  20
872.82617
  0
VERTEX
  5
10a
  8
Layer_0
  10
-89.647827
  20
870.93842
  0
VERTEX
  5
10b
  8
Layer_0
  10
-91.8479
  20
869.63837
  0
VERTEX
  5
10c
  8
Layer_0
  10
-91.8479
  20
867.2384
  0
VERTEX
  5
10d
  8
Layer_0
  10
-89.647827
  20
865.93842
  0
VERTEX
  5
10e
  8
Layer_0
  10
-86.147827
  20
865.93839
  0
VERTEX
  5
10f
  8
Layer_0
  10
-84.047852
  20
863.83838
  0
VERTEX
  5
110
  8
Layer_0
  10
-79.447876
  20
863.83838
  0
VERTEX
  5
111
  8
Layer_0
  10
-77.247864
  20
865.03839
  0
SEQEND
  0
POLYLINE
  5
113
  8
Layer_0
  62
7
  70
1
  66
1
  10
0
  20
0
  30
0
  0
VERTEX
  5
113
  8
Layer_0
  10
-113.29187
  20
869.30438
  0
VERTEX
  5
114
  8
Layer_0
  10
-115.49188
  20
870.70441
  0
VERTEX
  5
115
  8
Layer_0
  10
-116.31409
  20
874.38599
  42
0.41420983
  0
VERTEX
  5
116
  8
Layer_0
  10
-118.37347
  20
875.88229
  0
VERTEX
  5
117
  8
Layer_0
  10
-123.74829
  20
875.0921
  42
0.19893702
  0
VERTEX
  5
118
  8
Layer_0
  10
-124.40088
  20
874.6922
  0
VERTEX
  5
119
  8
Layer_0
  10
-125.69189
  20
872.80438
  0
VERTEX
  5
11a
  8
Layer_0
  10
-127.89197
  20
871.50439
  0
VERTEX
  5
11b
  8
Layer_0
  10
-127.89197
  20
869.10437
  0
VERTEX
  5
11c
  8
Layer_0
  10
-125.69189
  20
867.80438
  0
VERTEX
  5
11d
  8
Layer_0
  10
-122.19189
  20
867.80438
  0
VERTEX
  5
11e
  8
Layer_0
  10
-120.09192
  20
865.70441
  0
VERTEX
  5
11f
  8
Layer_0
  10
-115.49188
  20
865.70441
  0
VERTEX
  5
120
  8
Layer_0
  10
-113.29187
  20
866.90439
  0
SEQEND
  0
POLYLINE
  5
122
  8
Layer_0
  62
7
  70
1
  66
1
  10
0
  20
0
  30
0
  0
VERTEX
  5
122
  8
Layer_0
  10
-165.62256
  20
885.53442
  0
VERTEX
  5
123
  8
Layer_0
  10
-165.62256
  20
857.59436
  42
0.41421356
  0
VERTEX
  5
124
  8
Layer_0
  10
-164.82263
  20
856.79437
  42
0.41421356
  0
VERTEX
  5
125
  8
Layer_0
  10
-164.02258
  20
857.59436
  0
VERTEX
  5
126
  8
Layer_0
  10
-164.02258
  20
885.53442
  42
0.41421356
  0
VERTEX
  5
127
  8
Layer_0
  10
-164.82263
  20
886.33441
  42
0.41421356
  0
SEQEND
  0
POLYLINE
  5
129
  8
Layer_0
  62
7
  70
1
  66
1
  10
0
  20
0
  30
0
  0
VERTEX
  5
129
  8
Layer_0
  10
-171.1189
  20
842.29535
  0
VERTEX
  5
12a
  8
Layer_0
  10
-168.51367
  20
842.18286
  0
VERTEX
  5
12b
  8
Layer_0
  10
-165.96094
  20
839.40564
  42
0.19888881
  0
VERTEX
  5
12c
  8
Layer_0
  10
-164.75012
  20
838.74826
  42
0.19891256
  0
VERTEX
  5
12d
  8
Layer_0
  10
-163.4292
  20
839.13956
  0
VERTEX
  5
12e
  8
Layer_0
  10
-159.16943
  20
842.51126
  42
0.19892971
  0
VERTEX
  5
12f
  8
Layer_0
  10
-158.80432
  20
843.18384
  0
VERTEX
  5
130
  8
Layer_0
  10
-158.63013
  20
845.46426
  0
VERTEX
  5
131
  8
Layer_0
  10
-157.375
  20
847.69006
  0
VERTEX
  5
132
  8
Layer_0
  10
-158.57495
  20
849.76859
  0
VERTEX
  5
133
  8
Layer_0
  10
-161.13013
  20
849.79437
  0
VERTEX
  5
134
  8
Layer_0
  10
-164.16125
  20
848.04437
  0
VERTEX
  5
135
  8
Layer_0
  10
-167.02991
  20
848.81299
  0
VERTEX
  5
136
  8
Layer_0
  10
-171.01367
  20
846.51294
  0
VERTEX
  5
137
  8
Layer_0
  10
-172.31885
  20
844.37378
  0
SEQEND
  0
POLYLINE
  5
139
  8
Layer_0
  62
7
  70
1
  66
1
  10
0
  20
0
  30
0
  0
VERTEX
  5
139
  8
Layer_0
  10
-131.27991
  20
897.93842
  0
VERTEX
  5
13a
  8
Layer_0
  10
-133.47998
  20
899.33844
  0
VERTEX
  5
13b
  8
Layer_0
  10
-134.30212
  20
903.02002
  42
0.41420539
  0
VERTEX
  5
13c
  8
Layer_0
  10
-136.36157
  20
904.51633
  0
VERTEX
  5
13d
  8
Layer_0
  10
-141.73633
  20
903.72614
  42
0.19887387
  0
VERTEX
  5
13e
  8
Layer_0
  10
-142.38892
  20
903.32623
  0
VERTEX
  5
13f
  8
Layer_0
  10
-143.67993
  20
901.43842
  0
VERTEX
  5
140
  8
Layer_0
  10
-145.87988
  20
900.13843
  0
VERTEX
  5
141
  8
Layer_0
  10
-145.87988
  20
897.7384
  0
VERTEX
  5
142
  8
Layer_0
  10
-143.67993
  20
896.43842
  0
VERTEX
  5
143
  8
Layer_0
  10
-140.17993
  20
896.43842
  0
VERTEX
  5
144
  8
Layer_0
  10
-138.07996
  20
894.33844
  0
VERTEX
  5
145
  8
Layer_0
  10
-133.47998
  20
894.33844
  0
VERTEX
  5
146
  8
Layer_0
  10
-131.27991
  20
895.53842
  0
SEQEND
  0
POLYLINE
  5
148
  8
Layer_0
  62
7
  70
1
  66
1
  10
0
  20
0
  30
0
  0
VERTEX
  5
148
  8
Layer_0
  10
-147.78503
  20
899.65063
  0
VERTEX
  5
149
  8
Layer_0
  10
-146.4939
  20
901.53842
  0
VERTEX
  5
14a
  8
Layer_0
  10
-144.29395
  20
902.83844
  0
VERTEX
  5
14b
  8
Layer_0
  10
-144.29395
  20
905.23843
  0
VERTEX
  5
14c
  8
Layer_0
  10
-146.4939
  20
906.53845
  0
VERTEX
  5
14d
  8
Layer_0
  10
-149.99402
  20
906.53845
  0
VERTEX
  5
14e
  8
Layer_0
  10
-152.09387
  20
908.63843
  0
VERTEX
  5
14f
  8
Layer_0
  10
-156.69397
  20
908.63843
  0
VERTEX
  5
150
  8
Layer_0
  10
-158.89404
  20
907.43842
  0
VERTEX
  5
151
  8
Layer_0
  10
-158.89404
  20
905.03845
  0
VERTEX
  5
152
  8
Layer_0
  10
-156.69397
  20
903.63843
  0
VERTEX
  5
153
  8
Layer_0
  10
-155.87183
  20
899.95691
  42
0.41420539
  0
VERTEX
  5
154
  8
Layer_0
  10
-153.81238
  20
898.46063
  0
VERTEX
  5
155
  8
Layer_0
  10
-148.43762
  20
899.25073
  42
0.19885755
  0
SEQEND
  0
POLYLINE
  5
157
  8
Layer_0
  62
7
  70
1
  66
1
  10
0
  20
0
  30
0
  0
VERTEX
  5
157
  8
Layer_0
  10
-180.86255
  20
885.53442
  0
VERTEX
  5
158
  8
Layer_0
  10
-180.86255
  20
857.59439
  42
0.41421356
  0
VERTEX
  5
159
  8
Layer_0
  10
-180.06262
  20
856.79437
  42
0.41421356
  0
VERTEX
  5
15a
  8
Layer_0
  10
-179.26257
  20
857.59439
  0
VERTEX
  5
15b
  8
Layer_0
  10
-179.26257
  20
885.53442
  42
0.41421356
  0
VERTEX
  5
15c
  8
Layer_0
  10
-180.06262
  20
886.33441
  42
0.41421356
  0
SEQEND
  0
POLYLINE
  5
15e
  8
Layer_0
  62
7
  70
1
  66
1
  10
0
  20
0
  30
0
  0
VERTEX
  5
15e
  8
Layer_0
  10
-77.247864
  20
884.43842
  0
VERTEX
  5
15f
  8
Layer_0
  10
-79.447876
  20
885.83838
  0
VERTEX
  5
160
  8
Layer_0
  10
-80.27002
  20
889.51999
  42
0.41420842
  0
VERTEX
  5
161
  8
Layer_0
  10
-82.329468
  20
891.0163
  0
VERTEX
  5
162
  8
Layer_0
  10
-87.704224
  20
890.2261
  42
0.19891282
  0
VERTEX
  5
163
  8
Layer_0
  10
-88.356873
  20
889.8262
  0
VERTEX
  5
164
  8
Layer_0
  10
-89.647827
  20
887.93842
  0
VERTEX
  5
165
  8
Layer_0
  10
-91.8479
  20
886.6384
  0
VERTEX
  5
166
  8
Layer_0
  10
-91.8479
  20
884.2384
  0
VERTEX
  5
167
  8
Layer_0
  10
-89.647827
  20
882.93842
  0
VERTEX
  5
168
  8
Layer_0
  10
-86.147827
  20
882.93842
  0
VERTEX
  5
169
  8
Layer_0
  10
-84.047852
  20
880.83838
  0
VERTEX
  5
16a
  8
Layer_0
  10
-79.447876
  20
880.83838
  0
VERTEX
  5
16b
  8
Layer_0
  10
-77.247864
  20
882.03839
  0
SEQEND
  0
POLYLINE
  5
16d
  8
Layer_0
  62
7
  70
1
  66
1
  10
0
  20
0
  30
0
  0
VERTEX
  5
16d
  8
Layer_0
  10
-131.27991
  20
863.9704
  0
VERTEX
  5
16e
  8
Layer_0
  10
-133.47998
  20
865.37039
  0
VERTEX
  5
16f
  8
Layer_0
  10
-134.30212
  20
869.052
  42
0.41420539
  0
VERTEX
  5
170
  8
Layer_0
  10
-136.36157
  20
870.54828
  0
VERTEX
  5
171
  8
Layer_0
  10
-141.73633
  20
869.75809
  42
0.19886508
  0
VERTEX
  5
172
  8
Layer_0
  10
-142.38892
  20
869.35822
  0
VERTEX
  5
173
  8
Layer_0
  10
-143.67993
  20
867.4704
  0
VERTEX
  5
174
  8
Layer_0
  10
-145.87988
  20
866.17041
  0
VERTEX
  5
175
  8
Layer_0
  10
-145.87988
  20
863.77039
  0
VERTEX
  5
176
  8
Layer_0
  10
-143.67993
  20
862.4704
  0
VERTEX
  5
177
  8
Layer_0
  10
-140.17993
  20
862.4704
  0
VERTEX
  5
178
  8
Layer_0
  10
-138.07996
  20
860.37036
  0
VERTEX
  5
179
  8
Layer_0
  10
-133.47998
  20
860.37036
  0
VERTEX
  5
17a
  8
Layer_0
  10
-131.27991
  20
861.57037
  0
SEQEND
  0
POLYLINE
  5
17c
  8
Layer_0
  62
7
  70
1
  66
1
  10
0
  20
0
  30
0
  0
VERTEX
  5
17c
  8
Layer_0
  10
-158.89404
  20
888.0484
  0
VERTEX
  5
17d
  8
Layer_0
  10
-156.69397
  20
886.64841
  0
VERTEX
  5
17e
  8
Layer_0
  10
-155.87183
  20
882.96692
  42
0.41420912
  0
VERTEX
  5
17f
  8
Layer_0
  10
-153.81238
  20
881.47061
  0
VERTEX
  5
180
  8
Layer_0
  10
-148.43762
  20
882.26071
  42
0.19892506
  0
VERTEX
  5
181
  8
Layer_0
  10
-147.78503
  20
882.66071
  0
VERTEX
  5
182
  8
Layer_0
  10
-146.4939
  20
884.5484
  0
VERTEX
  5
183
  8
Layer_0
  10
-144.29395
  20
885.84839
  0
VERTEX
  5
184
  8
Layer_0
  10
-144.29395
  20
888.24841
  0
VERTEX
  5
185
  8
Layer_0
  10
-146.4939
  20
889.5484
  0
VERTEX
  5
186
  8
Layer_0
  10
-149.99402
  20
889.5484
  0
VERTEX
  5
187
  8
Layer_0
  10
-152.09399
  20
891.64844
  0
VERTEX
  5
188
  8
Layer_0
  10
-156.69397
  20
891.64844
  0
VERTEX
  5
189
  8
Layer_0
  10
-158.89404
  20
890.44843
  0
SEQEND
  0
POLYLINE
  5
18b
  8
Layer_0
  62
7
  70
1
  66
1
  10
0
  20
0
  30
0
  0
VERTEX
  5
18b
  8
Layer_0
  10
-95.265869
  20
879.46442
  0
VERTEX
  5
18c
  8
Layer_0
  10
-97.46582
  20
880.86441
  0
VERTEX
  5
18d
  8
Layer_0
  10
-98.288086
  20
884.54602
  42
0.41420983
  0
VERTEX
  5
18e
  8
Layer_0
  10
-100.34741
  20
886.0423
  0
VERTEX
  5
18f
  8
Layer_0
  10
-105.72229
  20
885.25211
  42
0.19892225
  0
VERTEX
  5
190
  8
Layer_0
  10
-106.37488
  20
884.8522
  0
VERTEX
  5
191
  8
Layer_0
  10
-107.66589
  20
882.96442
  0
VERTEX
  5
192
  8
Layer_0
  10
-109.86591
  20
881.6644
  0
VERTEX
  5
193
  8
Layer_0
  10
-109.86591
  20
879.2644
  0
VERTEX
  5
194
  8
Layer_0
  10
-107.66589
  20
877.96442
  0
VERTEX
  5
195
  8
Layer_0
  10
-104.16589
  20
877.96442
  0
VERTEX
  5
196
  8
Layer_0
  10
-102.06586
  20
875.86438
  0
VERTEX
  5
197
  8
Layer_0
  10
-97.46582
  20
875.86438
  0
VERTEX
  5
198
  8
Layer_0
  10
-95.265869
  20
877.06439
  0
SEQEND
  0
POLYLINE
  5
19a
  8
Layer_0
  62
7
  70
1
  66
1
  10
0
  20
0
  30
0
  0
VERTEX
  5
19a
  8
Layer_0
  10
-113.29187
  20
886.32239
  0
VERTEX
  5
19b
  8
Layer_0
  10
-115.49188
  20
887.72241
  0
VERTEX
  5
19c
  8
Layer_0
  10
-116.31409
  20
891.40402
  42
0.41420983
  0
VERTEX
  5
19d
  8
Layer_0
  10
-118.37347
  20
892.90033
  0
VERTEX
  5
19e
  8
Layer_0
  10
-123.74829
  20
892.11011
  42
0.19892225
  0
VERTEX
  5
19f
  8
Layer_0
  10
-124.40088
  20
891.71021
  0
VERTEX
  5
1a0
  8
Layer_0
  10
-125.69189
  20
889.82239
  0
VERTEX
  5
1a1
  8
Layer_0
  10
-127.89197
  20
888.5224
  0
VERTEX
  5
1a2
  8
Layer_0
  10
-127.89197
  20
886.12241
  0
VERTEX
  5
1a3
  8
Layer_0
  10
-125.69189
  20
884.82239
  0
VERTEX
  5
1a4
  8
Layer_0
  10
-122.19189
  20
884.82239
  0
VERTEX
  5
1a5
  8
Layer_0
  10
-120.09192
  20
882.72241
  0
VERTEX
  5
1a6
  8
Layer_0
  10
-115.49188
  20
882.72241
  0
VERTEX
  5
1a7
  8
Layer_0
  10
-113.29187
  20
883.92242
  0
SEQEND
  0
POLYLINE
  5
1a9
  8
Layer_0
  62
7
  70
1
  66
1
  10
0
  20
0
  30
0
  0
VERTEX
  5
1a9
  8
Layer_0
  10
-158.89404
  20
871.0304
  0
VERTEX
  5
1aa
  8
Layer_0
  10
-156.69397
  20
869.63037
  0
VERTEX
  5
1ab
  8
Layer_0
  10
-155.87183
  20
865.94891
  42
0.41420983
  0
VERTEX
  5
1ac
  8
Layer_0
  10
-153.81238
  20
864.45258
  0
VERTEX
  5
1ad
  8
Layer_0
  10
-148.43762
  20
865.24268
  42
0.19892506
  0
VERTEX
  5
1ae
  8
Layer_0
  10
-147.78503
  20
865.6427
  0
VERTEX
  5
1af
  8
Layer_0
  10
-146.4939
  20
867.5304
  0
VERTEX
  5
1b0
  8
Layer_0
  10
-144.29395
  20
868.83038
  0
VERTEX
  5
1b1
  8
Layer_0
  10
-144.29395
  20
871.23041
  0
VERTEX
  5
1b2
  8
Layer_0
  10
-146.4939
  20
872.5304
  0
VERTEX
  5
1b3
  8
Layer_0
  10
-149.99402
  20
872.5304
  0
VERTEX
  5
1b4
  8
Layer_0
  10
-152.09399
  20
874.63037
  0
VERTEX
  5
1b5
  8
Layer_0
  10
-156.69397
  20
874.63037
  0
VERTEX
  5
1b6
  8
Layer_0
  10
-158.89404
  20
873.43039
  0
SEQEND
  0
CIRCLE
  5
1b8
  8
Layer_0
  62
7
  10
-166.71198
  20
887.82037
  30
0
  40
0.70000076
  0
CIRCLE
  5
1b8
  8
Layer_0
  62
7
  10
-178.14197
  20
887.82037
  30
0
  40
0.70000076
  0
CIRCLE
  5
1b8
  8
Layer_0
  62
7
  10
-167.60394
  20
850.26837
  30
0
  40
1.0000011
  0
CIRCLE
  5
1b8
  8
Layer_0
  62
7
  10
-168.70398
  20
854.86835
  30
0
  40
1.0000011
  0
CIRCLE
  5
1b8
  8
Layer_0
  62
7
  10
-172.70398
  20
854.86835
  30
0
  40
1.0000011
  0
CIRCLE
  5
1b8
  8
Layer_0
  62
7
  10
-175.70398
  20
854.86835
  30
0
  40
1.0000011
  0
CIRCLE
  5
1b8
  8
Layer_0
  62
7
  10
-146.13788
  20
892.33844
  30
0
  40
1.1000012
  0
CIRCLE
  5
1b8
  8
Layer_0
  62
7
  10
-127.08789
  20
873.28833
  30
0
  40
1.1000012
  0
CIRCLE
  5
1b8
  8
Layer_0
  62
7
  10
-108.0379
  20
892.33838
  30
0
  40
1.1000012
  0
CIRCLE
  5
1b8
  8
Layer_0
  62
7
  10
-89.114807
  20
900.26636
  30
0
  40
1.0000015
  0
CIRCLE
  5
1b8
  8
Layer_0
  62
7
  10
-92.670837
  20
856.20068
  30
0
  40
1.0000015
  0
CIRCLE
  5
1b8
  8
Layer_0
  62
7
  10
-173.82397
  20
847.05334
  30
0
  40
1.0000015
  0
CIRCLE
  5
1b8
  8
Layer_0
  62
7
  10
-127.08789
  20
911.38843
  30
0
  40
1.1000012
  0
CIRCLE
  5
1b8
  8
Layer_0
  62
7
  10
-146.13788
  20
910.42639
  30
0
  40
1.0000015
  0
POLYLINE
  5
1b8
  8
Layer_0
  62
7
  70
1
  66
1
  10
0
  20
0
  30
0
  0
VERTEX
  5
1b8
  8
Layer_0
  10
-175.02692
  20
884.47498
  0
VERTEX
  5
1b9
  8
Layer_0
  10
-169.8269
  20
884.47498
  0
VERTEX
  5
1ba
  8
Layer_0
  10
-168.22699
  20
885.47498
  0
VERTEX
  5
1bb
  8
Layer_0
  10
-168.22693
  20
889.52551
  0
VERTEX
  5
1bc
  8
Layer_0
  10
-176.62695
  20
889.52551
  0
VERTEX
  5
1bd
  8
Layer_0
  10
-176.62701
  20
885.47498
  0
SEQEND
  0
POLYLINE
  5
1bf
  8
Layer_0
  62
7
  70
1
  66
1
  10
0
  20
0
  30
0
  0
VERTEX
  5
1bf
  8
Layer_0
  10
-184.0119
  20
887.17892
  0
VERTEX
  5
1c0
  8
Layer_0
  10
-183.99994
  20
857.08688
  42
-0.11466274
  0
VERTEX
  5
1c1
  8
Layer_0
  10
-185.87592
  20
849.27048
  0
VERTEX
  5
1c2
  8
Layer_0
  10
-196.3833
  20
830.67722
  42
-0.39859539
  0
VERTEX
  5
1c3
  8
Layer_0
  10
-200.32202
  20
829.60934
  0
VERTEX
  5
1c4
  8
Layer_0
  10
-201.74951
  20
830.44601
  42
0.063806056
  0
VERTEX
  5
1c5
  8
Layer_0
  10
-221.75458
  20
838.78513
  42
0.053508418
  0
VERTEX
  5
1c6
  8
Layer_0
  10
-290.37274
  20
846.24146
  0
VERTEX
  5
1c7
  8
Layer_0
  10
-290.46893
  20
846.24805
  42
-0.3761358
  0
VERTEX
  5
1c8
  8
Layer_0
  10
-293.1955
  20
849.07666
  0
VERTEX
  5
1c9
  8
Layer_0
  10
-293.17987
  20
860.89771
  0
VERTEX
  5
1ca
  8
Layer_0
  10
-293.17987
  20
889.85254
  0
VERTEX
  5
1cb
  8
Layer_0
  10
-293.23383
  20
898.33545
  42
-0.10658633
  0
VERTEX
  5
1cc
  8
Layer_0
  10
-293.06757
  20
898.97754
  42
-0.13558497
  0
VERTEX
  5
1cd
  8
Layer_0
  10
-291.43915
  20
901.13037
  42
-0.0046557835
  0
VERTEX
  5
1ce
  8
Layer_0
  10
-290.25433
  20
902.13232
  42
-0.17440426
  0
VERTEX
  5
1cf
  8
Layer_0
  10
-245.83466
  20
918.1123
  0
VERTEX
  5
1d0
  8
Layer_0
  10
-241.63348
  20
918.11792
  0
VERTEX
  5
1d1
  8
Layer_0
  10
-241.54095
  20
918.11377
  42
-0.067701879
  0
VERTEX
  5
1d2
  8
Layer_0
  10
-203.64081
  20
909.72995
  42
-0.27754749
  0
VERTEX
  5
1d3
  8
Layer_0
  10
-202.70184
  20
908.18112
  0
VERTEX
  5
1d4
  8
Layer_0
  10
-202.70184
  20
889.89767
  42
0.20165217
  0
VERTEX
  5
1d5
  8
Layer_0
  10
-202.37921
  20
889.19171
  42
0.20050348
  0
VERTEX
  5
1d6
  8
Layer_0
  10
-201.6496
  20
888.92551
  0
VERTEX
  5
1d7
  8
Layer_0
  10
-185.76215
  20
888.92844
  42
-0.41342242
  0
SEQEND
  0
CIRCLE
  5
1d9
  8
Layer_0
  62
7
  10
-219.862
  20
910.42645
  30
0
  40
0.99999452
  0
CIRCLE
  5
1d9
  8
Layer_0
  62
7
  10
-238.91199
  20
911.38849
  30
0
  40
1.1
  0
CIRCLE
  5
1d9
  8
Layer_0
  62
7
  10
-257.96198
  20
892.3385
  30
0
  40
1.1
  0
CIRCLE
  5
1d9
  8
Layer_0
  62
7
  10
-238.91199
  20
873.28845
  30
0
  40
1.1
  0
CIRCLE
  5
1d9
  8
Layer_0
  62
7
  10
-219.862
  20
892.3385
  30
0
  40
1.1
  0
CIRCLE
  5
1d9
  8
Layer_0
  62
7
  10
-192.17596
  20
847.05347
  30
0
  40
0.99999452
  0
CIRCLE
  5
1d9
  8
Layer_0
  62
7
  10
-273.32898
  20
856.20087
  30
0
  40
1.0000048
  0
CIRCLE
  5
1d9
  8
Layer_0
  62
7
  10
-276.88501
  20
900.26648
  30
0
  40
1.0000048
  0
CIRCLE
  5
1d9
  8
Layer_0
  62
7
  10
-242.34399
  20
874.10443
  30
0
  40
1
  0
CIRCLE
  5
1d9
  8
Layer_0
  62
7
  10
-196.5509
  20
837.78845
  30
0
  40
1
  0
CIRCLE
  5
1d9
  8
Layer_0
  62
7
  10
-260.34399
  20
867.24646
  30
0
  40
1
  0
CIRCLE
  5
1d9
  8
Layer_0
  62
7
  10
-214.5614
  20
847.11493
  30
0
  40
1
  0
CIRCLE
  5
1d9
  8
Layer_0
  62
7
  10
-224.34399
  20
868.77045
  30
0
  40
1
  0
CIRCLE
  5
1d9
  8
Layer_0
  62
7
  10
-206.36401
  20
866.23047
  30
0
  40
1
  0
CIRCLE
  5
1d9
  8
Layer_0
  62
7
  10
-242.34399
  20
908.2384
  30
0
  40
1
  0
CIRCLE
  5
1d9
  8
Layer_0
  62
7
  10
-260.34399
  20
901.2384
  30
0
  40
1
  0
CIRCLE
  5
1d9
  8
Layer_0
  62
7
  10
-260.34399
  20
884.26447
  30
0
  40
1
  0
CIRCLE
  5
1d9
  8
Layer_0
  62
7
  10
-289.34399
  20
855.23846
  30
0
  40
1
  0
CIRCLE
  5
1d9
  8
Layer_0
  62
7
  10
-206.36401
  20
883.24841
  30
0
  40
1
  0
CIRCLE
  5
1d9
  8
Layer_0
  62
7
  10
-224.34399
  20
885.78845
  30
0
  40
1
  0
CIRCLE
  5
1d9
  8
Layer_0
  62
7
  10
-289.34399
  20
872.23846
  30
0
  40
1
  0
CIRCLE
  5
1d9
  8
Layer_0
  62
7
  10
-206.34399
  20
900.2384
  30
0
  40
1
  0
CIRCLE
  5
1d9
  8
Layer_0
  62
7
  10
-224.34399
  20
902.7384
  30
0
  40
1
  0
CIRCLE
  5
1d9
  8
Layer_0
  62
7
  10
-289.34399
  20
889.23846
  30
0
  40
1
  0
CIRCLE
  5
1d9
  8
Layer_0
  62
7
  10
-242.34399
  20
891.12244
  30
0
  40
1
  0
POLYLINE
  5
1d9
  8
Layer_0
  62
7
  70
1
  66
1
  10
0
  20
0
  30
0
  0
VERTEX
  5
1d9
  8
Layer_0
  10
-225.04401
  20
897.93842
  0
VERTEX
  5
1da
  8
Layer_0
  10
-227.24402
  20
899.33844
  0
VERTEX
  5
1db
  8
Layer_0
  10
-228.06616
  20
903.02002
  42
0.41421871
  0
VERTEX
  5
1dc
  8
Layer_0
  10
-230.12561
  20
904.51633
  0
VERTEX
  5
1dd
  8
Layer_0
  10
-235.50037
  20
903.72614
  42
0.19893702
  0
VERTEX
  5
1de
  8
Layer_0
  10
-236.15302
  20
903.32623
  0
VERTEX
  5
1df
  8
Layer_0
  10
-237.44397
  20
901.43842
  0
VERTEX
  5
1e0
  8
Layer_0
  10
-239.64398
  20
900.13843
  0
VERTEX
  5
1e1
  8
Layer_0
  10
-239.64398
  20
897.7384
  0
VERTEX
  5
1e2
  8
Layer_0
  10
-237.44397
  20
896.43842
  0
VERTEX
  5
1e3
  8
Layer_0
  10
-233.94397
  20
896.43842
  0
VERTEX
  5
1e4
  8
Layer_0
  10
-231.84399
  20
894.33844
  0
VERTEX
  5
1e5
  8
Layer_0
  10
-227.24402
  20
894.33844
  0
VERTEX
  5
1e6
  8
Layer_0
  10
-225.04401
  20
895.53842
  0
SEQEND
  0
POLYLINE
  5
1e8
  8
Layer_0
  62
7
  70
1
  66
1
  10
0
  20
0
  30
0
  0
VERTEX
  5
1e8
  8
Layer_0
  10
-261.04401
  20
896.43842
  0
VERTEX
  5
1e9
  8
Layer_0
  10
-263.24402
  20
897.83844
  0
VERTEX
  5
1ea
  8
Layer_0
  10
-264.06616
  20
901.52002
  42
0.41421871
  0
VERTEX
  5
1eb
  8
Layer_0
  10
-266.12561
  20
903.01636
  0
VERTEX
  5
1ec
  8
Layer_0
  10
-271.50037
  20
902.22614
  42
0.19893702
  0
VERTEX
  5
1ed
  8
Layer_0
  10
-272.15302
  20
901.82623
  0
VERTEX
  5
1ee
  8
Layer_0
  10
-273.44397
  20
899.93842
  0
VERTEX
  5
1ef
  8
Layer_0
  10
-275.64398
  20
898.63843
  0
VERTEX
  5
1f0
  8
Layer_0
  10
-275.64398
  20
896.23843
  0
VERTEX
  5
1f1
  8
Layer_0
  10
-273.44397
  20
894.93842
  0
VERTEX
  5
1f2
  8
Layer_0
  10
-269.94397
  20
894.93842
  0
VERTEX
  5
1f3
  8
Layer_0
  10
-267.84399
  20
892.83844
  0
VERTEX
  5
1f4
  8
Layer_0
  10
-263.24402
  20
892.83844
  0
VERTEX
  5
1f5
  8
Layer_0
  10
-261.04401
  20
894.03845
  0
SEQEND
  0
POLYLINE
  5
1f7
  8
Layer_0
  62
7
  70
1
  66
1
  10
0
  20
0
  30
0
  0
VERTEX
  5
1f7
  8
Layer_0
  10
-277.53503
  20
871.65063
  0
VERTEX
  5
1f8
  8
Layer_0
  10
-276.24402
  20
873.53845
  0
VERTEX
  5
1f9
  8
Layer_0
  10
-274.04401
  20
874.83844
  0
VERTEX
  5
1fa
  8
Layer_0
  10
-274.04401
  20
877.23843
  0
VERTEX
  5
1fb
  8
Layer_0
  10
-276.24402
  20
878.53845
  0
VERTEX
  5
1fc
  8
Layer_0
  10
-279.74402
  20
878.53845
  0
VERTEX
  5
1fd
  8
Layer_0
  10
-281.84399
  20
880.63843
  0
VERTEX
  5
1fe
  8
Layer_0
  10
-286.44397
  20
880.63843
  0
VERTEX
  5
1ff
  8
Layer_0
  10
-288.64398
  20
879.43848
  0
VERTEX
  5
200
  8
Layer_0
  10
-288.64398
  20
877.03845
  0
VERTEX
  5
201
  8
Layer_0
  10
-286.44397
  20
875.63843
  0
VERTEX
  5
202
  8
Layer_0
  10
-285.62183
  20
871.95694
  42
0.41421286
  0
VERTEX
  5
203
  8
Layer_0
  10
-283.56238
  20
870.46063
  0
VERTEX
  5
204
  8
Layer_0
  10
-278.18762
  20
871.25073
  42
0.19885755
  0
SEQEND
  0
POLYLINE
  5
206
  8
Layer_0
  62
7
  70
1
  66
1
  10
0
  20
0
  30
0
  0
VERTEX
  5
206
  8
Layer_0
  10
-207.06403
  20
861.43042
  0
VERTEX
  5
207
  8
Layer_0
  10
-209.26404
  20
862.83044
  0
VERTEX
  5
208
  8
Layer_0
  10
-210.08618
  20
866.51202
  42
0.41420912
  0
VERTEX
  5
209
  8
Layer_0
  10
-212.14563
  20
868.0083
  0
VERTEX
  5
20a
  8
Layer_0
  10
-217.52039
  20
867.21814
  42
0.19892225
  0
VERTEX
  5
20b
  8
Layer_0
  10
-218.17297
  20
866.81824
  0
VERTEX
  5
20c
  8
Layer_0
  10
-219.46399
  20
864.93042
  0
VERTEX
  5
20d
  8
Layer_0
  10
-221.66406
  20
863.63043
  0
VERTEX
  5
20e
  8
Layer_0
  10
-221.66406
  20
861.23041
  0
VERTEX
  5
20f
  8
Layer_0
  10
-219.46399
  20
859.93042
  0
VERTEX
  5
210
  8
Layer_0
  10
-215.96399
  20
859.93042
  0
VERTEX
  5
211
  8
Layer_0
  10
-213.86401
  20
857.83044
  0
VERTEX
  5
212
  8
Layer_0
  10
-209.26404
  20
857.83044
  0
VERTEX
  5
213
  8
Layer_0
  10
-207.06403
  20
859.03043
  0
SEQEND
  0
POLYLINE
  5
215
  8
Layer_0
  62
7
  70
1
  66
1
  10
0
  20
0
  30
0
  0
VERTEX
  5
215
  8
Layer_0
  10
-288.64398
  20
894.03845
  0
VERTEX
  5
216
  8
Layer_0
  10
-286.44397
  20
892.63846
  0
VERTEX
  5
217
  8
Layer_0
  10
-285.62183
  20
888.95694
  42
0.41421286
  0
VERTEX
  5
218
  8
Layer_0
  10
-283.56238
  20
887.46063
  0
VERTEX
  5
219
  8
Layer_0
  10
-278.18762
  20
888.25073
  42
0.19891908
  0
VERTEX
  5
21a
  8
Layer_0
  10
-277.53503
  20
888.65076
  0
VERTEX
  5
21b
  8
Layer_0
  10
-276.24402
  20
890.53845
  0
VERTEX
  5
21c
  8
Layer_0
  10
-274.04401
  20
891.83844
  0
VERTEX
  5
21d
  8
Layer_0
  10
-274.04401
  20
894.23843
  0
VERTEX
  5
21e
  8
Layer_0
  10
-276.24402
  20
895.53845
  0
VERTEX
  5
21f
  8
Layer_0
  10
-279.74402
  20
895.53845
  0
VERTEX
  5
220
  8
Layer_0
  10
-281.84399
  20
897.63843
  0
VERTEX
  5
221
  8
Layer_0
  10
-286.44397
  20
897.63846
  0
VERTEX
  5
222
  8
Layer_0
  10
-288.64398
  20
896.43845
  0
SEQEND
  0
POLYLINE
  5
224
  8
Layer_0
  62
7
  70
1
  66
1
  10
0
  20
0
  30
0
  0
VERTEX
  5
224
  8
Layer_0
  10
-243.04401
  20
869.30444
  0
VERTEX
  5
225
  8
Layer_0
  10
-245.24402
  20
870.70444
  0
VERTEX
  5
226
  8
Layer_0
  10
-246.06616
  20
874.38605
  42
0.41421871
  0
VERTEX
  5
227
  8
Layer_0
  10
-248.12561
  20
875.88232
  0
VERTEX
  5
228
  8
Layer_0
  10
-253.50037
  20
875.09213
  42
0.19893702
  0
VERTEX
  5
229
  8
Layer_0
  10
-254.15302
  20
874.69223
  0
VERTEX
  5
22a
  8
Layer_0
  10
-255.44397
  20
872.80444
  0
VERTEX
  5
22b
  8
Layer_0
  10
-257.64398
  20
871.50446
  0
VERTEX
  5
22c
  8
Layer_0
  10
-257.64398
  20
869.10443
  0
VERTEX
  5
22d
  8
Layer_0
  10
-255.44397
  20
867.80444
  0
VERTEX
  5
22e
  8
Layer_0
  10
-251.94397
  20
867.80444
  0
VERTEX
  5
22f
  8
Layer_0
  10
-249.84399
  20
865.70444
  0
VERTEX
  5
230
  8
Layer_0
  10
-245.24402
  20
865.70444
  0
VERTEX
  5
231
  8
Layer_0
  10
-243.04401
  20
866.90442
  0
SEQEND
  0
POLYLINE
  5
233
  8
Layer_0
  62
7
  70
1
  66
1
  10
0
  20
0
  30
0
  0
VERTEX
  5
233
  8
Layer_0
  10
-201.95056
  20
885.53442
  0
VERTEX
  5
234
  8
Layer_0
  10
-201.95062
  20
857.59442
  42
0.41322023
  0
VERTEX
  5
235
  8
Layer_0
  10
-201.15063
  20
856.79712
  42
0.41319997
  0
VERTEX
  5
236
  8
Layer_0
  10
-200.35059
  20
857.59442
  0
VERTEX
  5
237
  8
Layer_0
  10
-200.35059
  20
885.53442
  42
0.41319997
  0
VERTEX
  5
238
  8
Layer_0
  10
-201.15063
  20
886.33173
  42
0.41322023
  0
SEQEND
  0
POLYLINE
  5
23a
  8
Layer_0
  62
7
  70
1
  66
1
  10
0
  20
0
  30
0
  0
VERTEX
  5
23a
  8
Layer_0
  10
-207.06396
  20
878.44843
  0
VERTEX
  5
23b
  8
Layer_0
  10
-209.26398
  20
879.84842
  0
VERTEX
  5
23c
  8
Layer_0
  10
-210.08618
  20
883.53003
  42
0.41420983
  0
VERTEX
  5
23d
  8
Layer_0
  10
-212.14563
  20
885.02631
  0
VERTEX
  5
23e
  8
Layer_0
  10
-217.52039
  20
884.23615
  42
0.19889806
  0
VERTEX
  5
23f
  8
Layer_0
  10
-218.17297
  20
883.83624
  0
VERTEX
  5
240
  8
Layer_0
  10
-219.46399
  20
881.94843
  0
VERTEX
  5
241
  8
Layer_0
  10
-221.664
  20
880.64844
  0
VERTEX
  5
242
  8
Layer_0
  10
-221.664
  20
878.24841
  0
VERTEX
  5
243
  8
Layer_0
  10
-219.46399
  20
876.94843
  0
VERTEX
  5
244
  8
Layer_0
  10
-215.96399
  20
876.94843
  0
VERTEX
  5
245
  8
Layer_0
  10
-213.86401
  20
874.84842
  0
VERTEX
  5
246
  8
Layer_0
  10
-209.26398
  20
874.84842
  0
VERTEX
  5
247
  8
Layer_0
  10
-207.06396
  20
876.0484
  0
SEQEND
  0
POLYLINE
  5
249
  8
Layer_0
  62
7
  70
1
  66
1
  10
0
  20
0
  30
0
  0
VERTEX
  5
249
  8
Layer_0
  10
-261.04407
  20
862.44644
  0
VERTEX
  5
24a
  8
Layer_0
  10
-263.24402
  20
863.84644
  0
VERTEX
  5
24b
  8
Layer_0
  10
-264.06616
  20
867.52805
  42
0.414218
  0
VERTEX
  5
24c
  8
Layer_0
  10
-266.12561
  20
869.02435
  0
VERTEX
  5
24d
  8
Layer_0
  10
-271.50037
  20
868.23413
  42
0.19890815
  0
VERTEX
  5
24e
  8
Layer_0
  10
-272.15302
  20
867.83423
  0
VERTEX
  5
24f
  8
Layer_0
  10
-273.44397
  20
865.94644
  0
VERTEX
  5
250
  8
Layer_0
  10
-275.64398
  20
864.64642
  0
VERTEX
  5
251
  8
Layer_0
  10
-275.64404
  20
862.24643
  0
VERTEX
  5
252
  8
Layer_0
  10
-273.44403
  20
860.94644
  0
VERTEX
  5
253
  8
Layer_0
  10
-269.94403
  20
860.94644
  0
VERTEX
  5
254
  8
Layer_0
  10
-267.84399
  20
858.84644
  0
VERTEX
  5
255
  8
Layer_0
  10
-263.24402
  20
858.84644
  0
VERTEX
  5
256
  8
Layer_0
  10
-261.04407
  20
860.04645
  0
SEQEND
  0
POLYLINE
  5
258
  8
Layer_0
  62
7
  70
1
  66
1
  10
0
  20
0
  30
0
  0
VERTEX
  5
258
  8
Layer_0
  10
-277.53503
  20
854.65063
  0
VERTEX
  5
259
  8
Layer_0
  10
-276.24402
  20
856.53845
  0
VERTEX
  5
25a
  8
Layer_0
  10
-274.04407
  20
857.83844
  0
VERTEX
  5
25b
  8
Layer_0
  10
-274.04407
  20
860.23843
  0
VERTEX
  5
25c
  8
Layer_0
  10
-276.24402
  20
861.53845
  0
VERTEX
  5
25d
  8
Layer_0
  10
-279.74402
  20
861.53845
  0
VERTEX
  5
25e
  8
Layer_0
  10
-281.84399
  20
863.63843
  0
VERTEX
  5
25f
  8
Layer_0
  10
-286.44403
  20
863.63843
  0
VERTEX
  5
260
  8
Layer_0
  10
-288.64404
  20
862.43848
  0
VERTEX
  5
261
  8
Layer_0
  10
-288.64404
  20
860.03845
  0
VERTEX
  5
262
  8
Layer_0
  10
-286.44403
  20
858.63843
  0
VERTEX
  5
263
  8
Layer_0
  10
-285.62183
  20
854.95694
  42
0.41421286
  0
VERTEX
  5
264
  8
Layer_0
  10
-283.56238
  20
853.46063
  0
VERTEX
  5
265
  8
Layer_0
  10
-278.18762
  20
854.25073
  42
0.19885755
  0
SEQEND
  0
POLYLINE
  5
267
  8
Layer_0
  62
7
  70
1
  66
1
  10
0
  20
0
  30
0
  0
VERTEX
  5
267
  8
Layer_0
  10
-243.04401
  20
886.32245
  0
VERTEX
  5
268
  8
Layer_0
  10
-245.24402
  20
887.72244
  0
VERTEX
  5
269
  8
Layer_0
  10
-246.06616
  20
891.40405
  42
0.41421871
  0
VERTEX
  5
26a
  8
Layer_0
  10
-248.12561
  20
892.90033
  0
VERTEX
  5
26b
  8
Layer_0
  10
-253.50037
  20
892.11014
  42
0.19892225
  0
VERTEX
  5
26c
  8
Layer_0
  10
-254.15302
  20
891.71024
  0
VERTEX
  5
26d
  8
Layer_0
  10
-255.44397
  20
889.82245
  0
VERTEX
  5
26e
  8
Layer_0
  10
-257.64398
  20
888.52243
  0
VERTEX
  5
26f
  8
Layer_0
  10
-257.64398
  20
886.12244
  0
VERTEX
  5
270
  8
Layer_0
  10
-255.44397
  20
884.82245
  0
VERTEX
  5
271
  8
Layer_0
  10
-251.94397
  20
884.82245
  0
VERTEX
  5
272
  8
Layer_0
  10
-249.84399
  20
882.72244
  0
VERTEX
  5
273
  8
Layer_0
  10
-245.24402
  20
882.72244
  0
VERTEX
  5
274
  8
Layer_0
  10
-243.04401
  20
883.92242
  0
SEQEND
  0
POLYLINE
  5
276
  8
Layer_0
  62
7
  70
1
  66
1
  10
0
  20
0
  30
0
  0
VERTEX
  5
276
  8
Layer_0
  10
-225.04407
  20
863.9704
  0
VERTEX
  5
277
  8
Layer_0
  10
-227.24402
  20
865.37042
  0
VERTEX
  5
278
  8
Layer_0
  10
-228.06616
  20
869.052
  42
0.41421427
  0
VERTEX
  5
279
  8
Layer_0
  10
-230.12561
  20
870.54834
  0
VERTEX
  5
27a
  8
Layer_0
  10
-235.50037
  20
869.75812
  42
0.19891346
  0
VERTEX
  5
27b
  8
Layer_0
  10
-236.15302
  20
869.35822
  0
VERTEX
  5
27c
  8
Layer_0
  10
-237.44397
  20
867.4704
  0
VERTEX
  5
27d
  8
Layer_0
  10
-239.64398
  20
866.17041
  0
VERTEX
  5
27e
  8
Layer_0
  10
-239.64404
  20
863.77042
  0
VERTEX
  5
27f
  8
Layer_0
  10
-237.44403
  20
862.4704
  0
VERTEX
  5
280
  8
Layer_0
  10
-233.94403
  20
862.4704
  0
VERTEX
  5
281
  8
Layer_0
  10
-231.84399
  20
860.37042
  0
VERTEX
  5
282
  8
Layer_0
  10
-227.24402
  20
860.37042
  0
VERTEX
  5
283
  8
Layer_0
  10
-225.04407
  20
861.57043
  0
SEQEND
  0
POLYLINE
  5
285
  8
Layer_0
  62
7
  70
1
  66
1
  10
0
  20
0
  30
0
  0
VERTEX
  5
285
  8
Layer_0
  10
-261.04401
  20
879.46442
  0
VERTEX
  5
286
  8
Layer_0
  10
-263.24402
  20
880.86444
  0
VERTEX
  5
287
  8
Layer_0
  10
-264.06616
  20
884.54602
  42
0.41421871
  0
VERTEX
  5
288
  8
Layer_0
  10
-266.12561
  20
886.04233
  0
VERTEX
  5
289
  8
Layer_0
  10
-271.50037
  20
885.25214
  42
0.19892225
  0
VERTEX
  5
28a
  8
Layer_0
  10
-272.15302
  20
884.85223
  0
VERTEX
  5
28b
  8
Layer_0
  10
-273.44397
  20
882.96442
  0
VERTEX
  5
28c
  8
Layer_0
  10
-275.64398
  20
881.66443
  0
VERTEX
  5
28d
  8
Layer_0
  10
-275.64398
  20
879.26443
  0
VERTEX
  5
28e
  8
Layer_0
  10
-273.44397
  20
877.96442
  0
VERTEX
  5
28f
  8
Layer_0
  10
-269.94397
  20
877.96442
  0
VERTEX
  5
290
  8
Layer_0
  10
-267.84399
  20
875.86444
  0
VERTEX
  5
291
  8
Layer_0
  10
-263.24402
  20
875.86444
  0
VERTEX
  5
292
  8
Layer_0
  10
-261.04401
  20
877.06445
  0
SEQEND
  0
POLYLINE
  5
294
  8
Layer_0
  62
7
  70
1
  66
1
  10
0
  20
0
  30
0
  0
VERTEX
  5
294
  8
Layer_0
  10
-186.71057
  20
885.53442
  0
VERTEX
  5
295
  8
Layer_0
  10
-186.71063
  20
857.59442
  42
0.41421356
  0
VERTEX
  5
296
  8
Layer_0
  10
-185.91064
  20
856.7944
  42
0.41421356
  0
VERTEX
  5
297
  8
Layer_0
  10
-185.1106
  20
857.59442
  0
VERTEX
  5
298
  8
Layer_0
  10
-185.1106
  20
885.53442
  42
0.41421356
  0
VERTEX
  5
299
  8
Layer_0
  10
-185.91058
  20
886.33441
  42
0.41421356
  0
SEQEND
  0
POLYLINE
  5
29b
  8
Layer_0
  62
7
  70
1
  66
1
  10
0
  20
0
  30
0
  0
VERTEX
  5
29b
  8
Layer_0
  10
-199.55713
  20
833.98151
  0
VERTEX
  5
29c
  8
Layer_0
  10
-200.76233
  20
836.29395
  0
VERTEX
  5
29d
  8
Layer_0
  10
-199.63367
  20
839.89343
  42
0.41420195
  0
VERTEX
  5
29e
  8
Layer_0
  10
-200.66895
  20
842.21893
  0
VERTEX
  5
29f
  8
Layer_0
  10
-205.71887
  20
844.22205
  42
0.19893798
  0
VERTEX
  5
2a0
  8
Layer_0
  10
-206.48389
  20
844.20203
  0
VERTEX
  5
2a1
  8
Layer_0
  10
-208.54578
  20
843.21265
  0
VERTEX
  5
2a2
  8
Layer_0
  10
-211.10107
  20
843.18683
  0
VERTEX
  5
2a3
  8
Layer_0
  10
-212.30103
  20
841.10834
  0
VERTEX
  5
2a4
  8
Layer_0
  10
-211.04578
  20
838.88251
  0
VERTEX
  5
2a5
  8
Layer_0
  10
-208.01477
  20
837.13251
  0
VERTEX
  5
2a6
  8
Layer_0
  10
-207.24609
  20
834.26382
  0
VERTEX
  5
2a7
  8
Layer_0
  10
-203.26233
  20
831.96381
  0
VERTEX
  5
2a8
  8
Layer_0
  10
-200.75708
  20
831.90314
  0
SEQEND
  0
POLYLINE
  5
2aa
  8
Layer_0
  62
7
  70
1
  66
1
  10
0
  20
0
  30
0
  0
VERTEX
  5
2aa
  8
Layer_0
  10
-216.47998
  20
842.65973
  0
VERTEX
  5
2ab
  8
Layer_0
  10
-218.24268
  20
844.58142
  0
VERTEX
  5
2ac
  8
Layer_0
  10
-218.08392
  20
848.35034
  42
0.41419615
  0
VERTEX
  5
2ad
  8
Layer_0
  10
-219.68579
  20
850.32861
  0
VERTEX
  5
2ae
  8
Layer_0
  10
-225.08215
  20
850.95654
  42
0.19888171
  0
VERTEX
  5
2af
  8
Layer_0
  10
-225.81592
  20
850.73914
  0
VERTEX
  5
2b0
  8
Layer_0
  10
-227.55151
  20
849.24982
  0
VERTEX
  5
2b1
  8
Layer_0
  10
-230.01306
  20
848.56354
  0
VERTEX
  5
2b2
  8
Layer_0
  10
-230.63428
  20
846.24524
  0
VERTEX
  5
2b3
  8
Layer_0
  10
-228.84558
  20
844.4201
  0
VERTEX
  5
2b4
  8
Layer_0
  10
-225.46497
  20
843.51434
  0
VERTEX
  5
2b5
  8
Layer_0
  10
-223.97998
  20
840.94232
  0
VERTEX
  5
2b6
  8
Layer_0
  10
-219.53674
  20
839.75171
  0
VERTEX
  5
2b7
  8
Layer_0
  10
-217.10107
  20
840.34143
  0
SEQEND
  0
POLYLINE
  5
2b9
  8
Layer_0
  62
7
  70
1
  66
1
  10
0
  20
0
  30
0
  0
VERTEX
  5
2b9
  8
Layer_0
  10
-207.04401
  20
895.43842
  0
VERTEX
  5
2ba
  8
Layer_0
  10
-209.24402
  20
896.83844
  0
VERTEX
  5
2bb
  8
Layer_0
  10
-210.06616
  20
900.52002
  42
0.41421871
  0
VERTEX
  5
2bc
  8
Layer_0
  10
-212.12561
  20
902.01633
  0
VERTEX
  5
2bd
  8
Layer_0
  10
-217.50037
  20
901.22614
  42
0.19893702
  0
VERTEX
  5
2be
  8
Layer_0
  10
-218.15302
  20
900.82623
  0
VERTEX
  5
2bf
  8
Layer_0
  10
-219.44397
  20
898.93842
  0
VERTEX
  5
2c0
  8
Layer_0
  10
-221.64398
  20
897.63843
  0
VERTEX
  5
2c1
  8
Layer_0
  10
-221.64398
  20
895.2384
  0
VERTEX
  5
2c2
  8
Layer_0
  10
-219.44397
  20
893.93842
  0
VERTEX
  5
2c3
  8
Layer_0
  10
-215.94397
  20
893.93842
  0
VERTEX
  5
2c4
  8
Layer_0
  10
-213.84399
  20
891.83844
  0
VERTEX
  5
2c5
  8
Layer_0
  10
-209.24402
  20
891.83844
  0
VERTEX
  5
2c6
  8
Layer_0
  10
-207.04401
  20
893.03842
  0
SEQEND
  0
POLYLINE
  5
2c8
  8
Layer_0
  62
7
  70
1
  66
1
  10
0
  20
0
  30
0
  0
VERTEX
  5
2c8
  8
Layer_0
  10
-243.04401
  20
903.43842
  0
VERTEX
  5
2c9
  8
Layer_0
  10
-245.24402
  20
904.83844
  0
VERTEX
  5
2ca
  8
Layer_0
  10
-246.06616
  20
908.52002
  42
0.41421871
  0
VERTEX
  5
2cb
  8
Layer_0
  10
-248.12561
  20
910.01636
  0
VERTEX
  5
2cc
  8
Layer_0
  10
-253.50037
  20
909.22614
  42
0.19892225
  0
VERTEX
  5
2cd
  8
Layer_0
  10
-254.15302
  20
908.82623
  0
VERTEX
  5
2ce
  8
Layer_0
  10
-255.44397
  20
906.93842
  0
VERTEX
  5
2cf
  8
Layer_0
  10
-257.64398
  20
905.63843
  0
VERTEX
  5
2d0
  8
Layer_0
  10
-257.64398
  20
903.23843
  0
VERTEX
  5
2d1
  8
Layer_0
  10
-255.44397
  20
901.93842
  0
VERTEX
  5
2d2
  8
Layer_0
  10
-251.94397
  20
901.93842
  0
VERTEX
  5
2d3
  8
Layer_0
  10
-249.84399
  20
899.83844
  0
VERTEX
  5
2d4
  8
Layer_0
  10
-245.24402
  20
899.83844
  0
VERTEX
  5
2d5
  8
Layer_0
  10
-243.04401
  20
901.03845
  0
SEQEND
  0
POLYLINE
  5
2d7
  8
Layer_0
  62
7
  70
1
  66
1
  10
0
  20
0
  30
0
  0
VERTEX
  5
2d7
  8
Layer_0
  10
-225.04401
  20
880.9884
  0
VERTEX
  5
2d8
  8
Layer_0
  10
-227.24402
  20
882.38843
  0
VERTEX
  5
2d9
  8
Layer_0
  10
-228.06616
  20
886.07001
  42
0.41421356
  0
VERTEX
  5
2da
  8
Layer_0
  10
-230.12561
  20
887.56635
  0
VERTEX
  5
2db
  8
Layer_0
  10
-235.50037
  20
886.77612
  42
0.19889338
  0
VERTEX
  5
2dc
  8
Layer_0
  10
-236.15302
  20
886.37622
  0
VERTEX
  5
2dd
  8
Layer_0
  10
-237.44397
  20
884.4884
  0
VERTEX
  5
2de
  8
Layer_0
  10
-239.64398
  20
883.18842
  0
VERTEX
  5
2df
  8
Layer_0
  10
-239.64398
  20
880.78842
  0
VERTEX
  5
2e0
  8
Layer_0
  10
-237.44397
  20
879.4884
  0
VERTEX
  5
2e1
  8
Layer_0
  10
-233.94397
  20
879.4884
  0
VERTEX
  5
2e2
  8
Layer_0
  10
-231.84399
  20
877.38843
  0
VERTEX
  5
2e3
  8
Layer_0
  10
-227.24402
  20
877.38843
  0
VERTEX
  5
2e4
  8
Layer_0
  10
-225.04401
  20
878.58844
  0
SEQEND
  0
CIRCLE
  5
2e6
  8
Layer_0
  62
7
  10
-187.73401
  20
887.82043
  30
0
  40
0.69999999
  0
CIRCLE
  5
2e6
  8
Layer_0
  62
7
  10
-199.41797
  20
887.82043
  30
0
  40
0.69999999
  0
CIRCLE
  5
2e6
  8
Layer_0
  62
7
  10
-198.526
  20
854.86841
  30
0
  40
1
  0
CIRCLE
  5
2e6
  8
Layer_0
  62
7
  10
-197.42603
  20
850.26843
  30
0
  40
1
  0
CIRCLE
  5
2e6
  8
Layer_0
  62
7
  10
-193.42603
  20
850.26843
  30
0
  40
1
  0
CIRCLE
  5
2e6
  8
Layer_0
  62
7
  10
-190.42603
  20
850.26843
  30
0
  40
1
  0
POLYLINE
  5
2e6
  8
Layer_0
  62
7
  70
1
  66
1
  10
0
  20
0
  30
0
  0
VERTEX
  5
2e6
  8
Layer_0
  10
-196.22058
  20
884.47504
  0
VERTEX
  5
2e7
  8
Layer_0
  10
-191.02063
  20
884.47504
  0
VERTEX
  5
2e8
  8
Layer_0
  10
-189.42078
  20
885.47504
  0
VERTEX
  5
2e9
  8
Layer_0
  10
-189.42078
  20
889.52557
  0
VERTEX
  5
2ea
  8
Layer_0
  10
-197.82068
  20
889.52557
  0
VERTEX
  5
2eb
  8
Layer_0
  10
-197.82068
  20
885.47504
  0
SEQEND
  0
ENDSEC
  0
EOF
