<?xml version="1.0" encoding="UTF-8" standalone="no"?>
<svg xmlns="http://www.w3.org/2000/svg" xmlns:xlink="http://www.w3.org/1999/xlink" width="220.468mm" height="88.863mm" viewBox="-993.233826 -418.117920 220.467834 88.863342">
    <path transform="matrix(-1.000001,-0,-0,1.000001,-601.970093,-557.059326)" style="stroke:#000000;stroke-width:0.050000mm;fill:none" d="M280.017578,169.880371L280.029541,199.972412C280.009949,202.687027,279.368164,205.360992,278.153564,207.788818L267.64624,226.38208C266.825623,227.728134,265.095612,228.19725,263.70752,227.449951L262.280029,226.613281C255.993546,222.993927,249.270859,220.191605,242.274902,218.27417C219.733765,213.348114,196.730042,210.848419,173.656738,210.817871L173.560547,210.811279C172.070984,210.68544,170.904892,209.475861,170.833984,207.982666L170.849609,196.161621L170.849609,167.206787L170.795654,158.723877C170.804794,158.500473,170.861526,158.28157,170.961914,158.081787C171.30014,157.230164,171.862915,156.486191,172.590332,155.928955C172.982376,155.59111,173.376892,155.257477,173.775146,154.927002C186.273361,144.597702,201.980667,138.947006,218.194824,138.947021L222.395996,138.941406L222.488525,138.945557C235.442459,140.016739,248.191528,142.836929,260.388672,147.329346C260.963989,147.63208,261.325378,148.228058,261.327637,148.878174L261.327637,167.161621C261.335602,167.430817,261.452362,167.684952,261.650269,167.867584C261.848175,168.050232,262.11087,168.146225,262.379883,168.133789L278.267334,168.130859C279.233063,168.132065,280.016174,168.914658,280.017578,169.880371z"/>
    <circle transform="matrix(1.000001,0,-0,1.000001,-859.593933,-366.230377)" style="stroke:#000000;stroke-width:0.050000mm;fill:none" r="1" cx="0" cy="0"/>
    <circle transform="matrix(1.000001,0,-0,1.000001,-830.579895,-385.788391)" style="stroke:#000000;stroke-width:0.050000mm;fill:none" r="1" cx="0" cy="0"/>
    <circle transform="matrix(1.000001,0,-0,1.000001,-812.591858,-374.10437)" style="stroke:#000000;stroke-width:0.050000mm;fill:none" r="1" cx="0" cy="0"/>
    <circle transform="matrix(1.000001,0,-0,1.000001,-794.565857,-367.246368)" style="stroke:#000000;stroke-width:0.050000mm;fill:none" r="1" cx="0" cy="0"/>
    <circle transform="matrix(1.000001,0,-0,1.000001,-859.593933,-400.238403)" style="stroke:#000000;stroke-width:0.050000mm;fill:none" r="1" cx="0" cy="0"/>
    <circle transform="matrix(1.000001,0,-0,1.000001,-830.579895,-402.738403)" style="stroke:#000000;stroke-width:0.050000mm;fill:none" r="1" cx="0" cy="0"/>
    <circle transform="matrix(1.000001,0,-0,1.000001,-776.547852,-389.238373)" style="stroke:#000000;stroke-width:0.050000mm;fill:none" r="1" cx="0" cy="0"/>
    <circle transform="matrix(1.000001,0,-0,1.000001,-830.579895,-368.770386)" style="stroke:#000000;stroke-width:0.050000mm;fill:none" r="1" cx="0" cy="0"/>
    <circle transform="matrix(1.000001,0,-0,1.000001,-812.591858,-408.238403)" style="stroke:#000000;stroke-width:0.050000mm;fill:none" r="1" cx="0" cy="0"/>
    <circle transform="matrix(1.000001,0,-0,1.000001,-776.547852,-355.238342)" style="stroke:#000000;stroke-width:0.050000mm;fill:none" r="1" cx="0" cy="0"/>
    <circle transform="matrix(1.000001,0,-0,1.000001,-859.593933,-383.248383)" style="stroke:#000000;stroke-width:0.050000mm;fill:none" r="1" cx="0" cy="0"/>
    <circle transform="matrix(1.000001,0,-0,1.000001,-794.565857,-401.238403)" style="stroke:#000000;stroke-width:0.050000mm;fill:none" r="1" cx="0" cy="0"/>
    <circle transform="matrix(1.000001,0,-0,1.000001,-794.565857,-384.264374)" style="stroke:#000000;stroke-width:0.050000mm;fill:none" r="1" cx="0" cy="0"/>
    <circle transform="matrix(1.000001,0,-0,1.000001,-851.314514,-347.114868)" style="stroke:#000000;stroke-width:0.050000mm;fill:none" r="1" cx="0" cy="0"/>
    <circle transform="matrix(1.000001,0,-0,1.000001,-812.591858,-391.122375)" style="stroke:#000000;stroke-width:0.050000mm;fill:none" r="1" cx="0" cy="0"/>
    <circle transform="matrix(1.000001,0,-0,1.000001,-869.325073,-337.78833)" style="stroke:#000000;stroke-width:0.050000mm;fill:none" r="1" cx="0" cy="0"/>
    <circle transform="matrix(1.000001,0,-0,1.000001,-776.547852,-372.238373)" style="stroke:#000000;stroke-width:0.050000mm;fill:none" r="1" cx="0" cy="0"/>
    <path transform="matrix(-1.000001,-0,-0,1.000001,-307.008026,-582.688171)" style="stroke:#000000;stroke-width:0.050000mm;fill:none" d="M488.257294,220.241638L490.457275,218.841644L491.27948,215.160034C491.434998,214.178162,492.356995,213.50824,493.338867,213.663742L498.713684,214.453949C498.975647,214.495422,499.210388,214.639282,499.366272,214.853851L500.657288,216.741638L502.8573,218.041641L502.8573,220.44165L500.657288,221.741638L497.157288,221.741638L495.057281,223.841644L490.457275,223.841644L488.257294,222.641647L488.257294,220.241638z"/>
    <path transform="matrix(-1.000001,-0,-0,1.000001,-307.008026,-582.688171)" style="stroke:#000000;stroke-width:0.050000mm;fill:none" d="M470.239288,232.249634L472.43927,230.84964L473.261475,227.168045C473.416992,226.186157,474.338989,225.516235,475.320892,225.671738L480.695679,226.461945C480.957642,226.503418,481.192383,226.647278,481.348297,226.861847L482.639282,228.749634L484.839294,230.049652L484.839294,232.449646L482.639282,233.749634L479.139282,233.749634L477.039276,235.84964L472.43927,235.84964L470.239288,234.649643L470.239288,232.249634z"/>
    <path transform="matrix(-1.000001,-0,-0,1.000001,-307.008026,-582.688171)" style="stroke:#000000;stroke-width:0.050000mm;fill:none" d="M544.87207,230.755554L542.384705,231.538345L540.637695,234.881744C540.233337,235.789886,539.169312,236.198303,538.261169,235.793945L533.273987,233.639648C533.031677,233.531769,532.842163,233.332062,532.74707,233.084442L531.988708,230.926849L530.200195,229.101746L530.821289,226.783539L533.282776,226.097244L536.663574,227.003143L539.235474,225.518143L543.678772,226.70874L545.493164,228.437241L544.87207,230.755554z"/>
    <path transform="matrix(-1.000001,-0,-0,1.000001,-307.008026,-582.688171)" style="stroke:#000000;stroke-width:0.050000mm;fill:none" d="M506.283295,179.249649L508.483276,177.84964L509.305481,174.168045C509.460999,173.186157,510.382996,172.516251,511.364868,172.671738L516.739685,173.461945C517.001648,173.503433,517.236389,173.647278,517.392273,173.861847L518.683289,175.749649L520.883301,177.049637L520.883301,179.449646L518.683289,180.749649L515.183289,180.749649L513.083252,182.84964L508.483276,182.84964L506.283295,181.649643L506.283295,179.249649z"/>
    <path transform="matrix(-1.000001,-0,-0,1.000001,-307.008026,-582.688171)" style="stroke:#000000;stroke-width:0.050000mm;fill:none" d="M524.271301,201.699646L526.471313,200.299652L527.293457,196.618042C527.448975,195.636169,528.371033,194.966248,529.352905,195.121735L534.727661,195.911942C534.989624,195.95343,535.224365,196.097275,535.38031,196.311844L536.671265,198.199646L538.871277,199.499634L538.871277,201.899643L536.671265,203.199646L533.171265,203.199646L531.071289,205.299652L526.471313,205.299652L524.271301,204.09964L524.271301,201.699646z"/>
    <path transform="matrix(-1.000001,-0,-0,1.000001,-307.008026,-582.688171)" style="stroke:#000000;stroke-width:0.050000mm;fill:none" d="M488.257294,186.249649L490.457275,184.84964L491.27948,181.168045C491.434998,180.186157,492.356995,179.516251,493.338867,179.671738L498.713684,180.461945C498.975647,180.503418,499.210388,180.647278,499.366272,180.861847L500.657288,182.749649L502.8573,184.049637L502.8573,186.449646L500.657288,187.749649L497.157288,187.749649L495.057281,189.84964L490.457275,189.84964L488.257294,188.649643L488.257294,186.249649z"/>
    <path transform="matrix(-1.000001,-0,-0,1.000001,-307.008026,-582.688171)" style="stroke:#000000;stroke-width:0.050000mm;fill:none" d="M470.239288,215.249634L472.43927,213.84964L473.261475,210.168045C473.416992,209.186157,474.338989,208.516235,475.320892,208.671738L480.695679,209.461945C480.957642,209.503433,481.192383,209.647278,481.348297,209.861847L482.639282,211.749634L484.839294,213.049652L484.839294,215.449646L482.639282,216.749634L479.139282,216.749634L477.039276,218.84964L472.43927,218.84964L470.239288,217.649643L470.239288,215.249634z"/>
    <path transform="matrix(-1.000001,-0,-0,1.000001,-307.008026,-582.688171)" style="stroke:#000000;stroke-width:0.050000mm;fill:none" d="M506.283295,213.383636L508.483276,211.983643L509.305481,208.302048C509.460999,207.32016,510.382996,206.650238,511.364868,206.80574L516.739685,207.595947C517.001648,207.637421,517.236389,207.781281,517.392273,207.99585L518.683289,209.883636L520.883301,211.18364L520.883301,213.583649L518.683289,214.883636L515.183289,214.883636L513.083252,216.983643L508.483276,216.983643L506.283295,215.783646L506.283295,213.383636z"/>
    <path transform="matrix(-1.000001,-0,-0,1.000001,-307.008026,-582.688171)" style="stroke:#000000;stroke-width:0.050000mm;fill:none" d="M558.613892,197.153641L558.613892,225.093643C558.613892,225.535477,558.255737,225.893646,557.813904,225.893646C557.37207,225.893646,557.013916,225.535477,557.013916,225.093643L557.013916,197.153641C557.013916,196.711823,557.37207,196.353638,557.813904,196.353638C558.255737,196.353638,558.613892,196.711823,558.613892,197.153641z"/>
    <path transform="matrix(-1.000001,-0,-0,1.000001,-307.008026,-582.688171)" style="stroke:#000000;stroke-width:0.050000mm;fill:none" d="M564.110168,240.392639L561.505005,240.505142L558.952209,243.282349C558.651733,243.653351,558.216248,243.889832,557.741455,243.939743C557.266663,243.989655,556.791504,243.848892,556.420471,243.548447L552.160767,240.176743C551.954651,240.009842,551.823303,239.767899,551.795593,239.50415L551.62146,237.22374L550.366272,234.99794L551.566284,232.919434L554.12146,232.893646L557.152588,234.643646L560.021179,233.875046L564.005005,236.175049L565.310181,238.31424L564.110168,240.392639z"/>
    <path transform="matrix(-1.000001,-0,-0,1.000001,-307.008026,-582.688171)" style="stroke:#000000;stroke-width:0.050000mm;fill:none" d="M524.271301,184.749649L526.471313,183.34964L527.293457,179.668045C527.448975,178.686157,528.371033,178.016251,529.352905,178.171738L534.727661,178.961945C534.989624,179.003433,535.224365,179.147278,535.38031,179.361847L536.671265,181.249649L538.871277,182.549637L538.871277,184.949646L536.671265,186.249649L533.171265,186.249649L531.071289,188.34964L526.471313,188.34964L524.271301,187.149643L524.271301,184.749649z"/>
    <path transform="matrix(-1.000001,-0,-0,1.000001,-307.008026,-582.688171)" style="stroke:#000000;stroke-width:0.050000mm;fill:none" d="M540.776306,183.037445L539.485291,181.149643L537.285278,179.84964L537.285278,177.449646L539.485291,176.149643L542.985291,176.149643L545.085266,174.049637L549.685303,174.049637L551.885315,175.249649L551.885315,177.649643L549.685303,179.049637L548.863098,182.73114C548.707581,183.713028,547.785583,184.382935,546.803711,184.227448L541.428894,183.437347C541.166931,183.395828,540.93219,183.251953,540.776306,183.037445z"/>
    <path transform="matrix(-1.000001,-0,-0,1.000001,-307.008026,-582.688171)" style="stroke:#000000;stroke-width:0.050000mm;fill:none" d="M573.853882,197.153641L573.853882,225.093643C573.853882,225.535477,573.495728,225.893646,573.053894,225.893646C572.612061,225.893646,572.253906,225.535477,572.253906,225.093643L572.253906,197.153641C572.253906,196.711823,572.612061,196.353638,573.053894,196.353638C573.495728,196.353638,573.853882,196.711823,573.853882,197.153641z"/>
    <path transform="matrix(-1.000001,-0,-0,1.000001,-307.008026,-582.688171)" style="stroke:#000000;stroke-width:0.050000mm;fill:none" d="M470.239288,198.249634L472.43927,196.84964L473.261475,193.168045C473.416992,192.186157,474.338989,191.516235,475.320892,191.671738L480.695679,192.461945C480.957642,192.503418,481.192383,192.647278,481.348297,192.861847L482.639282,194.749634L484.839294,196.049652L484.839294,198.449646L482.639282,199.749634L479.139282,199.749634L477.039276,201.84964L472.43927,201.84964L470.239288,200.649643L470.239288,198.249634z"/>
    <path transform="matrix(-1.000001,-0,-0,1.000001,-307.008026,-582.688171)" style="stroke:#000000;stroke-width:0.050000mm;fill:none" d="M524.271301,218.717651L526.471313,217.317642L527.293457,213.636047C527.448975,212.65416,528.371033,211.984253,529.352905,212.13974L534.727661,212.929947C534.989624,212.971436,535.224365,213.11528,535.38031,213.329834L536.671265,215.217651L538.871277,216.517639L538.871277,218.917648L536.671265,220.217651L533.171265,220.217651L531.071289,222.317642L526.471313,222.317642L524.271301,221.117645L524.271301,218.717651z"/>
    <path transform="matrix(-1.000001,-0,-0,1.000001,-307.008026,-582.688171)" style="stroke:#000000;stroke-width:0.050000mm;fill:none" d="M551.885315,194.639648L549.685303,196.039642L548.863098,199.721146C548.707581,200.703018,547.785583,201.37294,546.803711,201.217438L541.428894,200.427338C541.166931,200.385834,540.93219,200.241943,540.776306,200.027344L539.485291,198.139648L537.285278,196.839645L537.285278,194.439636L539.485291,193.139648L542.985291,193.139648L545.085266,191.039642L549.685303,191.039642L551.885315,192.239639L551.885315,194.639648z"/>
    <path transform="matrix(-1.000001,-0,-0,1.000001,-307.008026,-582.688171)" style="stroke:#000000;stroke-width:0.050000mm;fill:none" d="M488.257294,203.223648L490.457275,201.823639L491.27948,198.142044C491.434998,197.160156,492.356995,196.49025,493.338867,196.645752L498.713684,197.435944C498.975647,197.477432,499.210388,197.621277,499.366272,197.835846L500.657288,199.723648L502.8573,201.023651L502.8573,203.423645L500.657288,204.723648L497.157288,204.723648L495.057281,206.823639L490.457275,206.823639L488.257294,205.623642L488.257294,203.223648z"/>
    <path transform="matrix(-1.000001,-0,-0,1.000001,-307.008026,-582.688171)" style="stroke:#000000;stroke-width:0.050000mm;fill:none" d="M506.283295,196.365646L508.483276,194.965637L509.305481,191.284042C509.460999,190.302155,510.382996,189.632248,511.364868,189.78775L516.739685,190.577942C517.001648,190.619431,517.236389,190.763275,517.392273,190.977844L518.683289,192.865646L520.883301,194.165649L520.883301,196.565643L518.683289,197.865646L515.183289,197.865646L513.083252,199.965637L508.483276,199.965637L506.283295,198.76564L506.283295,196.365646z"/>
    <path transform="matrix(-1.000001,-0,-0,1.000001,-307.008026,-582.688171)" style="stroke:#000000;stroke-width:0.050000mm;fill:none" d="M551.885315,211.657639L549.685303,213.057648L548.863098,216.739136C548.707581,217.721024,547.785583,218.390945,546.803711,218.235443L541.428894,217.445343C541.166931,217.403839,540.93219,217.259949,540.776306,217.045349L539.485291,215.157639L537.285278,213.857635L537.285278,211.457642L539.485291,210.157639L542.985291,210.157639L545.085266,208.057648L549.685303,208.057648L551.885315,209.257645L551.885315,211.657639z"/>
    <circle transform="matrix(1,0,-0,1,-866.711975,-387.820374)" style="stroke:#000000;stroke-width:0.050000mm;fill:none" r="0.700001" cx="0" cy="0"/>
    <circle transform="matrix(1,0,-0,1,-878.141968,-387.820374)" style="stroke:#000000;stroke-width:0.050000mm;fill:none" r="0.700001" cx="0" cy="0"/>
    <circle transform="matrix(1,0,-0,1,-867.603943,-350.268372)" style="stroke:#000000;stroke-width:0.050000mm;fill:none" r="1.000001" cx="0" cy="0"/>
    <circle transform="matrix(1,0,-0,1,-868.703979,-354.868347)" style="stroke:#000000;stroke-width:0.050000mm;fill:none" r="1.000001" cx="0" cy="0"/>
    <circle transform="matrix(1,0,-0,1,-872.703979,-354.868347)" style="stroke:#000000;stroke-width:0.050000mm;fill:none" r="1.000001" cx="0" cy="0"/>
    <circle transform="matrix(1,0,-0,1,-875.703979,-354.868347)" style="stroke:#000000;stroke-width:0.050000mm;fill:none" r="1.000001" cx="0" cy="0"/>
    <circle transform="matrix(1,0,-0,1,-846.137878,-392.33844)" style="stroke:#000000;stroke-width:0.050000mm;fill:none" r="1.100001" cx="0" cy="0"/>
    <circle transform="matrix(1,0,-0,1,-827.087891,-373.288361)" style="stroke:#000000;stroke-width:0.050000mm;fill:none" r="1.100001" cx="0" cy="0"/>
    <circle transform="matrix(1,0,-0,1,-808.037903,-392.338409)" style="stroke:#000000;stroke-width:0.050000mm;fill:none" r="1.100001" cx="0" cy="0"/>
    <circle transform="matrix(1,0,-0,1,-789.114807,-400.266388)" style="stroke:#000000;stroke-width:0.050000mm;fill:none" r="1.000002" cx="0" cy="0"/>
    <circle transform="matrix(1,0,-0,1,-792.670837,-356.200714)" style="stroke:#000000;stroke-width:0.050000mm;fill:none" r="1.000002" cx="0" cy="0"/>
    <circle transform="matrix(1,0,-0,1,-873.823975,-347.053345)" style="stroke:#000000;stroke-width:0.050000mm;fill:none" r="1.000002" cx="0" cy="0"/>
    <circle transform="matrix(1,0,-0,1,-827.087891,-411.388397)" style="stroke:#000000;stroke-width:0.050000mm;fill:none" r="1.100001" cx="0" cy="0"/>
    <circle transform="matrix(1,0,-0,1,-846.137878,-410.426392)" style="stroke:#000000;stroke-width:0.050000mm;fill:none" r="1.000002" cx="0" cy="0"/>
    <path transform="matrix(-1.000012,-0,-0,1,-69.791138,-912.867432)" style="stroke:#000000;stroke-width:0.050000mm;fill:none" d="M805.226318,528.392578L800.026367,528.392578L798.426514,527.392578L798.426514,523.342041L806.826416,523.342041L806.826416,527.392578L805.226318,528.392578z"/>
    <path transform="matrix(1,0,-0,1,-1164.029419,-557.059387)" style="stroke:#000000;stroke-width:0.050000mm;fill:none" d="M280.017578,169.880371L280.029541,199.972412C280.009949,202.687027,279.368164,205.360992,278.153564,207.788818L267.64624,226.38208C266.825623,227.728134,265.095612,228.19725,263.70752,227.449951L262.280029,226.613281C255.993546,222.993927,249.270859,220.191605,242.274902,218.27417C219.733765,213.348114,196.730042,210.848419,173.656738,210.817871L173.560547,210.811279C172.070984,210.68544,170.904892,209.475861,170.833984,207.982666L170.849609,196.161621L170.849609,167.206787L170.795654,158.723877C170.804794,158.500473,170.861526,158.28157,170.961914,158.081787C171.30014,157.230164,171.862915,156.486191,172.590332,155.928955C172.982376,155.59111,173.376892,155.257477,173.775146,154.927002C186.273361,144.597702,201.980667,138.947006,218.194824,138.947021L222.395996,138.941406L222.488525,138.945557C235.442459,140.016739,248.191528,142.836929,260.388672,147.329346C260.963989,147.63208,261.325378,148.228058,261.327637,148.878174L261.327637,167.161621C261.335602,167.430817,261.452362,167.684952,261.650269,167.867584C261.848175,168.050232,262.11087,168.146225,262.379883,168.133789L278.267334,168.130859C279.233063,168.132065,280.016174,168.914658,280.017578,169.880371z"/>
    <circle transform="matrix(-1,-0,-0,1,-919.862,-410.426453)" style="stroke:#000000;stroke-width:0.050000mm;fill:none" r="0.999995" cx="0" cy="0"/>
    <circle transform="matrix(-1,-0,-0,1,-938.911987,-411.388489)" style="stroke:#000000;stroke-width:0.050000mm;fill:none" r="1.1" cx="0" cy="0"/>
    <circle transform="matrix(-1,-0,-0,1,-957.961975,-392.338501)" style="stroke:#000000;stroke-width:0.050000mm;fill:none" r="1.1" cx="0" cy="0"/>
    <circle transform="matrix(-1,-0,-0,1,-938.911987,-373.288452)" style="stroke:#000000;stroke-width:0.050000mm;fill:none" r="1.1" cx="0" cy="0"/>
    <circle transform="matrix(-1,-0,-0,1,-919.862,-392.338501)" style="stroke:#000000;stroke-width:0.050000mm;fill:none" r="1.1" cx="0" cy="0"/>
    <circle transform="matrix(-1,-0,-0,1,-892.175964,-347.053436)" style="stroke:#000000;stroke-width:0.050000mm;fill:none" r="0.999995" cx="0" cy="0"/>
    <circle transform="matrix(-1,-0,-0,1,-973.328979,-356.200867)" style="stroke:#000000;stroke-width:0.050000mm;fill:none" r="1.000005" cx="0" cy="0"/>
    <circle transform="matrix(-1,-0,-0,1,-976.88501,-400.266479)" style="stroke:#000000;stroke-width:0.050000mm;fill:none" r="1.000005" cx="0" cy="0"/>
    <circle transform="matrix(1,0,-0,1,-942.343994,-374.104431)" style="stroke:#000000;stroke-width:0.050000mm;fill:none" r="1" cx="0" cy="0"/>
    <circle transform="matrix(1,0,-0,1,-896.550903,-337.788422)" style="stroke:#000000;stroke-width:0.050000mm;fill:none" r="1" cx="0" cy="0"/>
    <circle transform="matrix(1,0,-0,1,-960.343994,-367.24646)" style="stroke:#000000;stroke-width:0.050000mm;fill:none" r="1" cx="0" cy="0"/>
    <circle transform="matrix(1,0,-0,1,-914.561401,-347.114929)" style="stroke:#000000;stroke-width:0.050000mm;fill:none" r="1" cx="0" cy="0"/>
    <circle transform="matrix(1,0,-0,1,-924.343994,-368.770447)" style="stroke:#000000;stroke-width:0.050000mm;fill:none" r="1" cx="0" cy="0"/>
    <circle transform="matrix(1,0,-0,1,-906.364014,-366.230438)" style="stroke:#000000;stroke-width:0.050000mm;fill:none" r="1" cx="0" cy="0"/>
    <circle transform="matrix(1,0,-0,1,-942.343994,-408.238434)" style="stroke:#000000;stroke-width:0.050000mm;fill:none" r="1" cx="0" cy="0"/>
    <circle transform="matrix(1,0,-0,1,-960.343994,-401.238434)" style="stroke:#000000;stroke-width:0.050000mm;fill:none" r="1" cx="0" cy="0"/>
    <circle transform="matrix(1,0,-0,1,-960.343994,-384.264465)" style="stroke:#000000;stroke-width:0.050000mm;fill:none" r="1" cx="0" cy="0"/>
    <circle transform="matrix(1,0,-0,1,-989.343994,-355.238464)" style="stroke:#000000;stroke-width:0.050000mm;fill:none" r="1" cx="0" cy="0"/>
    <circle transform="matrix(1,0,-0,1,-906.364014,-383.248413)" style="stroke:#000000;stroke-width:0.050000mm;fill:none" r="1" cx="0" cy="0"/>
    <circle transform="matrix(1,0,-0,1,-924.343994,-385.788422)" style="stroke:#000000;stroke-width:0.050000mm;fill:none" r="1" cx="0" cy="0"/>
    <circle transform="matrix(1,0,-0,1,-989.343994,-372.238464)" style="stroke:#000000;stroke-width:0.050000mm;fill:none" r="1" cx="0" cy="0"/>
    <circle transform="matrix(1,0,-0,1,-906.343994,-400.238434)" style="stroke:#000000;stroke-width:0.050000mm;fill:none" r="1" cx="0" cy="0"/>
    <circle transform="matrix(1,0,-0,1,-924.343994,-402.738434)" style="stroke:#000000;stroke-width:0.050000mm;fill:none" r="1" cx="0" cy="0"/>
    <circle transform="matrix(1,0,-0,1,-989.343994,-389.238464)" style="stroke:#000000;stroke-width:0.050000mm;fill:none" r="1" cx="0" cy="0"/>
    <circle transform="matrix(1,0,-0,1,-942.343994,-391.122437)" style="stroke:#000000;stroke-width:0.050000mm;fill:none" r="1" cx="0" cy="0"/>
    <path transform="matrix(-1,-0,-0,1,-527.92865,-582.687927)" style="stroke:#000000;stroke-width:0.050000mm;fill:none" d="M397.115295,184.749649L399.315308,183.34964L400.137482,179.668045C400.292969,178.686157,401.215027,178.016235,402.196899,178.171738L407.571686,178.961945C407.833649,179.003418,408.06842,179.147278,408.224304,179.361847L409.515289,181.249649L411.715271,182.549637L411.715271,184.949646L409.515289,186.249649L406.015289,186.249649L403.915283,188.34964L399.315308,188.34964L397.115295,187.149643L397.115295,184.749649z"/>
    <path transform="matrix(-1,-0,-0,1,-527.92865,-582.687927)" style="stroke:#000000;stroke-width:0.050000mm;fill:none" d="M433.115295,186.249649L435.315308,184.84964L436.137482,181.168045C436.292969,180.186157,437.215027,179.516235,438.196899,179.671738L443.571686,180.461945C443.833649,180.503418,444.06842,180.647278,444.224304,180.861847L445.515289,182.749649L447.715271,184.049637L447.715271,186.449646L445.515289,187.749649L442.015289,187.749649L439.915283,189.84964L435.315308,189.84964L433.115295,188.649643L433.115295,186.249649z"/>
    <path transform="matrix(-1,-0,-0,1,-527.92865,-582.687927)" style="stroke:#000000;stroke-width:0.050000mm;fill:none" d="M449.606293,211.037445L448.315308,209.149643L446.115295,207.84964L446.115295,205.449646L448.315308,204.149643L451.815277,204.149643L453.915283,202.049652L458.515289,202.049652L460.715271,203.249634L460.715271,205.649643L458.515289,207.049652L457.693085,210.73114C457.537598,211.713028,456.61557,212.382935,455.633667,212.227448L450.258881,211.437347C449.996918,211.395828,449.762177,211.251953,449.606293,211.037445z"/>
    <path transform="matrix(-1,-0,-0,1,-527.92865,-582.687927)" style="stroke:#000000;stroke-width:0.050000mm;fill:none" d="M379.135284,221.257645L381.335266,219.857635L382.157471,216.176041C382.312988,215.194168,383.235016,214.524246,384.216888,214.679749L389.591675,215.46994C389.853638,215.511429,390.088409,215.655273,390.244293,215.869843L391.535278,217.757645L393.735291,219.057648L393.735291,221.457642L391.535278,222.757645L388.035278,222.757645L385.935303,224.857635L381.335266,224.857635L379.135284,223.657639L379.135284,221.257645z"/>
    <path transform="matrix(-1,-0,-0,1,-527.92865,-582.687927)" style="stroke:#000000;stroke-width:0.050000mm;fill:none" d="M460.715271,188.649643L458.515289,190.049637L457.693085,193.73114C457.537598,194.713028,456.61557,195.382935,455.633667,195.227448L450.258881,194.437347C449.996918,194.395828,449.762177,194.251953,449.606293,194.037338L448.315308,192.149643L446.115295,190.84964L446.115295,188.449646L448.315308,187.149643L451.815277,187.149643L453.915283,185.049637L458.515289,185.049637L460.715271,186.249649L460.715271,188.649643z"/>
    <path transform="matrix(-1,-0,-0,1,-527.92865,-582.687927)" style="stroke:#000000;stroke-width:0.050000mm;fill:none" d="M415.115295,213.383636L417.315308,211.983643L418.137482,208.302048C418.292969,207.32016,419.215027,206.650238,420.196899,206.80574L425.571686,207.595947C425.833649,207.637421,426.06842,207.781281,426.224304,207.99585L427.515289,209.883636L429.715271,211.18364L429.715271,213.583649L427.515289,214.883636L424.015289,214.883636L421.915283,216.983643L417.315308,216.983643L415.115295,215.783646L415.115295,213.383636z"/>
    <path transform="matrix(-1,-0,-0,1,-527.92865,-582.687927)" style="stroke:#000000;stroke-width:0.050000mm;fill:none" d="M374.021881,197.153641L374.021881,225.093643C374.020386,225.534409,373.662659,225.89093,373.221893,225.89093C372.781128,225.89093,372.423401,225.534409,372.421875,225.093643L372.421875,197.153641C372.423401,196.712875,372.781128,196.356354,373.221893,196.356354C373.662659,196.356354,374.020386,196.712875,374.021881,197.153641z"/>
    <path transform="matrix(-1,-0,-0,1,-527.92865,-582.687927)" style="stroke:#000000;stroke-width:0.050000mm;fill:none" d="M379.135284,204.239639L381.335266,202.839645L382.157471,199.158051C382.312988,198.176163,383.235016,197.506241,384.216888,197.661743L389.591675,198.451935C389.853638,198.493423,390.088379,198.637268,390.244293,198.851837L391.535278,200.739639L393.735291,202.039642L393.735291,204.439636L391.535278,205.739639L388.035278,205.739639L385.935303,207.839645L381.335266,207.839645L379.135284,206.639648L379.135284,204.239639z"/>
    <path transform="matrix(-1,-0,-0,1,-527.92865,-582.687927)" style="stroke:#000000;stroke-width:0.050000mm;fill:none" d="M433.115295,220.241638L435.315308,218.841644L436.137482,215.160034C436.292969,214.178162,437.215027,213.50824,438.196899,213.663742L443.571686,214.453949C443.833618,214.495422,444.06839,214.639282,444.224304,214.853851L445.515289,216.741638L447.715271,218.041641L447.715271,220.44165L445.515289,221.741638L442.015289,221.741638L439.915283,223.841644L435.315308,223.841644L433.115295,222.641647L433.115295,220.241638z"/>
    <path transform="matrix(-1,-0,-0,1,-527.92865,-582.687927)" style="stroke:#000000;stroke-width:0.050000mm;fill:none" d="M449.606293,228.037445L448.315308,226.149643L446.115295,224.84964L446.115295,222.449646L448.315308,221.149643L451.815277,221.149643L453.915283,219.049652L458.515289,219.049652L460.715271,220.249634L460.715271,222.649643L458.515289,224.049652L457.693085,227.73114C457.537598,228.713028,456.61557,229.382935,455.633667,229.227448L450.258881,228.437347C449.996918,228.395828,449.762177,228.251953,449.606293,228.037445z"/>
    <path transform="matrix(-1,-0,-0,1,-527.92865,-582.687927)" style="stroke:#000000;stroke-width:0.050000mm;fill:none" d="M415.115295,196.365646L417.315308,194.965637L418.137482,191.284042C418.292969,190.302155,419.215027,189.632248,420.196899,189.78775L425.571686,190.577942C425.833649,190.619431,426.06842,190.763275,426.224304,190.977844L427.515289,192.865646L429.715271,194.165649L429.715271,196.565643L427.515289,197.865646L424.015289,197.865646L421.915283,199.965637L417.315308,199.965637L415.115295,198.76564L415.115295,196.365646z"/>
    <path transform="matrix(-1,-0,-0,1,-527.92865,-582.687927)" style="stroke:#000000;stroke-width:0.050000mm;fill:none" d="M397.115295,218.717651L399.315308,217.317642L400.137482,213.636047C400.292969,212.65416,401.215027,211.984253,402.196899,212.13974L407.571686,212.929947C407.833649,212.971436,408.06842,213.11528,408.224304,213.329834L409.515289,215.217651L411.715271,216.517639L411.715271,218.917648L409.515289,220.217651L406.015289,220.217651L403.915283,222.317642L399.315308,222.317642L397.115295,221.117645L397.115295,218.717651z"/>
    <path transform="matrix(-1,-0,-0,1,-527.92865,-582.687927)" style="stroke:#000000;stroke-width:0.050000mm;fill:none" d="M433.115295,203.223648L435.315308,201.823639L436.137482,198.142044C436.292969,197.160156,437.215027,196.49025,438.196899,196.645752L443.571686,197.435944C443.833649,197.477432,444.06842,197.621277,444.224304,197.835846L445.515289,199.723648L447.715271,201.023651L447.715271,203.423645L445.515289,204.723648L442.015289,204.723648L439.915283,206.823639L435.315308,206.823639L433.115295,205.623642L433.115295,203.223648z"/>
    <path transform="matrix(-1,-0,-0,1,-527.92865,-582.687927)" style="stroke:#000000;stroke-width:0.050000mm;fill:none" d="M358.781891,197.153641L358.781891,225.093643C358.781891,225.535477,358.423706,225.893646,357.981873,225.893646C357.540039,225.893646,357.181885,225.535477,357.181885,225.093643L357.181885,197.153641C357.181885,196.711823,357.540039,196.353638,357.981873,196.353638C358.423706,196.353638,358.781891,196.711823,358.781891,197.153641z"/>
    <path transform="matrix(-1,-0,-0,1,-527.92865,-582.687927)" style="stroke:#000000;stroke-width:0.050000mm;fill:none" d="M371.628387,248.706543L372.833588,246.394135L371.704895,242.794647C371.348633,241.866577,371.812134,240.825439,372.740173,240.469147L377.7901,238.466034C378.037659,238.370987,378.312897,238.378174,378.555176,238.486053L380.617065,239.475433L383.172302,239.501251L384.372284,241.579742L383.117065,243.805542L380.085999,245.555542L379.317383,248.42424L375.333588,250.724243L372.828369,250.784943L371.628387,248.706543z"/>
    <path transform="matrix(-1,-0,-0,1,-527.92865,-582.687927)" style="stroke:#000000;stroke-width:0.050000mm;fill:none" d="M388.551208,240.028351L390.313904,238.106644L390.155182,234.337738C390.05127,233.349106,390.768433,232.463409,391.75708,232.359436L397.153381,231.731537C397.417114,231.703842,397.681091,231.782043,397.887207,231.948944L399.622803,233.438232L402.08429,234.124542L402.705505,236.442841L400.91687,238.267944L397.536194,239.173737L396.051208,241.745743L391.607971,242.93634L389.172363,242.346649L388.551208,240.028351z"/>
    <path transform="matrix(-1,-0,-0,1,-527.92865,-582.687927)" style="stroke:#000000;stroke-width:0.050000mm;fill:none" d="M379.115295,187.249649L381.315308,185.84964L382.137482,182.168045C382.292969,181.186157,383.215027,180.516235,384.196899,180.671738L389.571686,181.461945C389.833649,181.503418,390.06842,181.647278,390.224304,181.861847L391.515289,183.749649L393.715271,185.049637L393.715271,187.449646L391.515289,188.749649L388.015289,188.749649L385.915283,190.84964L381.315308,190.84964L379.115295,189.649643L379.115295,187.249649z"/>
    <path transform="matrix(-1,-0,-0,1,-527.92865,-582.687927)" style="stroke:#000000;stroke-width:0.050000mm;fill:none" d="M415.115295,179.249649L417.315308,177.84964L418.137482,174.168045C418.292969,173.186157,419.215027,172.516235,420.196899,172.671738L425.571686,173.461945C425.833649,173.503433,426.06842,173.647278,426.224304,173.861847L427.515289,175.749649L429.715271,177.049637L429.715271,179.449646L427.515289,180.749649L424.015289,180.749649L421.915283,182.84964L417.315308,182.84964L415.115295,181.649643L415.115295,179.249649z"/>
    <path transform="matrix(-1,-0,-0,1,-527.92865,-582.687927)" style="stroke:#000000;stroke-width:0.050000mm;fill:none" d="M397.115295,201.699646L399.315308,200.299652L400.137482,196.618042C400.292969,195.636169,401.215027,194.966248,402.196899,195.121735L407.571686,195.911942C407.833618,195.95343,408.06839,196.097275,408.224304,196.311844L409.515289,198.199646L411.715271,199.499634L411.715271,201.899643L409.515289,203.199646L406.015289,203.199646L403.915283,205.299652L399.315308,205.299652L397.115295,204.09964L397.115295,201.699646z"/>
    <circle transform="matrix(1,0,-0,1,-887.734009,-387.820435)" style="stroke:#000000;stroke-width:0.050000mm;fill:none" r="0.7" cx="0" cy="0"/>
    <circle transform="matrix(1,0,-0,1,-899.417969,-387.820435)" style="stroke:#000000;stroke-width:0.050000mm;fill:none" r="0.7" cx="0" cy="0"/>
    <circle transform="matrix(1,0,-0,1,-898.526001,-354.868439)" style="stroke:#000000;stroke-width:0.050000mm;fill:none" r="1" cx="0" cy="0"/>
    <circle transform="matrix(1,0,-0,1,-897.426025,-350.268433)" style="stroke:#000000;stroke-width:0.050000mm;fill:none" r="1" cx="0" cy="0"/>
    <circle transform="matrix(1,0,-0,1,-893.426025,-350.268433)" style="stroke:#000000;stroke-width:0.050000mm;fill:none" r="1" cx="0" cy="0"/>
    <circle transform="matrix(1,0,-0,1,-890.426025,-350.268433)" style="stroke:#000000;stroke-width:0.050000mm;fill:none" r="1" cx="0" cy="0"/>
    <path transform="matrix(-1,-0,-0,1,-90.994049,-912.86731)" style="stroke:#000000;stroke-width:0.050000mm;fill:none" d="M805.226318,528.392578L800.026367,528.392578L798.426514,527.392578L798.426514,523.342041L806.826416,523.342041L806.826416,527.392578L805.226318,528.392578z"/>
</svg>
