  0
SECTION
  2
HEADER
  9
$ACADVER
  1
AC1009
  0
ENDSEC
  0
SECTION
  2
TABLES
  0
TABLE
  2
LAYER
  70
1
  0
LAYER
  2
Layer_0
  70
0
  62
7
  6
CONTINUOUS
  0
ENDTAB
  0
ENDSEC
  0
SECTION
  2
ENTITIES
  0
POLYLINE
  5
90
  8
Layer_0
  62
7
  70
1
  66
1
  10
0
  20
0
  30
0
  0
VERTEX
  5
90
  8
Layer_0
  10
-99.444641
  20
930.86261
  42
-0.11026039
  0
VERTEX
  5
91
  8
Layer_0
  10
-99.379211
  20
931.07355
  0
VERTEX
  5
92
  8
Layer_0
  10
-92.979309
  20
942.15802
  42
-0.19829878
  0
VERTEX
  5
93
  8
Layer_0
  10
-92.675537
  20
942.39108
  42
-0.19936872
  0
VERTEX
  5
94
  8
Layer_0
  10
-92.296204
  20
942.34113
  0
VERTEX
  5
95
  8
Layer_0
  10
-81.211243
  20
935.94122
  42
-0.41404145
  0
VERTEX
  5
96
  8
Layer_0
  10
-81.028137
  20
935.25812
  0
VERTEX
  5
97
  8
Layer_0
  10
-87.42804
  20
924.17316
  42
-0.41407407
  0
VERTEX
  5
98
  8
Layer_0
  10
-88.111145
  20
923.99005
  0
VERTEX
  5
99
  8
Layer_0
  10
-99.196106
  20
930.39044
  42
-0.28832481
  0
SEQEND
  0
POLYLINE
  5
9b
  8
Layer_0
  62
7
  70
1
  66
1
  10
0
  20
0
  30
0
  0
VERTEX
  5
9b
  8
Layer_0
  10
-107.56763
  20
999.32794
  42
-0.37949636
  0
VERTEX
  5
9c
  8
Layer_0
  10
-107.07153
  20
999.76544
  0
VERTEX
  5
9d
  8
Layer_0
  10
-94.271729
  20
999.76544
  42
-0.41282536
  0
VERTEX
  5
9e
  8
Layer_0
  10
-93.771729
  20
999.26544
  0
VERTEX
  5
9f
  8
Layer_0
  10
-93.77179
  20
986.46567
  42
-0.41328281
  0
VERTEX
  5
a0
  8
Layer_0
  10
-94.27179
  20
985.96567
  0
VERTEX
  5
a1
  8
Layer_0
  10
-107.07159
  20
985.96567
  42
-0.41272421
  0
VERTEX
  5
a2
  8
Layer_0
  10
-107.57159
  20
986.46567
  0
VERTEX
  5
a3
  8
Layer_0
  10
-107.57153
  20
999.26544
  0
SEQEND
  0
POLYLINE
  5
a5
  8
Layer_0
  62
7
  70
1
  66
1
  10
0
  20
0
  30
0
  0
VERTEX
  5
a5
  8
Layer_0
  10
-107.56769
  20
982.3382
  42
-0.37750616
  0
VERTEX
  5
a6
  8
Layer_0
  10
-107.07159
  20
982.7757
  0
VERTEX
  5
a7
  8
Layer_0
  10
-94.27179
  20
982.7757
  42
-0.41359037
  0
VERTEX
  5
a8
  8
Layer_0
  10
-93.77179
  20
982.2757
  0
VERTEX
  5
a9
  8
Layer_0
  10
-93.77179
  20
969.47589
  42
-0.41382914
  0
VERTEX
  5
aa
  8
Layer_0
  10
-94.27179
  20
968.97589
  0
VERTEX
  5
ab
  8
Layer_0
  10
-107.07159
  20
968.97589
  42
-0.41325848
  0
VERTEX
  5
ac
  8
Layer_0
  10
-107.57159
  20
969.47589
  0
VERTEX
  5
ad
  8
Layer_0
  10
-107.57159
  20
982.2757
  0
SEQEND
  0
POLYLINE
  5
af
  8
Layer_0
  62
7
  70
1
  66
1
  10
0
  20
0
  30
0
  0
VERTEX
  5
af
  8
Layer_0
  10
-107.56769
  20
965.32013
  42
-0.37805627
  0
VERTEX
  5
b0
  8
Layer_0
  10
-107.07159
  20
965.75763
  0
VERTEX
  5
b1
  8
Layer_0
  10
-94.27179
  20
965.75763
  42
-0.41392222
  0
VERTEX
  5
b2
  8
Layer_0
  10
-93.77179
  20
965.25763
  0
VERTEX
  5
b3
  8
Layer_0
  10
-93.77179
  20
952.45782
  42
-0.41396673
  0
VERTEX
  5
b4
  8
Layer_0
  10
-94.27179
  20
951.95782
  0
VERTEX
  5
b5
  8
Layer_0
  10
-107.07159
  20
951.95782
  42
-0.19885694
  0
VERTEX
  5
b6
  8
Layer_0
  10
-107.42523
  20
952.10419
  42
-0.19885694
  0
VERTEX
  5
b7
  8
Layer_0
  10
-107.57159
  20
952.45782
  0
VERTEX
  5
b8
  8
Layer_0
  10
-107.57159
  20
965.25763
  0
SEQEND
  0
POLYLINE
  5
ba
  8
Layer_0
  62
7
  70
1
  66
1
  10
0
  20
0
  30
0
  0
VERTEX
  5
ba
  8
Layer_0
  10
-117.09308
  20
936.73566
  0
VERTEX
  5
bb
  8
Layer_0
  10
-117.08527
  20
936.76984
  0
VERTEX
  5
bc
  8
Layer_0
  10
-113.77228
  20
949.13361
  42
-0.19909559
  0
VERTEX
  5
bd
  8
Layer_0
  10
-113.53937
  20
949.43726
  42
-0.19893001
  0
VERTEX
  5
be
  8
Layer_0
  10
-113.15997
  20
949.48712
  0
VERTEX
  5
bf
  8
Layer_0
  10
-100.7962
  20
946.17413
  42
-0.41409575
  0
VERTEX
  5
c0
  8
Layer_0
  10
-100.44269
  20
945.56183
  0
VERTEX
  5
c1
  8
Layer_0
  10
-103.75519
  20
933.19806
  42
-0.41364425
  0
VERTEX
  5
c2
  8
Layer_0
  10
-104.36749
  20
932.84454
  0
VERTEX
  5
c3
  8
Layer_0
  10
-116.73175
  20
936.15753
  42
-0.39344763
  0
SEQEND
  0
POLYLINE
  5
c5
  8
Layer_0
  62
7
  70
1
  66
1
  10
0
  20
0
  30
0
  0
VERTEX
  5
c5
  8
Layer_0
  10
-125.58179
  20
1001.8279
  42
-0.37929241
  0
VERTEX
  5
c6
  8
Layer_0
  10
-125.08569
  20
1002.2654
  0
VERTEX
  5
c7
  8
Layer_0
  10
-112.28589
  20
1002.2654
  42
-0.4132261
  0
VERTEX
  5
c8
  8
Layer_0
  10
-111.78589
  20
1001.7654
  0
VERTEX
  5
c9
  8
Layer_0
  10
-111.78589
  20
988.96567
  42
-0.41379273
  0
VERTEX
  5
ca
  8
Layer_0
  10
-112.28595
  20
988.46567
  0
VERTEX
  5
cb
  8
Layer_0
  10
-125.08575
  20
988.46567
  42
-0.20036554
  0
VERTEX
  5
cc
  8
Layer_0
  10
-125.43909
  20
988.61182
  42
-0.19745571
  0
VERTEX
  5
cd
  8
Layer_0
  10
-125.58569
  20
988.96567
  0
VERTEX
  5
ce
  8
Layer_0
  10
-125.58569
  20
1001.7654
  0
SEQEND
  0
POLYLINE
  5
d0
  8
Layer_0
  62
7
  70
1
  66
1
  10
0
  20
0
  30
0
  0
VERTEX
  5
d0
  8
Layer_0
  10
-125.58185
  20
984.87827
  42
-0.37842018
  0
VERTEX
  5
d1
  8
Layer_0
  10
-125.08575
  20
985.31577
  0
VERTEX
  5
d2
  8
Layer_0
  10
-112.28595
  20
985.31573
  42
-0.41316946
  0
VERTEX
  5
d3
  8
Layer_0
  10
-111.78595
  20
984.81573
  0
VERTEX
  5
d4
  8
Layer_0
  10
-111.78595
  20
972.01544
  42
-0.19937257
  0
VERTEX
  5
d5
  8
Layer_0
  10
-111.93213
  20
971.6618
  42
-0.19842675
  0
VERTEX
  5
d6
  8
Layer_0
  10
-112.28595
  20
971.51544
  0
VERTEX
  5
d7
  8
Layer_0
  10
-125.08575
  20
971.51547
  42
-0.41310469
  0
VERTEX
  5
d8
  8
Layer_0
  10
-125.58575
  20
972.01547
  0
VERTEX
  5
d9
  8
Layer_0
  10
-125.58575
  20
984.81577
  0
SEQEND
  0
POLYLINE
  5
db
  8
Layer_0
  62
7
  70
1
  66
1
  10
0
  20
0
  30
0
  0
VERTEX
  5
db
  8
Layer_0
  10
-125.58185
  20
967.8602
  42
-0.37630141
  0
VERTEX
  5
dc
  8
Layer_0
  10
-125.08575
  20
968.2977
  0
VERTEX
  5
dd
  8
Layer_0
  10
-112.28595
  20
968.29767
  42
-0.19933212
  0
VERTEX
  5
de
  8
Layer_0
  10
-111.93237
  20
968.15143
  42
-0.19838624
  0
VERTEX
  5
df
  8
Layer_0
  10
-111.78595
  20
967.79767
  0
VERTEX
  5
e0
  8
Layer_0
  10
-111.78595
  20
954.99786
  42
-0.41391413
  0
VERTEX
  5
e1
  8
Layer_0
  10
-112.28595
  20
954.49786
  0
VERTEX
  5
e2
  8
Layer_0
  10
-125.08575
  20
954.49789
  42
-0.41383319
  0
VERTEX
  5
e3
  8
Layer_0
  10
-125.58575
  20
954.99789
  0
VERTEX
  5
e4
  8
Layer_0
  10
-125.58575
  20
967.7977
  0
SEQEND
  0
POLYLINE
  5
e6
  8
Layer_0
  62
7
  70
1
  66
1
  10
0
  20
0
  30
0
  0
VERTEX
  5
e6
  8
Layer_0
  10
-143.57007
  20
1007.328
  42
-0.37719626
  0
VERTEX
  5
e7
  8
Layer_0
  10
-143.07397
  20
1007.7655
  0
VERTEX
  5
e8
  8
Layer_0
  10
-130.27368
  20
1007.7654
  42
-0.19783018
  0
VERTEX
  5
e9
  8
Layer_0
  10
-129.92004
  20
1007.6189
  42
-0.19976879
  0
VERTEX
  5
ea
  8
Layer_0
  10
-129.77368
  20
1007.2654
  0
VERTEX
  5
eb
  8
Layer_0
  10
-129.77368
  20
994.46567
  42
-0.41308041
  0
VERTEX
  5
ec
  8
Layer_0
  10
-130.27368
  20
993.96567
  0
VERTEX
  5
ed
  8
Layer_0
  10
-143.07397
  20
993.96567
  42
-0.19839241
  0
VERTEX
  5
ee
  8
Layer_0
  10
-143.42767
  20
994.11212
  42
-0.1993445
  0
VERTEX
  5
ef
  8
Layer_0
  10
-143.57397
  20
994.46567
  0
VERTEX
  5
f0
  8
Layer_0
  10
-143.57397
  20
1007.2655
  0
SEQEND
  0
POLYLINE
  5
f2
  8
Layer_0
  62
7
  70
1
  66
1
  10
0
  20
0
  30
0
  0
VERTEX
  5
f2
  8
Layer_0
  10
-143.57013
  20
973.19418
  42
-0.37735662
  0
VERTEX
  5
f3
  8
Layer_0
  10
-143.07404
  20
973.63168
  0
VERTEX
  5
f4
  8
Layer_0
  10
-130.27374
  20
973.63168
  42
-0.41329088
  0
VERTEX
  5
f5
  8
Layer_0
  10
-129.77374
  20
973.13168
  0
VERTEX
  5
f6
  8
Layer_0
  10
-129.77374
  20
960.33188
  42
-0.20087064
  0
VERTEX
  5
f7
  8
Layer_0
  10
-129.91968
  20
959.97839
  42
-0.1970303
  0
VERTEX
  5
f8
  8
Layer_0
  10
-130.27374
  20
959.83188
  0
VERTEX
  5
f9
  8
Layer_0
  10
-143.07404
  20
959.83188
  42
-0.19932336
  0
VERTEX
  5
fa
  8
Layer_0
  10
-143.42749
  20
959.97824
  42
-0.1983924
  0
VERTEX
  5
fb
  8
Layer_0
  10
-143.57404
  20
960.33188
  0
VERTEX
  5
fc
  8
Layer_0
  10
-143.57404
  20
973.13168
  0
SEQEND
  0
POLYLINE
  5
fe
  8
Layer_0
  62
7
  70
1
  66
1
  10
0
  20
0
  30
0
  0
VERTEX
  5
fe
  8
Layer_0
  10
-143.57007
  20
990.21225
  42
-0.37771076
  0
VERTEX
  5
ff
  8
Layer_0
  10
-143.07397
  20
990.64975
  0
VERTEX
  5
100
  8
Layer_0
  10
-130.27368
  20
990.64975
  42
-0.41385747
  0
VERTEX
  5
101
  8
Layer_0
  10
-129.77368
  20
990.14975
  0
VERTEX
  5
102
  8
Layer_0
  10
-129.77374
  20
977.34943
  42
-0.41317754
  0
VERTEX
  5
103
  8
Layer_0
  10
-130.27374
  20
976.84943
  0
VERTEX
  5
104
  8
Layer_0
  10
-143.07404
  20
976.84943
  42
-0.41355798
  0
VERTEX
  5
105
  8
Layer_0
  10
-143.57404
  20
977.34943
  0
VERTEX
  5
106
  8
Layer_0
  10
-143.57397
  20
990.14975
  0
SEQEND
  0
POLYLINE
  5
108
  8
Layer_0
  62
7
  70
1
  66
1
  10
0
  20
0
  30
0
  0
VERTEX
  5
108
  8
Layer_0
  10
-161.59595
  20
1000.328
  42
-0.37911436
  0
VERTEX
  5
109
  8
Layer_0
  10
-161.09985
  20
1000.7655
  0
VERTEX
  5
10a
  8
Layer_0
  10
-148.29956
  20
1000.7655
  42
-0.19737624
  0
VERTEX
  5
10b
  8
Layer_0
  10
-147.9458
  20
1000.6188
  42
-0.20022484
  0
VERTEX
  5
10c
  8
Layer_0
  10
-147.79956
  20
1000.2655
  0
VERTEX
  5
10d
  8
Layer_0
  10
-147.79956
  20
987.46567
  42
-0.20030133
  0
VERTEX
  5
10e
  8
Layer_0
  10
-147.9458
  20
987.11234
  42
-0.19746607
  0
VERTEX
  5
10f
  8
Layer_0
  10
-148.29956
  20
986.96567
  0
VERTEX
  5
110
  8
Layer_0
  10
-161.09985
  20
986.96567
  42
-0.19885256
  0
VERTEX
  5
111
  8
Layer_0
  10
-161.45349
  20
987.11206
  42
-0.19887371
  0
VERTEX
  5
112
  8
Layer_0
  10
-161.59985
  20
987.46567
  0
VERTEX
  5
113
  8
Layer_0
  10
-161.59985
  20
1000.2655
  0
SEQEND
  0
POLYLINE
  5
115
  8
Layer_0
  62
7
  70
1
  66
1
  10
0
  20
0
  30
0
  0
VERTEX
  5
115
  8
Layer_0
  10
-161.59595
  20
983.35434
  42
-0.37984838
  0
VERTEX
  5
116
  8
Layer_0
  10
-161.09985
  20
983.79184
  0
VERTEX
  5
117
  8
Layer_0
  10
-148.29956
  20
983.79184
  42
-0.41351755
  0
VERTEX
  5
118
  8
Layer_0
  10
-147.79956
  20
983.29184
  0
VERTEX
  5
119
  8
Layer_0
  10
-147.79956
  20
970.49152
  42
-0.41381703
  0
VERTEX
  5
11a
  8
Layer_0
  10
-148.29956
  20
969.99152
  0
VERTEX
  5
11b
  8
Layer_0
  10
-161.09991
  20
969.99155
  42
-0.20129278
  0
VERTEX
  5
11c
  8
Layer_0
  10
-161.45313
  20
970.1376
  42
-0.19652532
  0
VERTEX
  5
11d
  8
Layer_0
  10
-161.59991
  20
970.49155
  0
VERTEX
  5
11e
  8
Layer_0
  10
-161.59985
  20
983.29184
  0
SEQEND
  0
POLYLINE
  5
120
  8
Layer_0
  62
7
  70
1
  66
1
  10
0
  20
0
  30
0
  0
VERTEX
  5
120
  8
Layer_0
  10
-161.59601
  20
966.33627
  42
-0.37618687
  0
VERTEX
  5
121
  8
Layer_0
  10
-161.09991
  20
966.77377
  0
VERTEX
  5
122
  8
Layer_0
  10
-148.29956
  20
966.77377
  42
-0.4124569
  0
VERTEX
  5
123
  8
Layer_0
  10
-147.79956
  20
966.27377
  0
VERTEX
  5
124
  8
Layer_0
  10
-147.79962
  20
953.47348
  42
-0.41266746
  0
VERTEX
  5
125
  8
Layer_0
  10
-148.29962
  20
952.97348
  0
VERTEX
  5
126
  8
Layer_0
  10
-161.09991
  20
952.97348
  42
-0.41315327
  0
VERTEX
  5
127
  8
Layer_0
  10
-161.59991
  20
953.47348
  0
VERTEX
  5
128
  8
Layer_0
  10
-161.59991
  20
966.27377
  0
SEQEND
  0
POLYLINE
  5
12a
  8
Layer_0
  62
7
  70
1
  66
1
  10
0
  20
0
  30
0
  0
VERTEX
  5
12a
  8
Layer_0
  10
-179.61401
  20
988.32797
  42
-0.37454451
  0
VERTEX
  5
12b
  8
Layer_0
  10
-179.11792
  20
988.76547
  0
VERTEX
  5
12c
  8
Layer_0
  10
-166.31763
  20
988.76547
  42
-0.20084532
  0
VERTEX
  5
12d
  8
Layer_0
  10
-165.96429
  20
988.61942
  42
-0.19697909
  0
VERTEX
  5
12e
  8
Layer_0
  10
-165.81763
  20
988.26547
  0
VERTEX
  5
12f
  8
Layer_0
  10
-165.81763
  20
975.46567
  42
-0.41320183
  0
VERTEX
  5
130
  8
Layer_0
  10
-166.31763
  20
974.96567
  0
VERTEX
  5
131
  8
Layer_0
  10
-179.11792
  20
974.96567
  42
-0.41286177
  0
VERTEX
  5
132
  8
Layer_0
  10
-179.61792
  20
975.46567
  0
VERTEX
  5
133
  8
Layer_0
  10
-179.61792
  20
988.26547
  0
SEQEND
  0
POLYLINE
  5
135
  8
Layer_0
  62
7
  70
1
  66
1
  10
0
  20
0
  30
0
  0
VERTEX
  5
135
  8
Layer_0
  10
-179.61407
  20
971.32797
  42
-0.37810208
  0
VERTEX
  5
136
  8
Layer_0
  10
-179.11792
  20
971.76547
  0
VERTEX
  5
137
  8
Layer_0
  10
-166.31763
  20
971.76547
  42
-0.20084532
  0
VERTEX
  5
138
  8
Layer_0
  10
-165.96429
  20
971.61942
  42
-0.19697909
  0
VERTEX
  5
139
  8
Layer_0
  10
-165.81769
  20
971.26547
  0
VERTEX
  5
13a
  8
Layer_0
  10
-165.81769
  20
958.46567
  42
-0.41371178
  0
VERTEX
  5
13b
  8
Layer_0
  10
-166.31769
  20
957.96567
  0
VERTEX
  5
13c
  8
Layer_0
  10
-179.11798
  20
957.96567
  42
-0.19936384
  0
VERTEX
  5
13d
  8
Layer_0
  10
-179.4715
  20
958.11197
  42
-0.19841794
  0
VERTEX
  5
13e
  8
Layer_0
  10
-179.61798
  20
958.46567
  0
VERTEX
  5
13f
  8
Layer_0
  10
-179.61798
  20
971.26547
  0
SEQEND
  0
POLYLINE
  5
141
  8
Layer_0
  62
7
  70
1
  66
1
  10
0
  20
0
  30
0
  0
VERTEX
  5
141
  8
Layer_0
  10
-179.61407
  20
954.32797
  42
-0.37810208
  0
VERTEX
  5
142
  8
Layer_0
  10
-179.11798
  20
954.76547
  0
VERTEX
  5
143
  8
Layer_0
  10
-166.31769
  20
954.76547
  42
-0.20084532
  0
VERTEX
  5
144
  8
Layer_0
  10
-165.96429
  20
954.61942
  42
-0.19697909
  0
VERTEX
  5
145
  8
Layer_0
  10
-165.81769
  20
954.26547
  0
VERTEX
  5
146
  8
Layer_0
  10
-165.81769
  20
941.46567
  42
-0.41319371
  0
VERTEX
  5
147
  8
Layer_0
  10
-166.31769
  20
940.96567
  0
VERTEX
  5
148
  8
Layer_0
  10
-179.11798
  20
940.96567
  42
-0.41284558
  0
VERTEX
  5
149
  8
Layer_0
  10
-179.61798
  20
941.46567
  0
VERTEX
  5
14a
  8
Layer_0
  10
-179.61798
  20
954.26547
  0
SEQEND
  0
ELLIPSE
  5
14c
  8
Layer_0
  62
7
  10
-80.941345
  20
939.68054
  30
0
  11
0
  21
-1.1000061
  31
0
  40
0.99997228
  41
0
  42
6.2831855
  0
POLYLINE
  5
14c
  8
Layer_0
  62
7
  70
1
  66
1
  10
0
  20
0
  30
0
  0
VERTEX
  5
14c
  8
Layer_0
  10
-87.961792
  20
941.8457
  42
-0.41048914
  0
VERTEX
  5
14d
  8
Layer_0
  10
-88.261841
  20
942.14575
  0
VERTEX
  5
14e
  8
Layer_0
  10
-88.261841
  20
943.07269
  42
0.41421356
  0
VERTEX
  5
14f
  8
Layer_0
  10
-88.561829
  20
943.37268
  0
VERTEX
  5
150
  8
Layer_0
  10
-89.559448
  20
943.37268
  0
VERTEX
  5
151
  8
Layer_0
  10
-91.167664
  20
943.37268
  42
-0.41421356
  0
VERTEX
  5
152
  8
Layer_0
  10
-91.467651
  20
943.6727
  0
VERTEX
  5
153
  8
Layer_0
  10
-91.467651
  20
944.55331
  0
VERTEX
  5
154
  8
Layer_0
  10
-91.467651
  20
1000.8083
  42
0.27791092
  0
VERTEX
  5
155
  8
Layer_0
  10
-92.406616
  20
1002.3571
  42
0.06770213
  0
VERTEX
  5
156
  8
Layer_0
  10
-130.30676
  20
1010.7409
  0
VERTEX
  5
157
  8
Layer_0
  10
-130.39929
  20
1010.745
  0
VERTEX
  5
158
  8
Layer_0
  10
-134.60046
  20
1010.7394
  42
0.16870376
  0
VERTEX
  5
159
  8
Layer_0
  10
-177.81921
  20
995.72992
  0
VERTEX
  5
15a
  8
Layer_0
  10
-179.02014
  20
994.75946
  42
0.0043983618
  0
VERTEX
  5
15b
  8
Layer_0
  10
-180.20496
  20
993.75751
  42
0.13562936
  0
VERTEX
  5
15c
  8
Layer_0
  10
-181.83337
  20
991.60468
  42
0.10540311
  0
VERTEX
  5
15d
  8
Layer_0
  10
-181.99963
  20
990.96259
  0
VERTEX
  5
15e
  8
Layer_0
  10
-181.94568
  20
982.47968
  0
VERTEX
  5
15f
  8
Layer_0
  10
-181.94568
  20
953.5249
  0
VERTEX
  5
160
  8
Layer_0
  10
-181.9613
  20
941.70386
  42
0.37596495
  0
VERTEX
  5
161
  8
Layer_0
  10
-179.23474
  20
938.87524
  0
VERTEX
  5
162
  8
Layer_0
  10
-179.13855
  20
938.86865
  42
-0.053509002
  0
VERTEX
  5
163
  8
Layer_0
  10
-110.52039
  20
931.41235
  42
-0.063806019
  0
VERTEX
  5
164
  8
Layer_0
  10
-90.515259
  20
923.07327
  0
VERTEX
  5
165
  8
Layer_0
  10
-89.087769
  20
922.2366
  42
0.39860122
  0
VERTEX
  5
166
  8
Layer_0
  10
-85.149048
  20
923.30447
  0
VERTEX
  5
167
  8
Layer_0
  10
-77.200562
  20
937.36975
  42
0.26671309
  0
VERTEX
  5
168
  8
Layer_0
  10
-77.221191
  20
940.35767
  42
0.26671154
  0
VERTEX
  5
169
  8
Layer_0
  10
-79.812378
  20
941.8457
  0
SEQEND
  0
ELLIPSE
  5
16b
  8
Layer_0
  62
7
  10
-165.65033
  20
992.89368
  30
0
  11
0
  21
-1.1000061
  31
0
  40
0.99997228
  41
0
  42
6.2831855
  0
ELLIPSE
  5
16b
  8
Layer_0
  62
7
  10
-162.0943
  20
948.82855
  30
0
  11
0
  21
-1.1000061
  31
0
  40
0.99997228
  41
0
  42
6.2831855
  0
ELLIPSE
  5
16b
  8
Layer_0
  62
7
  10
-108.62732
  20
1003.0536
  30
0
  11
0
  21
-1.1000061
  31
0
  40
0.99997228
  41
0
  42
6.2831855
  0
POLYLINE
  5
16b
  8
Layer_0
  62
7
  70
1
  66
1
  10
0
  20
0
  30
0
  0
VERTEX
  5
16b
  8
Layer_0
  10
-266.55469
  20
930.86261
  42
0.11026039
  0
VERTEX
  5
16c
  8
Layer_0
  10
-266.62012
  20
931.07355
  0
VERTEX
  5
16d
  8
Layer_0
  10
-273.02002
  20
942.15802
  42
0.19829878
  0
VERTEX
  5
16e
  8
Layer_0
  10
-273.32379
  20
942.39108
  42
0.19936872
  0
VERTEX
  5
16f
  8
Layer_0
  10
-273.70313
  20
942.34113
  0
VERTEX
  5
170
  8
Layer_0
  10
-284.78809
  20
935.94122
  42
0.41404145
  0
VERTEX
  5
171
  8
Layer_0
  10
-284.97119
  20
935.25812
  0
VERTEX
  5
172
  8
Layer_0
  10
-278.57129
  20
924.17316
  42
0.41407407
  0
VERTEX
  5
173
  8
Layer_0
  10
-277.88818
  20
923.99005
  0
VERTEX
  5
174
  8
Layer_0
  10
-266.80322
  20
930.39044
  42
0.28832481
  0
SEQEND
  0
POLYLINE
  5
176
  8
Layer_0
  62
7
  70
1
  66
1
  10
0
  20
0
  30
0
  0
VERTEX
  5
176
  8
Layer_0
  10
-258.43164
  20
999.32794
  42
0.37949636
  0
VERTEX
  5
177
  8
Layer_0
  10
-258.92773
  20
999.76544
  0
VERTEX
  5
178
  8
Layer_0
  10
-271.72754
  20
999.76544
  42
0.41282536
  0
VERTEX
  5
179
  8
Layer_0
  10
-272.22754
  20
999.26544
  0
VERTEX
  5
17a
  8
Layer_0
  10
-272.22754
  20
986.46567
  42
0.41328281
  0
VERTEX
  5
17b
  8
Layer_0
  10
-271.72754
  20
985.96567
  0
VERTEX
  5
17c
  8
Layer_0
  10
-258.92773
  20
985.96567
  42
0.41272421
  0
VERTEX
  5
17d
  8
Layer_0
  10
-258.42773
  20
986.46567
  0
VERTEX
  5
17e
  8
Layer_0
  10
-258.42773
  20
999.26544
  0
SEQEND
  0
POLYLINE
  5
180
  8
Layer_0
  62
7
  70
1
  66
1
  10
0
  20
0
  30
0
  0
VERTEX
  5
180
  8
Layer_0
  10
-258.43164
  20
982.3382
  42
0.37750616
  0
VERTEX
  5
181
  8
Layer_0
  10
-258.92773
  20
982.7757
  0
VERTEX
  5
182
  8
Layer_0
  10
-271.72754
  20
982.7757
  42
0.41359037
  0
VERTEX
  5
183
  8
Layer_0
  10
-272.22754
  20
982.2757
  0
VERTEX
  5
184
  8
Layer_0
  10
-272.22754
  20
969.47589
  42
0.41382914
  0
VERTEX
  5
185
  8
Layer_0
  10
-271.72754
  20
968.97589
  0
VERTEX
  5
186
  8
Layer_0
  10
-258.92773
  20
968.97589
  42
0.41325848
  0
VERTEX
  5
187
  8
Layer_0
  10
-258.42773
  20
969.47589
  0
VERTEX
  5
188
  8
Layer_0
  10
-258.42773
  20
982.2757
  0
SEQEND
  0
POLYLINE
  5
18a
  8
Layer_0
  62
7
  70
1
  66
1
  10
0
  20
0
  30
0
  0
VERTEX
  5
18a
  8
Layer_0
  10
-258.43164
  20
965.32013
  42
0.37805627
  0
VERTEX
  5
18b
  8
Layer_0
  10
-258.92773
  20
965.75763
  0
VERTEX
  5
18c
  8
Layer_0
  10
-271.72754
  20
965.75763
  42
0.41392222
  0
VERTEX
  5
18d
  8
Layer_0
  10
-272.22754
  20
965.25763
  0
VERTEX
  5
18e
  8
Layer_0
  10
-272.22754
  20
952.45782
  42
0.41396673
  0
VERTEX
  5
18f
  8
Layer_0
  10
-271.72754
  20
951.95782
  0
VERTEX
  5
190
  8
Layer_0
  10
-258.92773
  20
951.95782
  42
0.19885694
  0
VERTEX
  5
191
  8
Layer_0
  10
-258.5741
  20
952.10419
  42
0.19885694
  0
VERTEX
  5
192
  8
Layer_0
  10
-258.42773
  20
952.45782
  0
VERTEX
  5
193
  8
Layer_0
  10
-258.42773
  20
965.25763
  0
SEQEND
  0
POLYLINE
  5
195
  8
Layer_0
  62
7
  70
1
  66
1
  10
0
  20
0
  30
0
  0
VERTEX
  5
195
  8
Layer_0
  10
-248.90625
  20
936.73566
  0
VERTEX
  5
196
  8
Layer_0
  10
-248.91406
  20
936.76984
  0
VERTEX
  5
197
  8
Layer_0
  10
-252.22705
  20
949.13361
  42
0.19909559
  0
VERTEX
  5
198
  8
Layer_0
  10
-252.45996
  20
949.43726
  42
0.19893001
  0
VERTEX
  5
199
  8
Layer_0
  10
-252.83936
  20
949.48712
  0
VERTEX
  5
19a
  8
Layer_0
  10
-265.20313
  20
946.17413
  42
0.41409575
  0
VERTEX
  5
19b
  8
Layer_0
  10
-265.55664
  20
945.56183
  0
VERTEX
  5
19c
  8
Layer_0
  10
-262.24414
  20
933.19806
  42
0.41364425
  0
VERTEX
  5
19d
  8
Layer_0
  10
-261.63184
  20
932.84454
  0
VERTEX
  5
19e
  8
Layer_0
  10
-249.26758
  20
936.15753
  42
0.39344763
  0
SEQEND
  0
POLYLINE
  5
1a0
  8
Layer_0
  62
7
  70
1
  66
1
  10
0
  20
0
  30
0
  0
VERTEX
  5
1a0
  8
Layer_0
  10
-240.41748
  20
1001.8279
  42
0.37929241
  0
VERTEX
  5
1a1
  8
Layer_0
  10
-240.91357
  20
1002.2654
  0
VERTEX
  5
1a2
  8
Layer_0
  10
-253.71338
  20
1002.2654
  42
0.4132261
  0
VERTEX
  5
1a3
  8
Layer_0
  10
-254.21338
  20
1001.7654
  0
VERTEX
  5
1a4
  8
Layer_0
  10
-254.21338
  20
988.96567
  42
0.41379273
  0
VERTEX
  5
1a5
  8
Layer_0
  10
-253.71338
  20
988.46567
  0
VERTEX
  5
1a6
  8
Layer_0
  10
-240.91357
  20
988.46567
  42
0.20036554
  0
VERTEX
  5
1a7
  8
Layer_0
  10
-240.56018
  20
988.61182
  42
0.19745571
  0
VERTEX
  5
1a8
  8
Layer_0
  10
-240.41357
  20
988.96567
  0
VERTEX
  5
1a9
  8
Layer_0
  10
-240.41357
  20
1001.7654
  0
SEQEND
  0
POLYLINE
  5
1ab
  8
Layer_0
  62
7
  70
1
  66
1
  10
0
  20
0
  30
0
  0
VERTEX
  5
1ab
  8
Layer_0
  10
-240.41748
  20
984.87827
  42
0.37842018
  0
VERTEX
  5
1ac
  8
Layer_0
  10
-240.91357
  20
985.31577
  0
VERTEX
  5
1ad
  8
Layer_0
  10
-253.71338
  20
985.31573
  42
0.41316946
  0
VERTEX
  5
1ae
  8
Layer_0
  10
-254.21338
  20
984.81573
  0
VERTEX
  5
1af
  8
Layer_0
  10
-254.21338
  20
972.01544
  42
0.19937257
  0
VERTEX
  5
1b0
  8
Layer_0
  10
-254.0672
  20
971.6618
  42
0.19842675
  0
VERTEX
  5
1b1
  8
Layer_0
  10
-253.71338
  20
971.51544
  0
VERTEX
  5
1b2
  8
Layer_0
  10
-240.91357
  20
971.51547
  42
0.41310469
  0
VERTEX
  5
1b3
  8
Layer_0
  10
-240.41357
  20
972.01547
  0
VERTEX
  5
1b4
  8
Layer_0
  10
-240.41357
  20
984.81577
  0
SEQEND
  0
POLYLINE
  5
1b6
  8
Layer_0
  62
7
  70
1
  66
1
  10
0
  20
0
  30
0
  0
VERTEX
  5
1b6
  8
Layer_0
  10
-240.41748
  20
967.8602
  42
0.37630141
  0
VERTEX
  5
1b7
  8
Layer_0
  10
-240.91357
  20
968.2977
  0
VERTEX
  5
1b8
  8
Layer_0
  10
-253.71338
  20
968.29767
  42
0.19933212
  0
VERTEX
  5
1b9
  8
Layer_0
  10
-254.06702
  20
968.15143
  42
0.19838624
  0
VERTEX
  5
1ba
  8
Layer_0
  10
-254.21338
  20
967.79767
  0
VERTEX
  5
1bb
  8
Layer_0
  10
-254.21338
  20
954.99786
  42
0.41391413
  0
VERTEX
  5
1bc
  8
Layer_0
  10
-253.71338
  20
954.49786
  0
VERTEX
  5
1bd
  8
Layer_0
  10
-240.91357
  20
954.49789
  42
0.41383319
  0
VERTEX
  5
1be
  8
Layer_0
  10
-240.41357
  20
954.99789
  0
VERTEX
  5
1bf
  8
Layer_0
  10
-240.41357
  20
967.7977
  0
SEQEND
  0
POLYLINE
  5
1c1
  8
Layer_0
  62
7
  70
1
  66
1
  10
0
  20
0
  30
0
  0
VERTEX
  5
1c1
  8
Layer_0
  10
-222.4292
  20
1007.328
  42
0.37719626
  0
VERTEX
  5
1c2
  8
Layer_0
  10
-222.92529
  20
1007.7655
  0
VERTEX
  5
1c3
  8
Layer_0
  10
-235.72559
  20
1007.7654
  42
0.19783018
  0
VERTEX
  5
1c4
  8
Layer_0
  10
-236.07935
  20
1007.6189
  42
0.1997688
  0
VERTEX
  5
1c5
  8
Layer_0
  10
-236.22559
  20
1007.2654
  0
VERTEX
  5
1c6
  8
Layer_0
  10
-236.22559
  20
994.46567
  42
0.41308041
  0
VERTEX
  5
1c7
  8
Layer_0
  10
-235.72559
  20
993.96567
  0
VERTEX
  5
1c8
  8
Layer_0
  10
-222.92529
  20
993.96567
  42
0.19839241
  0
VERTEX
  5
1c9
  8
Layer_0
  10
-222.57166
  20
994.11212
  42
0.1993445
  0
VERTEX
  5
1ca
  8
Layer_0
  10
-222.42529
  20
994.46567
  0
VERTEX
  5
1cb
  8
Layer_0
  10
-222.42529
  20
1007.2655
  0
SEQEND
  0
POLYLINE
  5
1cd
  8
Layer_0
  62
7
  70
1
  66
1
  10
0
  20
0
  30
0
  0
VERTEX
  5
1cd
  8
Layer_0
  10
-222.4292
  20
973.19418
  42
0.37735662
  0
VERTEX
  5
1ce
  8
Layer_0
  10
-222.92529
  20
973.63168
  0
VERTEX
  5
1cf
  8
Layer_0
  10
-235.72559
  20
973.63168
  42
0.41329088
  0
VERTEX
  5
1d0
  8
Layer_0
  10
-236.22559
  20
973.13168
  0
VERTEX
  5
1d1
  8
Layer_0
  10
-236.22559
  20
960.33188
  42
0.20087064
  0
VERTEX
  5
1d2
  8
Layer_0
  10
-236.07965
  20
959.97839
  42
0.1970303
  0
VERTEX
  5
1d3
  8
Layer_0
  10
-235.72559
  20
959.83188
  0
VERTEX
  5
1d4
  8
Layer_0
  10
-222.92529
  20
959.83188
  42
0.19932336
  0
VERTEX
  5
1d5
  8
Layer_0
  10
-222.57184
  20
959.97824
  42
0.1983924
  0
VERTEX
  5
1d6
  8
Layer_0
  10
-222.42529
  20
960.33188
  0
VERTEX
  5
1d7
  8
Layer_0
  10
-222.42529
  20
973.13168
  0
SEQEND
  0
POLYLINE
  5
1d9
  8
Layer_0
  62
7
  70
1
  66
1
  10
0
  20
0
  30
0
  0
VERTEX
  5
1d9
  8
Layer_0
  10
-222.4292
  20
990.21225
  42
0.37771076
  0
VERTEX
  5
1da
  8
Layer_0
  10
-222.92529
  20
990.64975
  0
VERTEX
  5
1db
  8
Layer_0
  10
-235.72559
  20
990.64975
  42
0.41385746
  0
VERTEX
  5
1dc
  8
Layer_0
  10
-236.22559
  20
990.14975
  0
VERTEX
  5
1dd
  8
Layer_0
  10
-236.22559
  20
977.34943
  42
0.41317754
  0
VERTEX
  5
1de
  8
Layer_0
  10
-235.72559
  20
976.84943
  0
VERTEX
  5
1df
  8
Layer_0
  10
-222.92529
  20
976.84943
  42
0.41355798
  0
VERTEX
  5
1e0
  8
Layer_0
  10
-222.42529
  20
977.34943
  0
VERTEX
  5
1e1
  8
Layer_0
  10
-222.42529
  20
990.14975
  0
SEQEND
  0
POLYLINE
  5
1e3
  8
Layer_0
  62
7
  70
1
  66
1
  10
0
  20
0
  30
0
  0
VERTEX
  5
1e3
  8
Layer_0
  10
-204.40332
  20
1000.328
  42
0.37911436
  0
VERTEX
  5
1e4
  8
Layer_0
  10
-204.89941
  20
1000.7655
  0
VERTEX
  5
1e5
  8
Layer_0
  10
-217.69977
  20
1000.7655
  42
0.19737624
  0
VERTEX
  5
1e6
  8
Layer_0
  10
-218.05353
  20
1000.6188
  42
0.20022484
  0
VERTEX
  5
1e7
  8
Layer_0
  10
-218.19977
  20
1000.2655
  0
VERTEX
  5
1e8
  8
Layer_0
  10
-218.19971
  20
987.46567
  42
0.20030133
  0
VERTEX
  5
1e9
  8
Layer_0
  10
-218.05347
  20
987.11234
  42
0.19746607
  0
VERTEX
  5
1ea
  8
Layer_0
  10
-217.69971
  20
986.96567
  0
VERTEX
  5
1eb
  8
Layer_0
  10
-204.89941
  20
986.96567
  42
0.19885256
  0
VERTEX
  5
1ec
  8
Layer_0
  10
-204.54584
  20
987.11206
  42
0.19887371
  0
VERTEX
  5
1ed
  8
Layer_0
  10
-204.39941
  20
987.46567
  0
VERTEX
  5
1ee
  8
Layer_0
  10
-204.39941
  20
1000.2655
  0
SEQEND
  0
POLYLINE
  5
1f0
  8
Layer_0
  62
7
  70
1
  66
1
  10
0
  20
0
  30
0
  0
VERTEX
  5
1f0
  8
Layer_0
  10
-204.40332
  20
983.35434
  42
0.37984838
  0
VERTEX
  5
1f1
  8
Layer_0
  10
-204.89941
  20
983.79184
  0
VERTEX
  5
1f2
  8
Layer_0
  10
-217.69971
  20
983.79184
  42
0.41351755
  0
VERTEX
  5
1f3
  8
Layer_0
  10
-218.19971
  20
983.29184
  0
VERTEX
  5
1f4
  8
Layer_0
  10
-218.19971
  20
970.49152
  42
0.41381703
  0
VERTEX
  5
1f5
  8
Layer_0
  10
-217.69971
  20
969.99152
  0
VERTEX
  5
1f6
  8
Layer_0
  10
-204.89941
  20
969.99155
  42
0.20129278
  0
VERTEX
  5
1f7
  8
Layer_0
  10
-204.5462
  20
970.1376
  42
0.19652532
  0
VERTEX
  5
1f8
  8
Layer_0
  10
-204.39941
  20
970.49155
  0
VERTEX
  5
1f9
  8
Layer_0
  10
-204.39941
  20
983.29184
  0
SEQEND
  0
POLYLINE
  5
1fb
  8
Layer_0
  62
7
  70
1
  66
1
  10
0
  20
0
  30
0
  0
VERTEX
  5
1fb
  8
Layer_0
  10
-204.40332
  20
966.33627
  42
0.37618687
  0
VERTEX
  5
1fc
  8
Layer_0
  10
-204.89941
  20
966.77377
  0
VERTEX
  5
1fd
  8
Layer_0
  10
-217.69971
  20
966.77377
  42
0.41245691
  0
VERTEX
  5
1fe
  8
Layer_0
  10
-218.19971
  20
966.27377
  0
VERTEX
  5
1ff
  8
Layer_0
  10
-218.19971
  20
953.47348
  42
0.41266746
  0
VERTEX
  5
200
  8
Layer_0
  10
-217.69971
  20
952.97348
  0
VERTEX
  5
201
  8
Layer_0
  10
-204.89941
  20
952.97348
  42
0.41315327
  0
VERTEX
  5
202
  8
Layer_0
  10
-204.39941
  20
953.47348
  0
VERTEX
  5
203
  8
Layer_0
  10
-204.39941
  20
966.27377
  0
SEQEND
  0
POLYLINE
  5
205
  8
Layer_0
  62
7
  70
1
  66
1
  10
0
  20
0
  30
0
  0
VERTEX
  5
205
  8
Layer_0
  10
-186.38525
  20
988.32797
  42
0.37454451
  0
VERTEX
  5
206
  8
Layer_0
  10
-186.88135
  20
988.76547
  0
VERTEX
  5
207
  8
Layer_0
  10
-199.68164
  20
988.76547
  42
0.20084532
  0
VERTEX
  5
208
  8
Layer_0
  10
-200.03503
  20
988.61942
  42
0.19697909
  0
VERTEX
  5
209
  8
Layer_0
  10
-200.18164
  20
988.26547
  0
VERTEX
  5
20a
  8
Layer_0
  10
-200.18164
  20
975.46567
  42
0.41320183
  0
VERTEX
  5
20b
  8
Layer_0
  10
-199.68164
  20
974.96567
  0
VERTEX
  5
20c
  8
Layer_0
  10
-186.88135
  20
974.96567
  42
0.41286177
  0
VERTEX
  5
20d
  8
Layer_0
  10
-186.38135
  20
975.46567
  0
VERTEX
  5
20e
  8
Layer_0
  10
-186.38135
  20
988.26547
  0
SEQEND
  0
POLYLINE
  5
210
  8
Layer_0
  62
7
  70
1
  66
1
  10
0
  20
0
  30
0
  0
VERTEX
  5
210
  8
Layer_0
  10
-186.38525
  20
971.32797
  42
0.37810208
  0
VERTEX
  5
211
  8
Layer_0
  10
-186.88135
  20
971.76547
  0
VERTEX
  5
212
  8
Layer_0
  10
-199.68164
  20
971.76547
  42
0.20084532
  0
VERTEX
  5
213
  8
Layer_0
  10
-200.03503
  20
971.61942
  42
0.19697909
  0
VERTEX
  5
214
  8
Layer_0
  10
-200.18164
  20
971.26547
  0
VERTEX
  5
215
  8
Layer_0
  10
-200.18164
  20
958.46567
  42
0.41371178
  0
VERTEX
  5
216
  8
Layer_0
  10
-199.68164
  20
957.96567
  0
VERTEX
  5
217
  8
Layer_0
  10
-186.88135
  20
957.96567
  42
0.19936384
  0
VERTEX
  5
218
  8
Layer_0
  10
-186.52783
  20
958.11197
  42
0.19841794
  0
VERTEX
  5
219
  8
Layer_0
  10
-186.38135
  20
958.46567
  0
VERTEX
  5
21a
  8
Layer_0
  10
-186.38135
  20
971.26547
  0
SEQEND
  0
POLYLINE
  5
21c
  8
Layer_0
  62
7
  70
1
  66
1
  10
0
  20
0
  30
0
  0
VERTEX
  5
21c
  8
Layer_0
  10
-186.38525
  20
954.32797
  42
0.37810208
  0
VERTEX
  5
21d
  8
Layer_0
  10
-186.88135
  20
954.76547
  0
VERTEX
  5
21e
  8
Layer_0
  10
-199.68164
  20
954.76547
  42
0.20084532
  0
VERTEX
  5
21f
  8
Layer_0
  10
-200.03503
  20
954.61942
  42
0.19697909
  0
VERTEX
  5
220
  8
Layer_0
  10
-200.18164
  20
954.26547
  0
VERTEX
  5
221
  8
Layer_0
  10
-200.18164
  20
941.46567
  42
0.41319371
  0
VERTEX
  5
222
  8
Layer_0
  10
-199.68164
  20
940.96567
  0
VERTEX
  5
223
  8
Layer_0
  10
-186.88135
  20
940.96567
  42
0.41284558
  0
VERTEX
  5
224
  8
Layer_0
  10
-186.38135
  20
941.46567
  0
VERTEX
  5
225
  8
Layer_0
  10
-186.38135
  20
954.26547
  0
SEQEND
  0
ELLIPSE
  5
227
  8
Layer_0
  62
7
  10
-285.05798
  20
939.68054
  30
0
  11
0
  21
-1.1000061
  31
0
  40
0.99997228
  41
0
  42
6.2831855
  0
POLYLINE
  5
227
  8
Layer_0
  62
7
  70
1
  66
1
  10
0
  20
0
  30
0
  0
VERTEX
  5
227
  8
Layer_0
  10
-278.03748
  20
941.8457
  42
0.41048914
  0
VERTEX
  5
228
  8
Layer_0
  10
-277.73743
  20
942.14575
  0
VERTEX
  5
229
  8
Layer_0
  10
-277.73743
  20
943.07269
  42
-0.41421356
  0
VERTEX
  5
22a
  8
Layer_0
  10
-277.43744
  20
943.37268
  0
VERTEX
  5
22b
  8
Layer_0
  10
-276.43982
  20
943.37268
  0
VERTEX
  5
22c
  8
Layer_0
  10
-274.8316
  20
943.37268
  42
0.41421356
  0
VERTEX
  5
22d
  8
Layer_0
  10
-274.53162
  20
943.6727
  0
VERTEX
  5
22e
  8
Layer_0
  10
-274.53162
  20
944.55331
  0
VERTEX
  5
22f
  8
Layer_0
  10
-274.53162
  20
1000.8083
  42
-0.27791092
  0
VERTEX
  5
230
  8
Layer_0
  10
-273.59265
  20
1002.3571
  42
-0.06770213
  0
VERTEX
  5
231
  8
Layer_0
  10
-235.6925
  20
1010.7409
  0
VERTEX
  5
232
  8
Layer_0
  10
-235.59998
  20
1010.745
  0
VERTEX
  5
233
  8
Layer_0
  10
-231.3988
  20
1010.7394
  42
-0.16870376
  0
VERTEX
  5
234
  8
Layer_0
  10
-188.18005
  20
995.72992
  0
VERTEX
  5
235
  8
Layer_0
  10
-186.97913
  20
994.75946
  42
-0.0043983618
  0
VERTEX
  5
236
  8
Layer_0
  10
-185.79431
  20
993.75751
  42
-0.13562936
  0
VERTEX
  5
237
  8
Layer_0
  10
-184.16589
  20
991.60468
  42
-0.10540311
  0
VERTEX
  5
238
  8
Layer_0
  10
-183.99963
  20
990.96259
  0
VERTEX
  5
239
  8
Layer_0
  10
-184.05359
  20
982.47968
  0
VERTEX
  5
23a
  8
Layer_0
  10
-184.05359
  20
953.5249
  0
VERTEX
  5
23b
  8
Layer_0
  10
-184.03796
  20
941.70386
  42
-0.37596495
  0
VERTEX
  5
23c
  8
Layer_0
  10
-186.76453
  20
938.87524
  0
VERTEX
  5
23d
  8
Layer_0
  10
-186.86072
  20
938.86865
  42
0.053509002
  0
VERTEX
  5
23e
  8
Layer_0
  10
-255.47888
  20
931.41235
  42
0.063806019
  0
VERTEX
  5
23f
  8
Layer_0
  10
-275.48401
  20
923.07327
  0
VERTEX
  5
240
  8
Layer_0
  10
-276.9115
  20
922.2366
  42
-0.39860122
  0
VERTEX
  5
241
  8
Layer_0
  10
-280.85022
  20
923.30447
  0
VERTEX
  5
242
  8
Layer_0
  10
-288.79871
  20
937.36975
  42
-0.26671309
  0
VERTEX
  5
243
  8
Layer_0
  10
-288.77808
  20
940.35767
  42
-0.26671154
  0
VERTEX
  5
244
  8
Layer_0
  10
-286.18689
  20
941.8457
  0
SEQEND
  0
ELLIPSE
  5
246
  8
Layer_0
  62
7
  10
-200.349
  20
992.89368
  30
0
  11
0
  21
-1.1000061
  31
0
  40
0.99997228
  41
0
  42
6.2831855
  0
ELLIPSE
  5
246
  8
Layer_0
  62
7
  10
-203.90503
  20
948.82855
  30
0
  11
0
  21
-1.1000061
  31
0
  40
0.99997228
  41
0
  42
6.2831855
  0
ELLIPSE
  5
246
  8
Layer_0
  62
7
  10
-257.37201
  20
1003.0536
  30
0
  11
0
  21
-1.1000061
  31
0
  40
0.99997228
  41
0
  42
6.2831855
  0
ENDSEC
  0
EOF
