<?xml version="1.0" encoding="UTF-8" standalone="no"?>
<svg xmlns="http://www.w3.org/2000/svg" xmlns:xlink="http://www.w3.org/1999/xlink" width="212.375mm" height="88.863mm" viewBox="-989.186890 -510.745026 212.374512 88.862946">
    <path transform="matrix(0,-1,1,0,-732.406067,-366.720032)" style="stroke:#000000;stroke-width:0.050000mm;fill:none" d="M64.142578,-67.038574C64.216835,-67.032433,64.288918,-67.010284,64.353516,-66.973145L75.437988,-60.573242C75.552727,-60.506737,75.63662,-60.397575,75.671028,-60.269497C75.705429,-60.141415,75.687538,-60.004913,75.621094,-59.890137L69.221191,-48.805176C69.083023,-48.566067,68.777275,-48.484043,68.538086,-48.62207L57.453125,-55.021973C57.213982,-55.160091,57.132015,-55.46587,57.27002,-55.705078L63.67041,-66.790039C63.76696,-66.956772,63.950481,-67.053383,64.142578,-67.038574z"/>
    <path transform="matrix(0,-1,1,0,-732.406067,-366.720032)" style="stroke:#000000;stroke-width:0.050000mm;fill:none" d="M132.60791,-75.161621C132.858185,-75.130867,133.04599,-74.917686,133.04541,-74.665527L133.04541,-61.865723C133.044754,-61.58979,132.821335,-61.366375,132.54541,-61.365723L119.745613,-61.365723C119.469597,-61.366165,119.246048,-61.589725,119.245613,-61.865723L119.245613,-74.665527C119.246094,-74.941452,119.469688,-75.164604,119.745613,-75.165527L132.54541,-75.165527L132.60791,-75.161621z"/>
    <path transform="matrix(0,-1,1,0,-732.406067,-366.720032)" style="stroke:#000000;stroke-width:0.050000mm;fill:none" d="M115.618156,-75.161621C115.868057,-75.12986,116.055527,-74.917442,116.055656,-74.665527L116.055656,-61.865723C116.05526,-61.589684,115.831703,-61.365913,115.555656,-61.365723L102.755859,-61.365723C102.479782,-61.365795,102.256149,-61.589645,102.255859,-61.865723L102.255859,-74.665527C102.256416,-74.941521,102.479874,-75.165184,102.755859,-75.165527L115.555656,-75.165527L115.618156,-75.161621z"/>
    <path transform="matrix(0,-1,1,0,-732.406067,-366.720032)" style="stroke:#000000;stroke-width:0.050000mm;fill:none" d="M98.600098,-75.161621C98.850121,-75.130264,99.037537,-74.917511,99.037598,-74.665527L99.037598,-61.865723C99.037674,-61.58963,98.81369,-61.366074,98.537598,-61.365723L85.737793,-61.365723C85.461693,-61.36562,85.238129,-61.589622,85.237793,-61.865723L85.237793,-74.665527C85.237816,-74.798141,85.29039,-74.925392,85.384155,-75.019165C85.477928,-75.11293,85.605179,-75.165504,85.737793,-75.165527L98.537598,-75.165527L98.600098,-75.161621z"/>
    <path transform="matrix(0,-1,1,0,-732.406067,-366.720032)" style="stroke:#000000;stroke-width:0.050000mm;fill:none" d="M70.015625,-84.687012L70.049805,-84.679199L82.413574,-81.366211C82.541687,-81.33197,82.650925,-81.248192,82.717224,-81.133339C82.783516,-81.018486,82.801437,-80.881996,82.76709,-80.753906L79.454102,-68.390137C79.382584,-68.123451,79.108513,-67.96521,78.841797,-68.036621L66.478027,-71.349121C66.211426,-71.4207,66.053452,-71.694687,66.124512,-71.961426L69.4375,-84.325684C69.505417,-84.579216,69.757896,-84.736664,70.015625,-84.687012z"/>
    <path transform="matrix(0,-1,1,0,-732.406067,-366.720032)" style="stroke:#000000;stroke-width:0.050000mm;fill:none" d="M135.10791,-93.175781C135.358139,-93.144867,135.545975,-92.931824,135.54541,-92.679688L135.54541,-79.879883C135.544617,-79.603897,135.321396,-79.38002,135.04541,-79.379883L122.245613,-79.379883C121.969543,-79.38063,121.745262,-79.603821,121.745613,-79.879883L121.745613,-92.679688C121.745071,-92.812302,121.797867,-92.939445,121.891777,-93.033073C121.985687,-93.126709,122.112991,-93.179138,122.245613,-93.179688L135.04541,-93.179688L135.10791,-93.175781z"/>
    <path transform="matrix(0,-1,1,0,-732.406067,-366.720032)" style="stroke:#000000;stroke-width:0.050000mm;fill:none" d="M118.158203,-93.175781C118.40831,-93.144722,118.595657,-92.931717,118.595703,-92.679688L118.595703,-79.879883C118.595428,-79.603897,118.371689,-79.380592,118.095703,-79.379883L105.29541,-79.379883C105.162788,-79.379707,105.035492,-79.432266,104.941757,-79.526085C104.848022,-79.619911,104.795593,-79.747253,104.79541,-79.879883L104.79541,-92.679688C104.795822,-92.955666,105.01944,-93.179054,105.29541,-93.179688L118.095703,-93.179688L118.158203,-93.175781z"/>
    <path transform="matrix(0,-1,1,0,-732.406067,-366.720032)" style="stroke:#000000;stroke-width:0.050000mm;fill:none" d="M101.140137,-93.175781C101.389801,-93.143372,101.577118,-92.93145,101.577637,-92.679688L101.577637,-79.879883C101.577797,-79.747269,101.525177,-79.620026,101.431374,-79.526299C101.337547,-79.432571,101.210251,-79.380081,101.077637,-79.379883L88.277832,-79.379883C88.00174,-79.379913,87.778084,-79.60379,87.777832,-79.879883L87.777832,-92.679688C87.777901,-92.955765,88.001755,-93.179398,88.277832,-93.179688L101.077637,-93.179688L101.140137,-93.175781z"/>
    <path transform="matrix(0,-1,1,0,-732.406067,-366.720032)" style="stroke:#000000;stroke-width:0.050000mm;fill:none" d="M140.60791,-111.164063C140.857758,-111.13224,141.045074,-110.919838,141.04541,-110.667969L141.04541,-97.867676C141.044998,-97.735077,140.992477,-97.607834,140.898819,-97.513977C140.805145,-97.420128,140.678009,-97.367363,140.54541,-97.367676L127.745613,-97.367676C127.469643,-97.367996,127.246361,-97.591705,127.245613,-97.867676L127.245613,-110.667969C127.245819,-110.800583,127.298347,-110.927834,127.392067,-111.021637C127.485786,-111.115463,127.612999,-111.168114,127.745613,-111.167969L140.54541,-111.167969L140.60791,-111.164063z"/>
    <path transform="matrix(0,-1,1,0,-732.406067,-366.720032)" style="stroke:#000000;stroke-width:0.050000mm;fill:none" d="M106.474121,-111.164063C106.724007,-111.132332,106.911331,-110.919861,106.911621,-110.667969L106.911621,-97.867676C106.911186,-97.591675,106.687622,-97.368111,106.411621,-97.367676L93.611816,-97.367676C93.479187,-97.366936,93.351959,-97.41967,93.258354,-97.513641C93.164757,-97.607605,93.112518,-97.735039,93.111816,-97.867676L93.111816,-110.667969C93.111671,-110.800583,93.164375,-110.927727,93.258186,-111.021446C93.351997,-111.115173,93.47921,-111.167763,93.611816,-111.167969L106.411621,-111.167969L106.474121,-111.164063z"/>
    <path transform="matrix(0,-1,1,0,-732.406067,-366.720032)" style="stroke:#000000;stroke-width:0.050000mm;fill:none" d="M123.492188,-111.164063C123.742142,-111.132523,123.929512,-110.919907,123.929688,-110.667969L123.929688,-97.867676C123.929413,-97.591599,123.705757,-97.367737,123.429688,-97.367676L110.629387,-97.367676C110.353409,-97.368156,110.129883,-97.59169,110.129387,-97.867676L110.129387,-110.667969C110.129593,-110.944008,110.353363,-111.167557,110.629387,-111.167969L123.429688,-111.167969L123.492188,-111.164063z"/>
    <path transform="matrix(0,-1,1,0,-732.406067,-366.720032)" style="stroke:#000000;stroke-width:0.050000mm;fill:none" d="M133.60791,-129.189941C133.858093,-129.158875,134.045975,-128.945953,134.04541,-128.693848L134.04541,-115.893547C134.044815,-115.760963,133.992386,-115.633667,133.898758,-115.539772C133.80513,-115.445877,133.678009,-115.393066,133.54541,-115.393547L120.745613,-115.393547C120.612999,-115.393044,120.485893,-115.445877,120.392273,-115.539787C120.298637,-115.63369,120.246162,-115.760948,120.245613,-115.893547L120.245613,-128.693848C120.245644,-128.826462,120.298248,-128.953674,120.392014,-129.04744C120.485779,-129.14122,120.612999,-129.193817,120.745613,-129.193848L133.54541,-129.193848L133.60791,-129.189941z"/>
    <path transform="matrix(0,-1,1,0,-732.406067,-366.720032)" style="stroke:#000000;stroke-width:0.050000mm;fill:none" d="M116.634277,-129.189941C116.88459,-129.159103,117.072746,-128.946045,117.071777,-128.693848L117.071777,-115.893547C117.071777,-115.617523,116.847816,-115.394203,116.571777,-115.393547L103.771477,-115.393547C103.495407,-115.394386,103.271011,-115.617493,103.271477,-115.893547L103.271477,-128.693848C103.270592,-128.826462,103.32354,-128.953537,103.417542,-129.047073C103.511543,-129.140625,103.63887,-129.192947,103.771477,-129.193848L116.571777,-129.193848L116.634277,-129.189941z"/>
    <path transform="matrix(0,-1,1,0,-732.406067,-366.720032)" style="stroke:#000000;stroke-width:0.050000mm;fill:none" d="M99.616211,-129.189941C99.86586,-129.157516,100.053108,-128.945602,100.053711,-128.693848L100.053711,-115.893547C100.052452,-115.617683,99.82959,-115.393944,99.553711,-115.393547L86.753418,-115.393547C86.477509,-115.394386,86.254036,-115.617653,86.253418,-115.893547L86.253418,-128.693848C86.253914,-128.969833,86.47744,-129.193344,86.753418,-129.193848L99.553711,-129.193848L99.616211,-129.189941z"/>
    <path transform="matrix(0,-1,1,0,-732.406067,-366.720032)" style="stroke:#000000;stroke-width:0.050000mm;fill:none" d="M121.60791,-147.208008C121.857208,-147.17453,122.044449,-146.963455,122.04541,-146.711914L122.04541,-133.911621C122.046143,-133.779007,121.993309,-133.651855,121.899353,-133.558258C121.805389,-133.464676,121.678032,-133.412338,121.54541,-133.411621L108.745613,-133.411621C108.469627,-133.412537,108.245651,-133.635635,108.245613,-133.911621L108.245613,-146.711914C108.246567,-146.987839,108.469673,-147.211594,108.745613,-147.211914L121.54541,-147.211914L121.60791,-147.208008z"/>
    <path transform="matrix(0,-1,1,0,-732.406067,-366.720032)" style="stroke:#000000;stroke-width:0.050000mm;fill:none" d="M104.60791,-147.208008C104.857964,-147.176849,105.045189,-146.963898,105.04541,-146.711914L105.04541,-133.911621C105.046143,-133.779007,104.993309,-133.651855,104.899353,-133.558258C104.805389,-133.464676,104.678032,-133.412338,104.54541,-133.411621L91.745605,-133.411621C91.469536,-133.411423,91.246277,-133.635559,91.245605,-133.911621L91.245605,-146.711914C91.245445,-146.844528,91.298096,-146.971741,91.391914,-147.06546C91.485725,-147.159195,91.612991,-147.211716,91.745605,-147.211914L104.54541,-147.211914L104.60791,-147.208008z"/>
    <path transform="matrix(0,-1,1,0,-732.406067,-366.720032)" style="stroke:#000000;stroke-width:0.050000mm;fill:none" d="M87.60791,-147.208008C87.857964,-147.176849,88.045189,-146.963898,88.04541,-146.711914L88.04541,-133.911621C88.046143,-133.779007,87.993309,-133.651855,87.899353,-133.558258C87.805389,-133.464676,87.678032,-133.412338,87.54541,-133.411621L74.745605,-133.411621C74.469627,-133.412537,74.245651,-133.635635,74.245605,-133.911621L74.245605,-146.711914C74.246574,-146.987839,74.469673,-147.211594,74.745605,-147.211914L87.54541,-147.211914L87.60791,-147.208008z"/>
    <circle transform="matrix(-1,-0,-0,0.999999,-780.941345,-439.680542)" style="stroke:#000000;stroke-width:0.050000mm;fill:none" r="1.100002" cx="0" cy="0"/>
    <path transform="matrix(1,0,-0,0.999999,-1052.795288,-549.686401)" style="stroke:#000000;stroke-width:0.050000mm;fill:none" d="M264.833496,107.84082C264.66806,107.841187,264.535919,107.706146,264.533447,107.540771L264.533447,106.613831C264.533447,106.448143,264.399139,106.313828,264.233459,106.313828L263.23584,106.313828L261.627625,106.313828C261.461945,106.313828,261.327637,106.179512,261.327637,106.013817L261.327637,105.133209L261.327637,48.878174C261.325714,48.227966,260.964325,47.631645,260.388672,47.329346C248.19165,42.83696,235.442505,40.016739,222.488525,38.945557L222.395996,38.941406L218.194824,38.947021C202.510483,38.947014,187.28421,44.234978,174.976074,53.956543L173.775146,54.927002C173.377502,55.257324,172.982101,55.59169,172.590332,55.928955C171.862839,56.486111,171.300095,57.230145,170.961914,58.081787C170.862015,58.281769,170.805313,58.500538,170.795654,58.723877L170.849609,67.206787L170.849609,96.161621L170.833984,107.982674C170.905319,109.475723,172.071136,110.68499,173.560547,110.811279L173.656738,110.817871C196.730026,110.848389,219.733765,113.348083,242.274902,118.27417C249.270889,120.191612,255.993546,122.993927,262.280029,126.613281L263.70752,127.449951C265.095673,128.197128,266.825775,127.72821,267.64624,126.38208L275.594757,112.316788C276.119629,111.387993,276.111755,110.250313,275.574066,109.32885C275.036377,108.407402,274.049805,107.84082,272.982941,107.84082L264.833496,107.84082z"/>
    <circle transform="matrix(-1,-0,-0,0.999999,-865.65033,-492.893677)" style="stroke:#000000;stroke-width:0.050000mm;fill:none" r="1.1" cx="0" cy="0"/>
    <circle transform="matrix(-1,-0,-0,0.999999,-862.094299,-448.828552)" style="stroke:#000000;stroke-width:0.050000mm;fill:none" r="1.1" cx="0" cy="0"/>
    <circle transform="matrix(-1,-0,-0,0.999999,-808.627319,-503.05365)" style="stroke:#000000;stroke-width:0.050000mm;fill:none" r="1.1" cx="0" cy="0"/>
    <path transform="matrix(-0,-1,-1,0,-1033.593262,-366.720032)" style="stroke:#000000;stroke-width:0.050000mm;fill:none" d="M64.142578,-67.038574C64.216835,-67.032433,64.288918,-67.010284,64.353516,-66.973145L75.437988,-60.573242C75.552727,-60.506737,75.63662,-60.397575,75.671028,-60.269497C75.705429,-60.141415,75.687538,-60.004913,75.621094,-59.890137L69.221191,-48.805176C69.083023,-48.566067,68.777275,-48.484043,68.538086,-48.62207L57.453125,-55.021973C57.213982,-55.160091,57.132015,-55.46587,57.27002,-55.705078L63.67041,-66.790039C63.76696,-66.956772,63.950481,-67.053383,64.142578,-67.038574z"/>
    <path transform="matrix(-0,-1,-1,0,-1033.593262,-366.720032)" style="stroke:#000000;stroke-width:0.050000mm;fill:none" d="M132.60791,-75.161621C132.858185,-75.130867,133.04599,-74.917686,133.04541,-74.665527L133.04541,-61.865723C133.044754,-61.58979,132.821335,-61.366375,132.54541,-61.365723L119.745613,-61.365723C119.469597,-61.366165,119.246048,-61.589725,119.245613,-61.865723L119.245613,-74.665527C119.246094,-74.941452,119.469688,-75.164604,119.745613,-75.165527L132.54541,-75.165527L132.60791,-75.161621z"/>
    <path transform="matrix(-0,-1,-1,0,-1033.593262,-366.720032)" style="stroke:#000000;stroke-width:0.050000mm;fill:none" d="M115.618156,-75.161621C115.868057,-75.12986,116.055527,-74.917442,116.055656,-74.665527L116.055656,-61.865723C116.05526,-61.589684,115.831703,-61.365913,115.555656,-61.365723L102.755859,-61.365723C102.479782,-61.365795,102.256149,-61.589645,102.255859,-61.865723L102.255859,-74.665527C102.256416,-74.941521,102.479874,-75.165184,102.755859,-75.165527L115.555656,-75.165527L115.618156,-75.161621z"/>
    <path transform="matrix(-0,-1,-1,0,-1033.593262,-366.720032)" style="stroke:#000000;stroke-width:0.050000mm;fill:none" d="M98.600098,-75.161621C98.850121,-75.130264,99.037537,-74.917511,99.037598,-74.665527L99.037598,-61.865723C99.037674,-61.58963,98.81369,-61.366074,98.537598,-61.365723L85.737793,-61.365723C85.461693,-61.36562,85.238129,-61.589622,85.237793,-61.865723L85.237793,-74.665527C85.237816,-74.798141,85.29039,-74.925392,85.384155,-75.019165C85.477928,-75.11293,85.605179,-75.165504,85.737793,-75.165527L98.537598,-75.165527L98.600098,-75.161621z"/>
    <path transform="matrix(-0,-1,-1,0,-1033.593262,-366.720032)" style="stroke:#000000;stroke-width:0.050000mm;fill:none" d="M70.015625,-84.687012L70.049805,-84.679199L82.413574,-81.366211C82.541687,-81.33197,82.650925,-81.248192,82.717224,-81.133339C82.783516,-81.018486,82.801437,-80.881996,82.76709,-80.753906L79.454102,-68.390137C79.382584,-68.123451,79.108513,-67.96521,78.841797,-68.036621L66.478027,-71.349121C66.211426,-71.4207,66.053452,-71.694687,66.124512,-71.961426L69.4375,-84.325684C69.505417,-84.579216,69.757896,-84.736664,70.015625,-84.687012z"/>
    <path transform="matrix(-0,-1,-1,0,-1033.593262,-366.720032)" style="stroke:#000000;stroke-width:0.050000mm;fill:none" d="M135.10791,-93.175781C135.358139,-93.144867,135.545975,-92.931824,135.54541,-92.679688L135.54541,-79.879883C135.544617,-79.603897,135.321396,-79.38002,135.04541,-79.379883L122.245613,-79.379883C121.969543,-79.38063,121.745262,-79.603821,121.745613,-79.879883L121.745613,-92.679688C121.745071,-92.812302,121.797867,-92.939445,121.891777,-93.033073C121.985687,-93.126709,122.112991,-93.179138,122.245613,-93.179688L135.04541,-93.179688L135.10791,-93.175781z"/>
    <path transform="matrix(-0,-1,-1,0,-1033.593262,-366.720032)" style="stroke:#000000;stroke-width:0.050000mm;fill:none" d="M118.158203,-93.175781C118.40831,-93.144722,118.595657,-92.931717,118.595703,-92.679688L118.595703,-79.879883C118.595428,-79.603897,118.371689,-79.380592,118.095703,-79.379883L105.29541,-79.379883C105.162788,-79.379707,105.035492,-79.432266,104.941757,-79.526085C104.848022,-79.619911,104.795593,-79.747253,104.79541,-79.879883L104.79541,-92.679688C104.795822,-92.955666,105.01944,-93.179054,105.29541,-93.179688L118.095703,-93.179688L118.158203,-93.175781z"/>
    <path transform="matrix(-0,-1,-1,0,-1033.593262,-366.720032)" style="stroke:#000000;stroke-width:0.050000mm;fill:none" d="M101.140137,-93.175781C101.389801,-93.143372,101.577118,-92.93145,101.577637,-92.679688L101.577637,-79.879883C101.577797,-79.747269,101.525177,-79.620026,101.431374,-79.526299C101.337547,-79.432571,101.210251,-79.380081,101.077637,-79.379883L88.277832,-79.379883C88.00174,-79.379913,87.778084,-79.60379,87.777832,-79.879883L87.777832,-92.679688C87.777901,-92.955765,88.001755,-93.179398,88.277832,-93.179688L101.077637,-93.179688L101.140137,-93.175781z"/>
    <path transform="matrix(-0,-1,-1,0,-1033.593262,-366.720032)" style="stroke:#000000;stroke-width:0.050000mm;fill:none" d="M140.60791,-111.164063C140.857758,-111.13224,141.045074,-110.919838,141.04541,-110.667969L141.04541,-97.867676C141.044998,-97.735077,140.992477,-97.607834,140.898819,-97.513977C140.805145,-97.420128,140.678009,-97.367363,140.54541,-97.367676L127.745613,-97.367676C127.469643,-97.367996,127.246361,-97.591705,127.245613,-97.867676L127.245613,-110.667969C127.245819,-110.800583,127.298347,-110.927834,127.392067,-111.021637C127.485786,-111.115463,127.612999,-111.168114,127.745613,-111.167969L140.54541,-111.167969L140.60791,-111.164063z"/>
    <path transform="matrix(-0,-1,-1,0,-1033.593262,-366.720032)" style="stroke:#000000;stroke-width:0.050000mm;fill:none" d="M106.474121,-111.164063C106.724007,-111.132332,106.911331,-110.919861,106.911621,-110.667969L106.911621,-97.867676C106.911186,-97.591675,106.687622,-97.368111,106.411621,-97.367676L93.611816,-97.367676C93.479187,-97.366936,93.351959,-97.41967,93.258354,-97.513641C93.164757,-97.607605,93.112518,-97.735039,93.111816,-97.867676L93.111816,-110.667969C93.111671,-110.800583,93.164375,-110.927727,93.258186,-111.021446C93.351997,-111.115173,93.47921,-111.167763,93.611816,-111.167969L106.411621,-111.167969L106.474121,-111.164063z"/>
    <path transform="matrix(-0,-1,-1,0,-1033.593262,-366.720032)" style="stroke:#000000;stroke-width:0.050000mm;fill:none" d="M123.492188,-111.164063C123.742142,-111.132523,123.929512,-110.919907,123.929688,-110.667969L123.929688,-97.867676C123.929413,-97.591599,123.705757,-97.367737,123.429688,-97.367676L110.629387,-97.367676C110.353409,-97.368156,110.129883,-97.59169,110.129387,-97.867676L110.129387,-110.667969C110.129593,-110.944008,110.353363,-111.167557,110.629387,-111.167969L123.429688,-111.167969L123.492188,-111.164063z"/>
    <path transform="matrix(-0,-1,-1,0,-1033.593262,-366.720032)" style="stroke:#000000;stroke-width:0.050000mm;fill:none" d="M133.60791,-129.189941C133.858093,-129.158875,134.045975,-128.945953,134.04541,-128.693848L134.04541,-115.893547C134.044815,-115.760963,133.992386,-115.633667,133.898758,-115.539772C133.80513,-115.445877,133.678009,-115.393066,133.54541,-115.393547L120.745613,-115.393547C120.612999,-115.393044,120.485893,-115.445877,120.392273,-115.539787C120.298637,-115.63369,120.246162,-115.760948,120.245613,-115.893547L120.245613,-128.693848C120.245644,-128.826462,120.298248,-128.953674,120.392014,-129.04744C120.485779,-129.14122,120.612999,-129.193817,120.745613,-129.193848L133.54541,-129.193848L133.60791,-129.189941z"/>
    <path transform="matrix(-0,-1,-1,0,-1033.593262,-366.720032)" style="stroke:#000000;stroke-width:0.050000mm;fill:none" d="M116.634277,-129.189941C116.88459,-129.159103,117.072746,-128.946045,117.071777,-128.693848L117.071777,-115.893547C117.071777,-115.617523,116.847816,-115.394203,116.571777,-115.393547L103.771477,-115.393547C103.495407,-115.394386,103.271011,-115.617493,103.271477,-115.893547L103.271477,-128.693848C103.270592,-128.826462,103.32354,-128.953537,103.417542,-129.047073C103.511543,-129.140625,103.63887,-129.192947,103.771477,-129.193848L116.571777,-129.193848L116.634277,-129.189941z"/>
    <path transform="matrix(-0,-1,-1,0,-1033.593262,-366.720032)" style="stroke:#000000;stroke-width:0.050000mm;fill:none" d="M99.616211,-129.189941C99.86586,-129.157516,100.053108,-128.945602,100.053711,-128.693848L100.053711,-115.893547C100.052452,-115.617683,99.82959,-115.393944,99.553711,-115.393547L86.753418,-115.393547C86.477509,-115.394386,86.254036,-115.617653,86.253418,-115.893547L86.253418,-128.693848C86.253914,-128.969833,86.47744,-129.193344,86.753418,-129.193848L99.553711,-129.193848L99.616211,-129.189941z"/>
    <path transform="matrix(-0,-1,-1,0,-1033.593262,-366.720032)" style="stroke:#000000;stroke-width:0.050000mm;fill:none" d="M121.60791,-147.208008C121.857208,-147.17453,122.044449,-146.963455,122.04541,-146.711914L122.04541,-133.911621C122.046143,-133.779007,121.993309,-133.651855,121.899353,-133.558258C121.805389,-133.464676,121.678032,-133.412338,121.54541,-133.411621L108.745613,-133.411621C108.469627,-133.412537,108.245651,-133.635635,108.245613,-133.911621L108.245613,-146.711914C108.246567,-146.987839,108.469673,-147.211594,108.745613,-147.211914L121.54541,-147.211914L121.60791,-147.208008z"/>
    <path transform="matrix(-0,-1,-1,0,-1033.593262,-366.720032)" style="stroke:#000000;stroke-width:0.050000mm;fill:none" d="M104.60791,-147.208008C104.857964,-147.176849,105.045189,-146.963898,105.04541,-146.711914L105.04541,-133.911621C105.046143,-133.779007,104.993309,-133.651855,104.899353,-133.558258C104.805389,-133.464676,104.678032,-133.412338,104.54541,-133.411621L91.745605,-133.411621C91.469536,-133.411423,91.246277,-133.635559,91.245605,-133.911621L91.245605,-146.711914C91.245445,-146.844528,91.298096,-146.971741,91.391914,-147.06546C91.485725,-147.159195,91.612991,-147.211716,91.745605,-147.211914L104.54541,-147.211914L104.60791,-147.208008z"/>
    <path transform="matrix(-0,-1,-1,0,-1033.593262,-366.720032)" style="stroke:#000000;stroke-width:0.050000mm;fill:none" d="M87.60791,-147.208008C87.857964,-147.176849,88.045189,-146.963898,88.04541,-146.711914L88.04541,-133.911621C88.046143,-133.779007,87.993309,-133.651855,87.899353,-133.558258C87.805389,-133.464676,87.678032,-133.412338,87.54541,-133.411621L74.745605,-133.411621C74.469627,-133.412537,74.245651,-133.635635,74.245605,-133.911621L74.245605,-146.711914C74.246574,-146.987839,74.469673,-147.211594,74.745605,-147.211914L87.54541,-147.211914L87.60791,-147.208008z"/>
    <circle transform="matrix(1,-0,0,0.999999,-985.057983,-439.680542)" style="stroke:#000000;stroke-width:0.050000mm;fill:none" r="1.100002" cx="0" cy="0"/>
    <path transform="matrix(-1,0,0,0.999999,-713.203979,-549.686401)" style="stroke:#000000;stroke-width:0.050000mm;fill:none" d="M264.833496,107.84082C264.66806,107.841187,264.535919,107.706146,264.533447,107.540771L264.533447,106.613831C264.533447,106.448143,264.399139,106.313828,264.233459,106.313828L263.23584,106.313828L261.627625,106.313828C261.461945,106.313828,261.327637,106.179512,261.327637,106.013817L261.327637,105.133209L261.327637,48.878174C261.325714,48.227966,260.964325,47.631645,260.388672,47.329346C248.19165,42.83696,235.442505,40.016739,222.488525,38.945557L222.395996,38.941406L218.194824,38.947021C202.510483,38.947014,187.28421,44.234978,174.976074,53.956543L173.775146,54.927002C173.377502,55.257324,172.982101,55.59169,172.590332,55.928955C171.862839,56.486111,171.300095,57.230145,170.961914,58.081787C170.862015,58.281769,170.805313,58.500538,170.795654,58.723877L170.849609,67.206787L170.849609,96.161621L170.833984,107.982674C170.905319,109.475723,172.071136,110.68499,173.560547,110.811279L173.656738,110.817871C196.730026,110.848389,219.733765,113.348083,242.274902,118.27417C249.270889,120.191612,255.993546,122.993927,262.280029,126.613281L263.70752,127.449951C265.095673,128.197128,266.825775,127.72821,267.64624,126.38208L275.594757,112.316788C276.119629,111.387993,276.111755,110.250313,275.574066,109.32885C275.036377,108.407402,274.049805,107.84082,272.982941,107.84082L264.833496,107.84082z"/>
    <circle transform="matrix(1,-0,0,0.999999,-900.348999,-492.893677)" style="stroke:#000000;stroke-width:0.050000mm;fill:none" r="1.1" cx="0" cy="0"/>
    <circle transform="matrix(1,-0,0,0.999999,-903.905029,-448.828552)" style="stroke:#000000;stroke-width:0.050000mm;fill:none" r="1.1" cx="0" cy="0"/>
    <circle transform="matrix(1,-0,0,0.999999,-957.372009,-503.05365)" style="stroke:#000000;stroke-width:0.050000mm;fill:none" r="1.1" cx="0" cy="0"/>
</svg>
