  0
SECTION
  2
HEADER
  9
$ACADVER
  1
AC1009
  0
ENDSEC
  0
SECTION
  2
TABLES
  0
TABLE
  2
LAYER
  70
1
  0
LAYER
  2
Layer_0
  70
0
  62
7
  6
CONTINUOUS
  0
ENDTAB
  0
ENDSEC
  0
SECTION
  2
ENTITIES
  0
CIRCLE
  5
90
  8
Layer_0
  62
7
  10
-146.13849
  20
819.73962
  30
0
  40
1.6000165
  0
CIRCLE
  5
90
  8
Layer_0
  62
7
  10
-92.671448
  20
765.51465
  30
0
  40
1.599992
  0
CIRCLE
  5
90
  8
Layer_0
  62
7
  10
-173.82452
  20
756.36658
  30
0
  40
1.5999894
  0
CIRCLE
  5
90
  8
Layer_0
  62
7
  10
-89.115479
  20
809.57959
  30
0
  40
1.5999999
  0
POLYLINE
  5
90
  8
Layer_0
  62
7
  70
1
  66
1
  10
0
  20
0
  30
0
  0
VERTEX
  5
90
  8
Layer_0
  10
-181.98804
  20
796.49228
  0
VERTEX
  5
91
  8
Layer_0
  10
-182.00006
  20
766.40024
  42
0.11466284
  0
VERTEX
  5
92
  8
Layer_0
  10
-180.12408
  20
758.58383
  0
VERTEX
  5
93
  8
Layer_0
  10
-169.6167
  20
739.99057
  42
0.39859515
  0
VERTEX
  5
94
  8
Layer_0
  10
-165.67798
  20
738.9227
  0
VERTEX
  5
95
  8
Layer_0
  10
-164.25049
  20
739.75937
  42
-0.063806013
  0
VERTEX
  5
96
  8
Layer_0
  10
-144.24536
  20
748.09846
  42
-0.053508369
  0
VERTEX
  5
97
  8
Layer_0
  10
-75.627136
  20
755.55476
  0
VERTEX
  5
98
  8
Layer_0
  10
-75.530945
  20
755.56136
  42
0.37613581
  0
VERTEX
  5
99
  8
Layer_0
  10
-72.804382
  20
758.38995
  0
VERTEX
  5
9a
  8
Layer_0
  10
-72.820007
  20
770.211
  0
VERTEX
  5
9b
  8
Layer_0
  10
-72.820007
  20
799.16583
  0
VERTEX
  5
9c
  8
Layer_0
  10
-72.766052
  20
807.64874
  42
0.10658642
  0
VERTEX
  5
9d
  8
Layer_0
  10
-72.932312
  20
808.29083
  42
0.13558501
  0
VERTEX
  5
9e
  8
Layer_0
  10
-74.56073
  20
810.44366
  42
0.0046557827
  0
VERTEX
  5
9f
  8
Layer_0
  10
-75.745544
  20
811.44562
  42
0.17440414
  0
VERTEX
  5
a0
  8
Layer_0
  10
-120.16528
  20
827.4256
  0
VERTEX
  5
a1
  8
Layer_0
  10
-124.36646
  20
827.43121
  0
VERTEX
  5
a2
  8
Layer_0
  10
-124.45898
  20
827.42706
  42
0.067701821
  0
VERTEX
  5
a3
  8
Layer_0
  10
-162.35913
  20
819.04327
  42
0.27754759
  0
VERTEX
  5
a4
  8
Layer_0
  10
-163.2981
  20
817.49445
  0
VERTEX
  5
a5
  8
Layer_0
  10
-163.2981
  20
799.211
  42
-0.20165229
  0
VERTEX
  5
a6
  8
Layer_0
  10
-163.62073
  20
798.50507
  42
-0.20050335
  0
VERTEX
  5
a7
  8
Layer_0
  10
-164.35034
  20
798.23886
  0
VERTEX
  5
a8
  8
Layer_0
  10
-180.23779
  20
798.24179
  42
0.41342242
  0
SEQEND
  0
CIRCLE
  5
aa
  8
Layer_0
  62
7
  10
-219.86157
  20
819.7395
  30
0
  40
1.6000165
  0
CIRCLE
  5
aa
  8
Layer_0
  62
7
  10
-273.32861
  20
765.51453
  30
0
  40
1.599992
  0
CIRCLE
  5
aa
  8
Layer_0
  62
7
  10
-192.17554
  20
756.36658
  30
0
  40
1.5999894
  0
CIRCLE
  5
aa
  8
Layer_0
  62
7
  10
-276.88464
  20
809.57959
  30
0
  40
1.5999999
  0
POLYLINE
  5
aa
  8
Layer_0
  62
7
  70
1
  66
1
  10
0
  20
0
  30
0
  0
VERTEX
  5
aa
  8
Layer_0
  10
-184.01196
  20
796.49225
  0
VERTEX
  5
ab
  8
Layer_0
  10
-184
  20
766.40021
  42
-0.11466284
  0
VERTEX
  5
ac
  8
Layer_0
  10
-185.87598
  20
758.5838
  0
VERTEX
  5
ad
  8
Layer_0
  10
-196.38336
  20
739.99052
  42
-0.39859515
  0
VERTEX
  5
ae
  8
Layer_0
  10
-200.32208
  20
738.92265
  0
VERTEX
  5
af
  8
Layer_0
  10
-201.74957
  20
739.75932
  42
0.063806013
  0
VERTEX
  5
b0
  8
Layer_0
  10
-221.7547
  20
748.09845
  42
0.053508369
  0
VERTEX
  5
b1
  8
Layer_0
  10
-290.37292
  20
755.55476
  0
VERTEX
  5
b2
  8
Layer_0
  10
-290.46912
  20
755.56136
  42
-0.37613581
  0
VERTEX
  5
b3
  8
Layer_0
  10
-293.19568
  20
758.38995
  0
VERTEX
  5
b4
  8
Layer_0
  10
-293.18005
  20
770.211
  0
VERTEX
  5
b5
  8
Layer_0
  10
-293.18005
  20
799.16583
  0
VERTEX
  5
b6
  8
Layer_0
  10
-293.23401
  20
807.64874
  42
-0.10658642
  0
VERTEX
  5
b7
  8
Layer_0
  10
-293.06775
  20
808.29083
  42
-0.13558501
  0
VERTEX
  5
b8
  8
Layer_0
  10
-291.43933
  20
810.44366
  42
-0.0046557827
  0
VERTEX
  5
b9
  8
Layer_0
  10
-290.25452
  20
811.44562
  42
-0.17440414
  0
VERTEX
  5
ba
  8
Layer_0
  10
-245.83478
  20
827.4256
  0
VERTEX
  5
bb
  8
Layer_0
  10
-241.63361
  20
827.43121
  0
VERTEX
  5
bc
  8
Layer_0
  10
-241.54108
  20
827.42706
  42
-0.067701821
  0
VERTEX
  5
bd
  8
Layer_0
  10
-203.64087
  20
819.04327
  42
-0.27754759
  0
VERTEX
  5
be
  8
Layer_0
  10
-202.7019
  20
817.49445
  0
VERTEX
  5
bf
  8
Layer_0
  10
-202.7019
  20
799.211
  42
0.20165229
  0
VERTEX
  5
c0
  8
Layer_0
  10
-202.37927
  20
798.50504
  42
0.20050335
  0
VERTEX
  5
c1
  8
Layer_0
  10
-201.64966
  20
798.23883
  0
VERTEX
  5
c2
  8
Layer_0
  10
-185.76221
  20
798.24176
  42
-0.41342242
  0
SEQEND
  0
ENDSEC
  0
EOF
